<?xml version="1.0" encoding="UTF-8"?><svg id="_レイヤー_2" xmlns="http://www.w3.org/2000/svg" xmlns:xlink="http://www.w3.org/1999/xlink" viewBox="0 0 302 302"><defs><style>.cls-1{fill:none;}.cls-1,.cls-2,.cls-3{stroke-width:0px;}.cls-4{filter:url(#drop-shadow-1);}.cls-2{fill:#444037;}.cls-3{fill:#fff;}</style><filter id="drop-shadow-1" filterUnits="userSpaceOnUse"><feOffset dx="0" dy="0"/><feGaussianBlur result="blur" stdDeviation="5"/><feFlood flood-color="#2f2a1c" flood-opacity=".5"/><feComposite in2="blur" operator="in"/><feComposite in="SourceGraphic"/></filter></defs><g id="_レイヤー_1-2"><rect class="cls-1" width="302" height="302"/><g class="cls-4"><circle class="cls-3" cx="151" cy="151" r="111.5"/><path class="cls-3" d="m174.91,191.2l-43.8-38.32c-1.14-1-1.14-2.77,0-3.76l43.8-38.32"/><path class="cls-2" d="m174.91,191.2h0c.91-1.04.8-2.62-.24-3.53l-39.76-34.79c-1.14-1-1.14-2.77,0-3.76l39.76-34.79c1.04-.91,1.14-2.49.24-3.53h0c-.91-1.04-2.49-1.14-3.53-.24l-44.07,38.55c-1.14,1-1.14,2.77,0,3.76l44.07,38.55c1.04.91,2.62.8,3.53-.24Z"/></g></g></svg>