<?xml version="1.0" encoding="UTF-8"?><svg id="_レイヤー_2" xmlns="http://www.w3.org/2000/svg" xmlns:xlink="http://www.w3.org/1999/xlink" viewBox="0 0 768 700"><defs><style>.cls-1{stroke:#ffe000;stroke-dasharray:0 0 0 0 0 12.31 0 12.31;stroke-width:4.8px;}.cls-1,.cls-2,.cls-3,.cls-4,.cls-5,.cls-6,.cls-7{fill:none;}.cls-1,.cls-8,.cls-9,.cls-10,.cls-5{stroke-linecap:round;stroke-linejoin:round;}.cls-2{stroke:#fff;}.cls-2,.cls-3{stroke-width:3px;}.cls-2,.cls-3,.cls-11,.cls-6,.cls-7{stroke-miterlimit:10;}.cls-3{stroke:#e65296;}.cls-12{letter-spacing:.05em;}.cls-11{fill:#2f2a1c;font-family:YuGo-Bold-83pv-RKSJ-H, YuGothic;font-size:47px;font-weight:700;stroke:#2f2a1c;stroke-width:.75px;}.cls-13{clip-path:url(#clippath);}.cls-14{letter-spacing:.09em;}.cls-4,.cls-15,.cls-16,.cls-17,.cls-18,.cls-19,.cls-20,.cls-21,.cls-22,.cls-23,.cls-24,.cls-25,.cls-26,.cls-27{stroke-width:0px;}.cls-8,.cls-9,.cls-10,.cls-5{stroke:#040000;}.cls-8,.cls-9,.cls-10,.cls-5,.cls-6,.cls-7{stroke-width:2px;}.cls-8,.cls-18{fill:#f2da24;}.cls-9,.cls-19{fill:#fff;}.cls-10,.cls-27{fill:#040000;}.cls-28{letter-spacing:.13em;}.cls-29{clip-path:url(#clippath-1);}.cls-30{clip-path:url(#clippath-4);}.cls-31{clip-path:url(#clippath-3);}.cls-32{clip-path:url(#clippath-2);}.cls-33{clip-path:url(#clippath-7);}.cls-34{clip-path:url(#clippath-8);}.cls-35{clip-path:url(#clippath-6);}.cls-36{clip-path:url(#clippath-5);}.cls-37{clip-path:url(#clippath-9);}.cls-38{letter-spacing:.11em;}.cls-39{clip-path:url(#clippath-10);}.cls-40{clip-path:url(#clippath-11);}.cls-6{stroke:#00b7ed;}.cls-7{stroke:#e7a2c0;}.cls-15{fill:#57b6e0;}.cls-16{fill:#231815;}.cls-17{fill:#d9d9d9;}.cls-20{fill:#ffe100;}.cls-21{fill:#e65296;}.cls-22{fill:#e85298;}.cls-23{fill:#e96da3;}.cls-24{fill:#ffe000;}.cls-25{fill:#00b7ed;}.cls-26{fill:#00b9ef;}.cls-41{letter-spacing:.15em;}.cls-42{letter-spacing:.15em;}</style><clipPath id="clippath"><rect class="cls-4" width="768" height="700"/></clipPath><clipPath id="clippath-1"><ellipse class="cls-4" cx="59.93" cy="659.88" rx="106.77" ry="103.88"/></clipPath><clipPath id="clippath-2"><circle class="cls-4" cx="14.3" cy="518.12" r="52.46"/></clipPath><clipPath id="clippath-3"><ellipse class="cls-4" cx="445.8" cy="705.55" rx="88.97" ry="86.57"/></clipPath><clipPath id="clippath-4"><ellipse class="cls-4" cx="394.43" cy="7.04" rx="88.97" ry="86.57"/></clipPath><clipPath id="clippath-5"><ellipse class="cls-4" cx="779.94" cy="201.84" rx="88.97" ry="86.57"/></clipPath><clipPath id="clippath-6"><rect class="cls-4" width="768" height="700"/></clipPath><clipPath id="clippath-7"><rect class="cls-4" width="768" height="700"/></clipPath><clipPath id="clippath-8"><rect class="cls-4" x="209.95" y="1.52" width="348.11" height="492.32"/></clipPath><clipPath id="clippath-9"><rect class="cls-4" x="209.95" y="1.52" width="348.11" height="492.32"/></clipPath><clipPath id="clippath-10"><path class="cls-4" d="m312.97,210.8c0,10.48,32.23,18.98,71.99,18.98,20.55,0,39.08-2.27,52.2-5.91-.03,0-4.05.57-10.02-.65-3.12-.64-5.53-1.47-7.41-2.5l-64.16-26.68c-.25-.13-.48-.3-.71-.48-24.73,3-41.89,9.59-41.89,17.24"/></clipPath><clipPath id="clippath-11"><rect class="cls-4" x="209.95" y="1.52" width="348.11" height="492.32"/></clipPath></defs><g id="sp"><g class="cls-13"><path class="cls-25" d="m-2.25,626.04c67.69-76.11,209.02-82.43,322.74,29.93,35.56,35.13,183.25-26.02,250.26,115.8H2.54s-4.79-145.72-4.79-145.72Z"/><rect class="cls-25" x="636.14" y="650.09" width="196.99" height="20.1" rx="10.05" ry="10.05" transform="translate(-252.46 626.66) rotate(-40)"/><rect class="cls-25" x="709.76" y="407.51" width="196.99" height="20.1" rx="10.05" ry="10.05" transform="translate(-79.31 617.23) rotate(-40)"/><rect class="cls-25" x="709.76" y="407.51" width="196.99" height="20.1" rx="10.05" ry="10.05" transform="translate(-79.31 617.23) rotate(-40)"/><circle class="cls-25" cx="715.8" cy="499.86" r="10.1"/><circle class="cls-25" cx="715.8" cy="499.86" r="10.1"/><rect class="cls-15" x="296.61" y="728.77" width="196.99" height="20.1" rx="10.05" ry="10.05" transform="translate(-382.47 426.82) rotate(-40)"/><rect class="cls-21" x="480.23" y="696.19" width="196.99" height="20.1" rx="10.05" ry="10.05" transform="translate(-318.57 537.23) rotate(-40)"/><circle class="cls-15" cx="486.27" cy="658.54" r="10.1"/><rect class="cls-21" x="667.95" y="532.62" width="196.99" height="20.1" rx="10.05" ry="10.05" transform="translate(-169.51 619.62) rotate(-40)"/><circle class="cls-21" cx="673.99" cy="624.97" r="10.1"/><g class="cls-29"><line class="cls-2" x1="-140.36" y1="640.19" x2="104.35" y2="455.45"/><line class="cls-2" x1="-126.06" y1="654.11" x2="118.65" y2="469.36"/><line class="cls-2" x1="-111.76" y1="668.02" x2="132.95" y2="483.27"/><line class="cls-2" x1="-97.46" y1="681.93" x2="147.24" y2="497.19"/><line class="cls-2" x1="-83.16" y1="695.84" x2="161.54" y2="511.1"/><line class="cls-2" x1="-68.87" y1="709.76" x2="175.84" y2="525.01"/><line class="cls-2" x1="-54.57" y1="723.67" x2="190.14" y2="538.92"/><line class="cls-2" x1="-40.27" y1="737.58" x2="204.44" y2="552.84"/><line class="cls-2" x1="-25.97" y1="751.5" x2="218.74" y2="566.75"/><line class="cls-2" x1="-11.67" y1="765.41" x2="233.04" y2="580.66"/><line class="cls-2" x1="2.63" y1="779.32" x2="247.34" y2="594.58"/><line class="cls-2" x1="16.93" y1="793.24" x2="261.64" y2="608.49"/><line class="cls-2" x1="31.23" y1="807.15" x2="275.94" y2="622.4"/><line class="cls-2" x1="45.53" y1="821.06" x2="290.23" y2="636.32"/></g><g class="cls-32"><circle class="cls-21" cx="3.22" cy="475.81" r="2.5"/><circle class="cls-21" cx="12.84" cy="475.81" r="2.5"/><circle class="cls-21" cx="22.47" cy="475.81" r="2.5"/><circle class="cls-21" cx="32.1" cy="475.81" r="2.5"/><circle class="cls-21" cx="41.73" cy="475.81" r="2.5"/><circle class="cls-21" cx="51.36" cy="475.81" r="2.5"/><circle class="cls-21" cx="60.99" cy="475.81" r="2.5"/><circle class="cls-21" cx="70.62" cy="475.81" r="2.5"/><circle class="cls-21" cx="80.25" cy="475.81" r="2.5"/><circle class="cls-21" cx="-1.52" cy="467.85" r="2.5"/><circle class="cls-21" cx="8.11" cy="467.85" r="2.5"/><circle class="cls-21" cx="17.74" cy="467.85" r="2.5"/><circle class="cls-21" cx="27.36" cy="467.85" r="2.5"/><circle class="cls-21" cx="36.99" cy="467.85" r="2.5"/><circle class="cls-21" cx="46.62" cy="467.85" r="2.5"/><circle class="cls-21" cx="56.25" cy="467.85" r="2.5"/><circle class="cls-21" cx="65.88" cy="467.85" r="2.5"/><circle class="cls-21" cx="75.51" cy="467.85" r="2.5"/><circle class="cls-21" cx="3.22" cy="492.05" r="2.5"/><circle class="cls-21" cx="12.84" cy="492.05" r="2.5"/><circle class="cls-21" cx="22.47" cy="492.05" r="2.5"/><circle class="cls-21" cx="32.1" cy="492.05" r="2.5"/><circle class="cls-21" cx="41.73" cy="492.05" r="2.5"/><circle class="cls-21" cx="51.36" cy="492.05" r="2.5"/><circle class="cls-21" cx="60.99" cy="492.05" r="2.5"/><circle class="cls-21" cx="70.62" cy="492.05" r="2.5"/><circle class="cls-21" cx="80.25" cy="492.05" r="2.5"/><circle class="cls-21" cx="-1.52" cy="484.08" r="2.5"/><circle class="cls-21" cx="8.11" cy="484.08" r="2.5"/><circle class="cls-21" cx="17.74" cy="484.08" r="2.5"/><circle class="cls-21" cx="27.36" cy="484.08" r="2.5"/><circle class="cls-21" cx="36.99" cy="484.08" r="2.5"/><circle class="cls-21" cx="46.62" cy="484.08" r="2.5"/><circle class="cls-21" cx="56.25" cy="484.08" r="2.5"/><circle class="cls-21" cx="65.88" cy="484.08" r="2.5"/><circle class="cls-21" cx="75.51" cy="484.08" r="2.5"/><circle class="cls-21" cx="3.22" cy="508.28" r="2.5"/><circle class="cls-21" cx="12.84" cy="508.28" r="2.5"/><circle class="cls-21" cx="22.47" cy="508.28" r="2.5"/><circle class="cls-21" cx="32.1" cy="508.28" r="2.5"/><circle class="cls-21" cx="41.73" cy="508.28" r="2.5"/><circle class="cls-21" cx="51.36" cy="508.28" r="2.5"/><circle class="cls-21" cx="60.99" cy="508.28" r="2.5"/><circle class="cls-21" cx="70.62" cy="508.28" r="2.5"/><circle class="cls-21" cx="80.25" cy="508.28" r="2.5"/><circle class="cls-21" cx="-1.52" cy="500.32" r="2.5"/><circle class="cls-21" cx="8.11" cy="500.32" r="2.5"/><circle class="cls-21" cx="17.74" cy="500.32" r="2.5"/><circle class="cls-21" cx="27.36" cy="500.32" r="2.5"/><circle class="cls-21" cx="36.99" cy="500.32" r="2.5"/><circle class="cls-21" cx="46.62" cy="500.32" r="2.5"/><circle class="cls-21" cx="56.25" cy="500.32" r="2.5"/><circle class="cls-21" cx="65.88" cy="500.32" r="2.5"/><circle class="cls-21" cx="75.51" cy="500.32" r="2.5"/><circle class="cls-21" cx="3.22" cy="524.52" r="2.5"/><circle class="cls-21" cx="12.84" cy="524.52" r="2.5"/><circle class="cls-21" cx="22.47" cy="524.52" r="2.5"/><circle class="cls-21" cx="32.1" cy="524.52" r="2.5"/><circle class="cls-21" cx="41.73" cy="524.52" r="2.5"/><circle class="cls-21" cx="51.36" cy="524.52" r="2.5"/><circle class="cls-21" cx="60.99" cy="524.52" r="2.5"/><circle class="cls-21" cx="70.62" cy="524.52" r="2.5"/><circle class="cls-21" cx="80.25" cy="524.52" r="2.5"/><circle class="cls-21" cx="-1.52" cy="516.56" r="2.5"/><circle class="cls-21" cx="8.11" cy="516.56" r="2.5"/><circle class="cls-21" cx="17.74" cy="516.56" r="2.5"/><circle class="cls-21" cx="27.36" cy="516.56" r="2.5"/><circle class="cls-21" cx="36.99" cy="516.56" r="2.5"/><circle class="cls-21" cx="46.62" cy="516.56" r="2.5"/><circle class="cls-21" cx="56.25" cy="516.56" r="2.5"/><circle class="cls-21" cx="65.88" cy="516.56" r="2.5"/><circle class="cls-21" cx="75.51" cy="516.56" r="2.5"/><circle class="cls-21" cx="3.22" cy="540.76" r="2.5"/><circle class="cls-21" cx="12.84" cy="540.76" r="2.5"/><circle class="cls-21" cx="22.47" cy="540.76" r="2.5"/><circle class="cls-21" cx="32.1" cy="540.76" r="2.5"/><circle class="cls-21" cx="41.73" cy="540.76" r="2.5"/><circle class="cls-21" cx="51.36" cy="540.76" r="2.5"/><circle class="cls-21" cx="60.99" cy="540.76" r="2.5"/><circle class="cls-21" cx="70.62" cy="540.76" r="2.5"/><circle class="cls-21" cx="80.25" cy="540.76" r="2.5"/><circle class="cls-21" cx="-1.52" cy="532.8" r="2.5"/><circle class="cls-21" cx="8.11" cy="532.8" r="2.5"/><circle class="cls-21" cx="17.74" cy="532.8" r="2.5"/><circle class="cls-21" cx="27.36" cy="532.8" r="2.5"/><circle class="cls-21" cx="36.99" cy="532.8" r="2.5"/><circle class="cls-21" cx="46.62" cy="532.8" r="2.5"/><circle class="cls-21" cx="56.25" cy="532.8" r="2.5"/><circle class="cls-21" cx="65.88" cy="532.8" r="2.5"/><circle class="cls-21" cx="75.51" cy="532.8" r="2.5"/><circle class="cls-21" cx="3.22" cy="557" r="2.5"/><circle class="cls-21" cx="12.84" cy="557" r="2.5"/><circle class="cls-21" cx="22.47" cy="557" r="2.5"/><circle class="cls-21" cx="32.1" cy="557" r="2.5"/><circle class="cls-21" cx="41.73" cy="557" r="2.5"/><circle class="cls-21" cx="51.36" cy="557" r="2.5"/><circle class="cls-21" cx="60.99" cy="557" r="2.5"/><circle class="cls-21" cx="70.62" cy="557" r="2.5"/><circle class="cls-21" cx="80.25" cy="557" r="2.5"/><circle class="cls-21" cx="-1.52" cy="549.03" r="2.5"/><circle class="cls-21" cx="8.11" cy="549.03" r="2.5"/><circle class="cls-21" cx="17.74" cy="549.03" r="2.5"/><circle class="cls-21" cx="27.36" cy="549.03" r="2.5"/><circle class="cls-21" cx="36.99" cy="549.03" r="2.5"/><circle class="cls-21" cx="46.62" cy="549.03" r="2.5"/><circle class="cls-21" cx="56.25" cy="549.03" r="2.5"/><circle class="cls-21" cx="65.88" cy="549.03" r="2.5"/><circle class="cls-21" cx="75.51" cy="549.03" r="2.5"/><circle class="cls-21" cx="3.22" cy="573.23" r="2.5"/><circle class="cls-21" cx="12.84" cy="573.23" r="2.5"/><circle class="cls-21" cx="22.47" cy="573.23" r="2.5"/><circle class="cls-21" cx="32.1" cy="573.23" r="2.5"/><circle class="cls-21" cx="41.73" cy="573.23" r="2.5"/><circle class="cls-21" cx="51.36" cy="573.23" r="2.5"/><circle class="cls-21" cx="60.99" cy="573.23" r="2.5"/><circle class="cls-21" cx="70.62" cy="573.23" r="2.5"/><circle class="cls-21" cx="80.25" cy="573.23" r="2.5"/><circle class="cls-21" cx="-1.52" cy="565.27" r="2.5"/><circle class="cls-21" cx="8.11" cy="565.27" r="2.5"/><circle class="cls-21" cx="17.74" cy="565.27" r="2.5"/><circle class="cls-21" cx="27.36" cy="565.27" r="2.5"/><circle class="cls-21" cx="36.99" cy="565.27" r="2.5"/><circle class="cls-21" cx="46.62" cy="565.27" r="2.5"/><circle class="cls-21" cx="56.25" cy="565.27" r="2.5"/><circle class="cls-21" cx="65.88" cy="565.27" r="2.5"/><circle class="cls-21" cx="75.51" cy="565.27" r="2.5"/></g><circle class="cls-1" cx="251.9" cy="596.73" r="66.62" transform="translate(-.74 .31) rotate(-.07)"/><g class="cls-31"><line class="cls-3" x1="588.88" y1="698.77" x2="384.96" y2="852.73"/><line class="cls-3" x1="576.96" y1="687.18" x2="373.04" y2="841.13"/><line class="cls-3" x1="565.05" y1="675.58" x2="361.13" y2="829.54"/><line class="cls-3" x1="553.13" y1="663.99" x2="349.21" y2="817.94"/><line class="cls-3" x1="541.22" y1="652.39" x2="337.29" y2="806.35"/><line class="cls-3" x1="529.3" y1="640.8" x2="325.38" y2="794.76"/><line class="cls-3" x1="517.39" y1="629.21" x2="313.46" y2="783.16"/><line class="cls-3" x1="505.47" y1="617.61" x2="301.55" y2="771.57"/><line class="cls-3" x1="493.55" y1="606.02" x2="289.63" y2="759.97"/><line class="cls-3" x1="481.64" y1="594.42" x2="277.72" y2="748.38"/><line class="cls-3" x1="469.72" y1="582.83" x2="265.8" y2="736.78"/><line class="cls-3" x1="457.81" y1="571.24" x2="253.88" y2="725.19"/></g><circle class="cls-6" cx="106.54" cy="344.58" r="14.15"/><circle class="cls-24" cx="27.83" cy="392.63" r="7.07"/><circle class="cls-6" cx="564.6" cy="631.78" r="14.15"/><circle class="cls-25" cx="374.6" cy="590.39" r="7.07"/><circle class="cls-23" cx="493.4" cy="569.95" r="7.07"/><polygon class="cls-24" points="223 608.47 237.92 616.77 237.64 599.7 223 608.47"/><polygon class="cls-21" points="686.37 328.65 696.6 342.32 703.32 326.63 686.37 328.65"/><polygon class="cls-24" points="613.94 270.65 603.55 277.25 604.63 264.98 595.14 257.13 607.14 254.37 611.67 242.92 618.01 253.48 630.3 254.25 622.21 263.54 625.28 275.47 613.94 270.65"/><polygon class="cls-25" points="674.15 415.53 663.75 422.13 664.83 409.86 655.34 402.01 667.34 399.25 671.88 387.8 678.21 398.36 690.5 399.13 682.41 408.42 685.48 420.35 674.15 415.53"/><path class="cls-25" d="m807.93,67.22c-67.69,76.11-209.02,82.43-322.74-29.93-35.56-35.13-183.25,26.02-250.26-115.8h568.22s4.79,145.72,4.79,145.72Z"/><rect class="cls-25" x="33.04" y="-5.35" width="196.99" height="20.1" rx="10.05" ry="10.05" transform="translate(235.32 -76.25) rotate(140)"/><rect class="cls-25" x="-150.58" y="157.23" width="196.99" height="20.1" rx="10.05" ry="10.05" transform="translate(15.54 328.9) rotate(140)"/><circle class="cls-25" cx="40.37" cy="84.98" r="10.1"/><rect class="cls-23" x="188.95" y="-51.45" width="196.99" height="20.1" rx="-5.63" ry="-5.63" transform="translate(481.03 -257.89) rotate(140)"/><rect class="cls-23" x="1.23" y="112.12" width="196.99" height="20.1" rx="10.05" ry="10.05" transform="translate(254.65 151.66) rotate(140)"/><circle class="cls-23" cx="192.18" cy="39.88" r="10.1"/><circle class="cls-1" cx="585.43" cy="45.26" r="66.62" transform="translate(529.34 629.75) rotate(-88.94)"/><g class="cls-30"><line class="cls-3" x1="239.44" y1="2.23" x2="443.36" y2="-151.73"/><line class="cls-3" x1="251.36" y1="13.82" x2="455.28" y2="-140.13"/><line class="cls-3" x1="263.27" y1="25.42" x2="467.19" y2="-128.54"/><line class="cls-3" x1="275.19" y1="37.01" x2="479.11" y2="-116.94"/><line class="cls-3" x1="287.1" y1="48.6" x2="491.03" y2="-105.35"/><line class="cls-3" x1="299.02" y1="60.2" x2="502.94" y2="-93.76"/><line class="cls-3" x1="310.93" y1="71.79" x2="514.86" y2="-82.16"/><line class="cls-3" x1="322.85" y1="83.39" x2="526.77" y2="-70.57"/><line class="cls-3" x1="334.77" y1="94.98" x2="538.69" y2="-58.97"/><line class="cls-3" x1="346.68" y1="106.58" x2="550.6" y2="-47.38"/><line class="cls-3" x1="358.6" y1="118.17" x2="562.52" y2="-35.79"/><line class="cls-3" x1="370.51" y1="129.76" x2="574.44" y2="-24.19"/><line class="cls-3" x1="382.43" y1="141.36" x2="586.35" y2="-12.6"/></g><circle class="cls-6" cx="633.73" cy="148.44" r="14.15"/><circle class="cls-23" cx="44.17" cy="20.6" r="7.07"/><circle class="cls-7" cx="95.6" cy="99.78" r="14.15"/><circle class="cls-25" cx="492.72" cy="101.6" r="7.07"/><circle class="cls-25" cx="171.55" cy="115.73" r="7.07"/><polygon class="cls-24" points="608.96 33.1 594.04 24.8 594.32 41.87 608.96 33.1"/><polygon class="cls-23" points="143.37 208.87 132.65 195.58 126.51 211.51 143.37 208.87"/><polygon class="cls-24" points="249.65 37.24 260.04 30.64 258.96 42.91 268.45 50.76 256.45 53.52 251.92 64.97 245.58 54.41 233.29 53.64 241.38 44.35 238.31 32.42 249.65 37.24"/><polygon class="cls-25" points="58.76 260.29 69.15 253.69 68.07 265.96 77.56 273.8 65.56 276.56 61.03 288.02 54.69 277.45 42.4 276.68 50.49 267.4 47.43 255.47 58.76 260.29"/><g class="cls-36"><line class="cls-3" x1="653.03" y1="205.43" x2="856.96" y2="51.48"/><line class="cls-3" x1="664.95" y1="217.03" x2="868.87" y2="63.07"/><line class="cls-3" x1="676.87" y1="228.62" x2="880.79" y2="74.67"/><line class="cls-3" x1="688.78" y1="240.22" x2="892.71" y2="86.26"/><line class="cls-3" x1="700.7" y1="251.81" x2="904.62" y2="97.85"/><line class="cls-3" x1="712.61" y1="263.4" x2="916.54" y2="109.45"/><line class="cls-3" x1="724.53" y1="275" x2="928.45" y2="121.04"/><line class="cls-3" x1="736.45" y1="286.59" x2="940.37" y2="132.64"/><line class="cls-3" x1="748.36" y1="298.19" x2="952.28" y2="144.23"/><line class="cls-3" x1="760.28" y1="309.78" x2="964.2" y2="155.83"/></g></g><g class="cls-35"><path class="cls-8" d="m193.29,680.18c-13.59,2.16-25.76,1.92-40.07.27-6.88-.79-6.03-6.63-5.37-9.6-3.99-.39-8.47-4.01-8.88-9.87-.76-11.04-.6-20.66.68-30.08.91-6.67,3.39-16.2,9.82-19.27,2.62-1.25,5.44-1.49,8.46-1.88,3.21,2.84,7.88,2.99,12.06,2.06,3.32-.74,6.53-2.23,9.11-4.4,2.36-.26,4.73-.52,7.1-.31s5.85,1.35,7.6,2.96c3.95,3.63,5.61,7.74,6.63,11.05,2.66,8.65,6.04,29.07,6.37,32.61.74,7.89.04,15.38-11.95,14.48.3,8-.31,11.79-1.56,11.99Z"/><path class="cls-8" d="m162.27,602.4c-3.36,1.74-6.45,1.17-8.6-.04-6.99,1.35-11.11-4.44-12.15-9.78-.85-4.37-.03-12.81.13-15.37.47-7.74,1.45-14.49,7.8-18.09,8.93-9.92,24.04-7.53,31.35,1.97,1.9,2.47,10.83,15.96,10.85,25.59.02,8.24-7.2,10.24-10.24,10.25-1.84,3.72-5.79,4.56-8.48,3.75"/><path class="cls-19" d="m178.91,579.55c1.61-1.96,6.89-.69,6.7,4.89-.08,2.37-1.68,5.73-5.18,5.39.01,3.82-4.31,9.28-7.88,10.59.37,2.57,1.16,5.42,1.43,5.65.23.19,7.13.87,9.29.97-2.67,7.17-20.5,9.91-28.6,3.27,2.82-.31,7.73-1.91,9.56-2.95.25-.14-.47-3.6-.84-5.18-5.99-1.04-8.78-3.13-11.02-6.69-2.23.16-4.26-.08-6.37-3.42-1.24-1.96-.42-6.21,2.04-6.58-.09-.47-.11-1.33-.11-1.33,0,0,5.6-5.61,5.58-12.46,5.18,5.15,14.83,6.87,18.28,4.23,2.1.88,5.33.52,5.92.6-.13-.25.91,3.35,1.18,3.01Z"/><path class="cls-5" d="m149.35,585.53c-2.39-.94-5.54,3.43-2.52,7.79,1.22,1.77,3.32,2.37,5.56,2.18,2.41,3.92,5.82,5.72,10.68,6.62.21.04.37.19.42.4.31,1.31.76,3.35.76,4.55,0,.62-4.53,2.62-9.02,3.17,10.16,7.63,26.15,2.58,28.06-3.2-4.08.27-9-.72-9.29-.97-.21-.17-.3-.44-.38-.7-.37-1.18-.63-2.38-.83-3.57-.13-.79.19-1.64.9-2.01,3.28-1.71,6.76-6.2,6.75-9.55,3.27-.84,4.26-3.42,4.43-5.78.33-4.7-3.86-6.08-5.42-5.17"/><path class="cls-5" d="m151.14,568.21c3.94,6.68,12.8,11.02,20.68,7.73"/><path class="cls-5" d="m153.54,571.71c.01,4.1-1.8,9.97-6.14,12.86"/><path class="cls-5" d="m148.11,670.86c1.15-9.88,1.33-22.02.63-30.84"/><path class="cls-5" d="m194.85,668.19c-.82-10.63-2.83-21.4-4.06-29.54"/><path class="cls-5" d="m164.2,570.26c5.33,7.37,12.47,6.76,17.75,5.54"/><path class="cls-5" d="m164.52,586.3c.38.77.31,1.74-.18,2.44-.05.07-.1.14-.09.22,0,.07.06.12.11.17.3.28.62.54.96.77"/><path class="cls-5" d="m163.49,593.32c.86.76,2.07,1.09,3.2.89,1.13-.2,2.14-.94,2.68-1.95"/><circle class="cls-27" cx="158.25" cy="584.14" r="1.66"/><circle class="cls-27" cx="170.61" cy="581.86" r="1.66"/><path class="cls-18" d="m111.24,696.45c-2.78,1.02-19.42,3.26-27.24,2.64-5.86-.47-18.47-2.6-26.64-7.15,0,0-2.23-6.32.83,3.8-6.52,1.57-8.29,1.85-13.63,4.98-5.92-6.95-7.88-19.94-8.16-24.41-.51-8.25.11-21.84,1.45-29.15,4.1-22.29,9.41-38.26,17.84-43.25,4.62-2.74,18.63-5.51,26.64-6.3l19.02,1.53c7.79,2.06,21.46,6.68,25.3,10.47,6.97,6.89,9.11,28.28,10.52,52.81.43,7.42.67,12.99-1.52,21.51-1.11,4.33-6.51,17.11-13.46,23.02-4.77-3.94-6.47-4.5-12.66-7.09"/><path class="cls-5" d="m58.86,638.22c-2.09,12.59-3.77,26.75-5.45,36.87.31,5.85,3.63,16.84,4.79,20.64-6.52,1.57-8.29,1.85-13.63,4.98-5.92-6.95-6.96-17.03-7.75-21.43-1.3-7.31-.53-16.09.07-23.49,2.02-25.18,10.67-46.29,18.22-51.44,6.09-4.15,19.22-5.95,27.23-6.75l19.02,1.53c7.79,2.06,21.46,6.68,25.3,10.47,6.97,6.89,9.18,29.44,10.59,53.97.43,7.42.2,15.48-2.26,22.5-1.48,4.22-5.83,14.96-12.79,20.88-4.77-3.94-6.47-4.5-12.66-7.09,1.74-3.57,6.78-13.89,8.02-19.61-.04-10.26.56-24.51.5-37.27"/><path class="cls-9" d="m81.22,591.81c-.18,2.28-.4,5.19-.65,8.27,1.6,2.53,4.38,4.09,7.25,4.94,2.41.71,4.98.99,7.46.59s4.89-1.49,6.68-3.25l.95-8.39"/><path class="cls-19" d="m113.91,574.74c1.13.74,2.34,1.57,2.8,2.84.19.51.24,1.07.25,1.62.04,2.51-.8,5.04-2.45,6.93s-4.11,3.08-6.62,3.04c-.32.72-.7,1.35-1.13,1.94-2.21,4.06-5.31,5.39-7.12,5.62-7.07.91-15.15-2.45-17.51-4-1.92-1.26-3.2-4.17-3.77-8.88-2.03-.29-3.73-1.83-4.62-3.68-.89-1.85-1.06-3.97-.93-6.01.08-1.33.3-2.7,1.04-3.82.98-1.48,2.88-2.3,4.71-2,2.02-5.14,4.03-8.15,7.76-12.22,1.44-1.57,2.51-2.49,4.16-3.85,2.04-1.68-.34-.37,10.04,8.25.02-1.81.8-3.94,1.93-5.23.2-.23,8.19,10.37,9.55,15.19.19.67,2.25,3.65,1.92,4.25Z"/><path class="cls-10" d="m115.66,575.2c-1.77-.71-2.34-.06-2.34-.06-2.39-11.16-8.82-15.83-11.73-19.96-.52,1.29-.56,4.05-1.08,5.34-2.54-1.33-6.49-3.71-9.45-8.76-5.8,4.91-10.19,9.34-12.5,17.9-.27.12-.62-.87-1.2-1.02-.48-.12-1.05-.05-1.32.07-.36-3.65-.78-10.35.08-13.91.91-3.76,5.89-11.9,14.35-11.64,4.44-2.66,11.18-4.72,15.75-2.27,5.59,3,13.16,9.8,14.84,19.41.4,2.27-3.17,12.77-5.4,14.9Z"/><path class="cls-5" d="m77.88,568.89c-1.12-.83-2.49.03-3.33,1.09-4.07,5.15-.58,12.86,3.41,13.76"/><path class="cls-5" d="m57.37,691.94c8.17,4.55,20.77,6.68,26.64,7.15,7.81.63,24.45-1.61,27.24-2.64"/><path class="cls-5" d="m77.52,602.95c3.6,4.13,8.92,6.72,14.39,7"/><path class="cls-5" d="m96.92,609.18c2.82-.51,5.46-1.94,7.43-4.01"/><path class="cls-5" d="m113.67,575.05c1.33-.4,2.34.86,2.78,2.15,2.11,6.21-3.75,12.32-7.81,11.83"/><path class="cls-5" d="m77.74,576.19c-.07,7.9,1.83,14.54,4.37,16.53,3.27,2.57,10.44,4.9,17.51,4,1.81-.23,5.31-2.15,7.5-6.17,1.78-3.27,2.81-5.08,3.92-8.62"/><path class="cls-5" d="m94.78,574.26c-.77,1.89-1.54,3.79-2.31,5.68-.05.12-.1.24-.11.37-.01.14.02.25.06.34.35.87.79,1.57,1.32,2.08"/><path class="cls-5" d="m88.81,584.85c2.01,2.38,6.23,3.09,8.85,1.66"/><path class="cls-5" d="m86.34,563.57c1.73-.58,3.69-.44,5.32.37"/><path class="cls-5" d="m101.57,565.78c1.82-.28,3.74.06,5.35.96"/><circle class="cls-27" cx="89.05" cy="571.23" r="1.77"/><circle class="cls-27" cx="102.07" cy="573.47" r="1.77"/><path class="cls-25" d="m278.36,698.24c-67.69-44.22-209.02-47.89-322.74,17.39-35.56,20.41-183.25-15.12-250.26,67.28H273.57s4.79-84.67,4.79-84.67Z"/></g><g class="cls-33"><path class="cls-9" d="m559.13,621.55c-1.01,1.69-1.93,3.42-2.79,5.32.31.95.18,1.97.2,2.97.02,1.07.21,2.14.57,3.16.15.42.32.91.08,1.29-.19.3-.59.42-.94.37-.5-.08-.93-.44-1.2-.86s-.42-.92-.57-1.41c-.05-.18-.14-.39-.44-.33-1.04,1.88-2.15,3.75-3.66,5.27-.29.3-.61.59-1.02.69s-.9-.03-1.07-.41c-.18-.39.04-.83.25-1.2.78-1.35,1.55-2.71,2.33-4.06-1.14,1.24-2.28,2.47-3.57,3.54-.32.26-.69.53-1.11.53-.51,0-.99-.44-1.01-.95-.02-.51.35-.95.7-1.33.97-1.06,1.95-2.1,2.92-3.21-.83.83-1.72,1.59-2.63,2.33-1.53,1.24-2.45.46-2.05-.64.16-.45.86-1.1,1.21-1.42.72-.65,1.44-1.3,2.16-1.99-.72.28-1.52.67-2.25.92-1.89.65-2.49-1.04-.63-2.01,2.22-1.15,4.46-2.4,6.48-3.95.79-2.38,1.68-4.72,2.66-7.03"/><path class="cls-8" d="m613.28,689.22c-.85.59-9.3,4.49-12.69,4.63-1.66.07-1.98-.61-2.3-1.57-.55-1.66-.76-3.43-.81-5.51.89.41,1.94.19,2.88-.08,1.53-.44,3.02-.99,4.46-1.65,1.9.76,3.93,1.18,5.98,1.23.56.01,2.34-.12,3,1.02.28.48.37,1.33-.51,1.94Z"/><path class="cls-8" d="m569.48,686.53c-.58,1.62-1.03,3.28-1.34,4.97-.09.47-.16.98.06,1.4.3.6,1.04.81,1.69.94,3.15.64,6.37.91,9.59.82,1.09-.03,2.38-.23,2.88-1.2.55-1.07-.22-2.33-.96-3.28-1.39-1.79-2.77-3.58-4.16-5.36-2.18,1.11-5.04.83-7.76,1.71Z"/><path class="cls-8" d="m561.66,635.77c-2.4,14.06,1.35,29.94,3.1,51.05,0,0,8.31,2.7,13.55-.74.22-.15-.35-22.28,1.36-36.55.12-.97,1.46-1.13,1.8-.21,4.28,11.68,7.36,25.05,11.63,36.62,1.37.76,9.18,3.42,13.11-1.31-2.22-14.16-5.72-29.87-8.69-43.89"/><path class="cls-9" d="m579.17,591.58c-7.75-.64-12.01.97-23.17,17.11-1.65,2.39-8.16,11.4-8.03,13.13.19,2.48,6.75,5.34,9.23,5.5,1.17.08,9.12-11.5,12.29-15.62-2.07,9.12-4.72,15.25-7.83,24.07,2.18,3.37,13.89,14.58,37.18,7.58,6.12-11.5,7.52-30.05,5.98-41.48-.32-2.41-1.8-7.19-4.13-7.88"/><path class="cls-9" d="m583.71,594.12c1.53,6.32,11.12,7.76,13.44.82"/><path class="cls-19" d="m608.05,573.58c.28,3.94.42,9.14-.77,12.91-1.29,4.08-3.26,6.29-7.93,8.05-1.08.41-10.6,1.83-17.6-1.36-3.39-1.54-5.47-4.28-6.69-8-1.84-.33-6.64-2.99-6.86-6.63-.24-3.82,2.92-7.13,6.47-5.56,1.13-2.01,2.57-3.85,4.25-5.43.17-.16.34-.31.56-.38.36-.11.75.04,1.09.2,1.39.62,2.78,1.24,4.17,1.86.39.18.84.35,1.24.19.94-.37.48-1.87,1.06-2.7.63-.9,2.02-.52,3.02-.06,2.28,1.07,4.56,2.14,6.84,3.21.3.14.63.29.96.21,1-.23.64-1.93,1.46-2.54.66-.49,1.58.04,2.22.56,2.18,1.76,4.35,3.52,6.51,5.45Z"/><path class="cls-5" d="m574.39,573.79c-3.27-2.37-6.43.94-6.19,4.76s5.03,6.3,6.86,6.63c1.22,3.71,3.3,6.45,6.69,8,7,3.19,16.52,1.77,17.6,1.36,4.68-1.77,6.65-3.97,7.93-8.05,1.19-3.77,1.05-8.97.77-12.91"/><path class="cls-10" d="m608.05,573.58c1.17-.46,7.91-9.14-.15-19.67-3.69-4.82-11.09-8.79-17.16-8.58,2.11-2.25-1.16-1.98-1.59-1.97-6.89.08-13.34,6.64-13.8,8.38-5.09.48-8.84,6.93-8.97,7.4-.29,1.03.97.76,1.89,1.31-4.06,5.8-1.76,10.59.1,16.09,1.95-5.23,5.13-4.48,6.09-2.36,1.31-2.14,2.82-4.16,4.93-6.53,2,.95,4.1,1.68,6.25,2.18.4.09.81.17,1.2.06,1.24-.38,1.12-2.19,1.86-3.25,2.26,1.44,4.67,2.63,7.19,3.54.92.33,1.97.63,2.84.19,1.14-.57,1.41-2.04,1.55-3.31,2.27,4.78,7.36,6.69,7.77,6.53Z"/><path class="cls-9" d="m595.99,584.46c-2.26-.08-4.49.07-6.73.53-.32,1.48-.45,3.13.77,4.5.24.27.54.53.93.67.92.33,1.91-.09,2.5-.59,1.61-1.36,2.02-3.27,2.52-5.11Z"/><ellipse class="cls-27" cx="585.05" cy="577.41" rx="1.95" ry="1.8" transform="translate(-130.61 981.79) rotate(-74.09)"/><ellipse class="cls-27" cx="594.47" cy="581.22" rx=".58" ry=".54" transform="translate(-225.28 719.86) rotate(-53.95)"/><ellipse class="cls-27" cx="599.1" cy="577.2" rx="1.95" ry="1.8" transform="translate(-106.63 1017.68) rotate(-75.9)"/><path class="cls-9" d="m601.19,600.73c1.25-.4,2.27-.91,3.4-1.59s2.2-1.6,2.56-2.87c.51-1.78-.55-3.61-1.63-5.11-.41-.57-1.05-1.21-1.7-.95-.44.18-.64.72-.57,1.19s.34.88.61,1.28c-.45-.36-.73-.89-1.15-1.27s-1.12-.61-1.56-.24c-.63.53-.12,1.54.42,2.17-.47-.71-1.19-1.51-2.01-1.27-.51.15-.82.7-.87,1.23s.12,1.05.29,1.56c.07-.76-.89-1.32-1.6-1.05s-1.09,1.1-1.06,1.86.37,1.47.73,2.15c.81,1.52,2.07,3.56,4.15,2.89Z"/><path class="cls-9" d="m607.57,597.37c2.4,3.93,4.03,7.61,5.8,12.01,2.16,5.35,2.29,10.26-1.87,11.69-5.35,1.84-7.94-2.07-9.38-7.35-.97-3.55-1.55-5.62-3.02-13.06,2.87-.84,6.05-3.01,8.47-3.3Z"/><path class="cls-8" d="m658.34,687.21c-.03,1.41.48,2.76.74,4.14.27,1.38.24,2.96-.69,4.01-.7.79-1.77,1.14-2.8,1.4-3.42.89-6.95,1.34-10.46,1.78-1.39.18-3.06.24-3.89-.88-.61-.82-.49-2,.02-2.88s1.34-1.52,2.17-2.12c3.9-2.83,8.15-5.26,12.75-6.7.46-.14.95-.28,1.4-.13s.78.68.76,1.38Z"/><path class="cls-8" d="m694.2,687.51c-.2,4.09-.39,8.18-.59,12.27-.02.49-.05.98.06,1.46.22.94.97,1.73,1.89,2s1.98.03,2.7-.61c.55-.49.89-1.16,1.21-1.82,2.05-4.25,3.65-8.71,4.76-13.3.23-.97.44-2,.12-2.95-.45-1.29-1.77-2.05-3.04-2.52-.8-.3-1.63-.53-2.48-.69-.41-.08-.85-.14-1.24.02-.55.23-.84.83-1.08,1.38-.67,1.55-2.22,2.84-2.31,4.76Z"/><path class="cls-9" d="m651.85,683.51c.17-3.84.35-7.67.52-11.51,3.15-.09,6.32.76,8.1,3.19-.62,3.27-1.3,6.53-2.04,9.78l-6.58-1.46Z"/><path class="cls-9" d="m658.44,684.97c-.23,1.03-.48,2.06-.72,3.09-.18.77-.39,1.58-.93,2.16-.68.73-1.73.95-2.72,1.14-.85.16-1.74.32-2.57.09s-1.6-.96-1.57-1.82c.03-.75.62-1.34,1.02-1.99.75-1.21.84-2.7.9-4.13l6.58,1.46Z"/><path class="cls-9" d="m697.3,679.84c-1.41-2.58-2.82-5.17-4.23-7.75-.1-.18-.21-.38-.4-.47-.18-.08-.39-.05-.58-.02-2.69.48-5.3,1.39-7.93,3.76,2.21,2.48,4.41,4.96,6.55,7.5.51.61,1.02,1.23,1.5,1.86l5.1-4.89Z"/><path class="cls-9" d="m692.2,684.73c1.09,1.46,2.03,3.03,2.43,4.79.16.72.45,1.66,1.19,1.66.21,0,.42-.09.6-.2,1.25-.76,1.66-2.34,1.97-3.77.26-1.23.53-2.49.36-3.73-.18-1.3-.82-2.48-1.44-3.63l-5.1,4.89Z"/><path class="cls-8" d="m694.45,643.49c3.36,8.09,7.28,15.94,11.39,23.52-11.87,8.71-28.63,11.35-43.55,8.63-9.95-1.82-19.95-6.55-25.59-15.57,4.4-6.93,8.81-13.86,13.21-20.79l44.53,4.22Z"/><path class="cls-9" d="m713.89,636.74c2.24.19,5.6.62,6.26.64,2.25.09,1.71-1.95.39-2.16-1.15-.19-.96-.05-2.1-.23,1.09.09,4.42.43,4.79.29,1.02-.36.82-1.12.39-1.54-.37-.36-1.49-.47-2.01-.51-.95-.08-1.8-.02-2.75-.1,1.24-.07,2.92.25,4.14.14,1.06-.1.97-1.46.02-1.84-.38-.15-2.67-.54-3.96-.42,1.45,0,1.04.02,2.31-.02,1.74-.05,1.37-2-.33-1.95-.61.02-2.7-.16-3.3-.11-.9.07-2.74-.09-5.49-.56-2.78-2.55-5.54-5.21-8.29-7.87-1.17,2.13-2.21,4.17-3.29,6.17,2.83,2.13,5.52,3.97,8.3,6.07l1.92,5.93c.12.38.25.77.49,1.09s.61.57,1.01.55c.45-.02.82-.38,1-.78s.21-.86.24-1.31c.03-.49.06-.98.26-1.47Z"/><path class="cls-9" d="m627.22,618.24c-2.11-.78-5.33-1.82-5.94-2.08-2.07-.88-.71-2.49.57-2.12,1.12.32.89.37,2,.69-1.03-.38-4.18-1.5-4.46-1.77-.77-.76-.26-1.36.3-1.55.49-.17,1.55.21,2.03.39.89.33,1.64.75,2.53,1.08-1.1-.59-2.75-1.02-3.8-1.64-.92-.54-.26-1.74.77-1.67.41.03,2.64.65,3.76,1.31-1.31-.62-.94-.43-2.08-1-1.55-.79-.38-2.4,1.13-1.63.54.27,2.51,1.01,3.04,1.31.79.45,2.52,1.08,5.21,1.83,3.6-1.12,7.23-2.36,10.85-3.59.15,2.43.22,4.71.35,6.98-3.46.72-6.69,1.24-10.09,1.96-1.42,1.52-2.84,3.03-4.26,4.55-.27.29-.55.59-.91.78s-.8.25-1.15.06c-.39-.21-.58-.69-.58-1.14s.18-.87.34-1.29c.18-.45.37-.91.39-1.44Z"/><path class="cls-9" d="m684.58,597.49c4.66,1.09,7.8,5.28,10.89,8.93,3.52,4.17,7.46,7.98,11.75,11.36.42.33.85.67,1.08,1.15.43.91-.02,1.97-.51,2.85-2.86,5.15-7.28,9.42-12.53,12.09-.31.16-.65.32-1,.25-.37-.07-.64-.37-.88-.68.06,3.33.51,6.66,1.34,9.74-14.34,6.54-32.17,4.63-45-4.35,1.3-5.06,2.53-10.15,3.53-15.31-1.13.64-2.35,1.3-3.64,1.19-1.64-.14-2.89-1.48-3.87-2.8-3.06-4.15-5.01-9.12-5.57-14.25-.06-.57-.11-1.16.06-1.7.35-1.13,1.51-1.78,2.57-2.31,6.7-3.33,13.66-6.15,20.78-8.43"/><path class="cls-9" d="m681.39,598.58c-1.41,2.67-4.51,4.35-7.51,4.07-3.01-.28-5.74-2.5-6.64-5.38"/><path class="cls-19" d="m660.33,571.4c-.17.34-.26.71-.35,1.08l-.61,2.6c-1.18-.47-2.52-.12-3.41.69s-1.36,2.03-1.43,3.23.23,2.41.67,3.53c.62,1.55,1.55,3.01,2.9,3.98.02.66.17,1.36.42,2.03,1.2,3.3,3.62,5.79,6.45,7.45s6.08,2.53,9.35,2.85c2.67.26,5.41.14,7.98-.62s4.98-2.22,6.64-4.33c2.51.65,5.14.24,7.04-1.28,1.89-1.51,2.89-4.2,2.11-6.5-.3-.89-.86-1.7-1.65-2.2s-1.83-.64-2.52-.43c.39-.79.55-1.69.35-2.82-3.41-3.69-8.27-5.63-13.03-7.23-3.3-1.12-6.65-2.13-10.1-2.6s-7.02-.38-10.81.57Z"/><path class="cls-8" d="m696.68,560.11c1.8-1.24,4.24-1.33,6.27-.51s3.65,2.45,4.79,4.31c1.61,2.66,2.3,5.87,1.92,8.96-.16,1.26-.48,2.51-.5,3.78-.04,3.09,1.98,6.11,4.85,7.26-4.58,2.46-10.69,1.64-14.46-1.94"/><path class="cls-18" d="m661.78,572.42c-8.53-7.2.19-19.01,8.42-19.01l2.47-.79c6.43-2.9,20.72.18,26.67,12.57,1.48,3.07,2.33,6.49,2.08,9.89-.25,3.4-1.66,6.76-4.43,9.05-1-.16-2.01-.33-3.24-.75-.6-.94-1.06-1.97-1.43-3.31-1.24.54-2.68.44-3.96.03s-2.45-1.14-3.6-1.85c-.57-.35-1.14-.7-1.53-1.04-1.41.56-3,.27-4.46-.12-2.44-.66-4.87-1.62-6.7-3.3-2.51.76-5.26.69-7.72-.22-.84-.31-1.83-.5-2.57-1.13Z"/><path class="cls-5" d="m693.76,583.66c.85-.38,1.89-.25,2.68.25s1.35,1.31,1.65,2.2c.78,2.3-.21,4.98-2.11,6.5-1.89,1.51-4.53,1.93-7.04,1.28-1.66,2.11-4.07,3.57-6.64,4.33s-5.31.88-7.98.62c-3.27-.31-6.52-1.18-9.35-2.85s-5.25-4.15-6.41-7.37c-1.45-4.02.79-11.12,1.55-17.3"/><path class="cls-5" d="m659.38,574.99c-1-.61-2.38-.32-3.25.47s-1.3,1.96-1.46,3.12c-.45,3.13.91,6.46,3.42,8.38"/><path class="cls-5" d="m670.2,553.41c-8.23,0-16.95,11.81-8.42,19.01"/><path class="cls-5" d="m687.85,569.16c-.49,4.09,2.08,8.14,4.49,10.87"/><path class="cls-5" d="m677.85,563.62c-.94,5.77,1.3,10.02,5.53,13.36"/><path class="cls-5" d="m669.1,560.3c-1.79,3.98-2,9.86,3.35,13.85"/><path class="cls-5" d="m672.67,552.62c6.43-2.9,20.72.18,26.67,12.57,1.48,3.07,2.33,6.49,2.08,9.89-.25,3.4-1.66,6.76-4.17,9.06"/><path class="cls-5" d="m678.85,590.68c-3.69,2.57-8.48,2.37-10.89-2.91"/><ellipse class="cls-27" cx="682.06" cy="582.77" rx="2.03" ry="1.88" transform="translate(-153.82 908.54) rotate(-61.8)"/><ellipse class="cls-17" cx="672.58" cy="607.18" rx="1.5" ry="1.39" transform="translate(-115.53 160.05) rotate(-12.51)"/><ellipse class="cls-17" cx="672.29" cy="611.61" rx="1.5" ry="1.39" transform="translate(-116.49 160.1) rotate(-12.51)"/><ellipse class="cls-27" cx="669.08" cy="579.66" rx="2.03" ry="1.88" transform="translate(-50.23 1095.67) rotate(-76.56)"/><ellipse class="cls-27" cx="672.67" cy="586.47" rx=".56" ry=".61"/></g><text class="cls-11" transform="translate(228.53 428.29)"><tspan class="cls-41" x="0" y="0">板橋かん</tspan><tspan class="cls-12" x="216.2" y="0">も</tspan><tspan class="cls-41" x="265.55" y="0">く</tspan><tspan class="cls-41" x="0" y="64.89">コ</tspan><tspan class="cls-14" x="54.05" y="64.89">ミ</tspan><tspan class="cls-28" x="105.28" y="64.89">ュ</tspan><tspan class="cls-42" x="158.39" y="64.89">ニ</tspan><tspan class="cls-38" x="212.44" y="64.89">テ</tspan><tspan class="cls-41" x="264.61" y="64.89">ィ</tspan></text><g class="cls-34"><g class="cls-37"><path class="cls-20" d="m427.14,223.21c-3.12-.64-5.52-1.47-7.41-2.5l-64.16-26.67c-.25-.14-.48-.3-.7-.48-24.73,3-41.9,9.59-41.9,17.24,0,10.48,32.23,18.98,71.99,18.98,20.55,0,39.08-2.27,52.2-5.91-.03,0-4.05.57-10.02-.65"/></g><g class="cls-39"><polygon class="cls-19" points="312.99 188.49 315.02 192.6 319.55 193.26 316.27 196.46 317.04 200.97 312.99 198.84 308.93 200.97 309.71 196.46 306.43 193.26 310.96 192.6 312.99 188.49"/><polygon class="cls-19" points="331.94 188.49 333.97 192.6 338.5 193.26 335.22 196.46 335.99 200.97 331.94 198.84 327.88 200.97 328.65 196.46 325.38 193.26 329.91 192.6 331.94 188.49"/><polygon class="cls-19" points="350.88 188.49 352.91 192.6 357.45 193.26 354.17 196.46 354.94 200.97 350.88 198.84 346.83 200.97 347.6 196.46 344.32 193.26 348.86 192.6 350.88 188.49"/><polygon class="cls-19" points="312.99 218.42 315.02 222.53 319.55 223.19 316.27 226.39 317.04 230.91 312.99 228.77 308.93 230.91 309.71 226.39 306.43 223.19 310.96 222.53 312.99 218.42"/><polygon class="cls-19" points="331.94 218.42 333.97 222.53 338.5 223.19 335.22 226.39 335.99 230.91 331.94 228.77 327.88 230.91 328.65 226.39 325.38 223.19 329.91 222.53 331.94 218.42"/><polygon class="cls-19" points="350.88 218.42 352.91 222.53 357.45 223.19 354.17 226.39 354.94 230.91 350.88 228.77 346.83 230.91 347.6 226.39 344.32 223.19 348.86 222.53 350.88 218.42"/><polygon class="cls-19" points="369.83 188.49 371.86 192.6 376.4 193.26 373.11 196.46 373.89 200.97 369.83 198.84 365.78 200.97 366.55 196.46 363.27 193.26 367.8 192.6 369.83 188.49"/><polygon class="cls-19" points="303.65 204.42 305.68 208.53 310.22 209.18 306.93 212.38 307.71 216.9 303.65 214.77 299.6 216.9 300.37 212.38 297.09 209.18 301.63 208.53 303.65 204.42"/><polygon class="cls-19" points="322.6 204.42 324.63 208.53 329.16 209.18 325.88 212.38 326.66 216.9 322.6 214.77 318.55 216.9 319.32 212.38 316.04 209.18 320.58 208.53 322.6 204.42"/><polygon class="cls-19" points="341.55 204.42 343.58 208.53 348.11 209.18 344.83 212.38 345.6 216.9 341.55 214.77 337.49 216.9 338.26 212.38 334.99 209.18 339.52 208.53 341.55 204.42"/><polygon class="cls-19" points="360.5 204.42 362.52 208.53 367.06 209.18 363.78 212.38 364.55 216.9 360.5 214.77 356.44 216.9 357.21 212.38 353.93 209.18 358.47 208.53 360.5 204.42"/><polygon class="cls-19" points="388.78 188.49 390.81 192.6 395.35 193.26 392.06 196.46 392.84 200.97 388.78 198.84 384.73 200.97 385.5 196.46 382.22 193.26 386.75 192.6 388.78 188.49"/><polygon class="cls-19" points="369.83 218.42 371.86 222.53 376.4 223.19 373.11 226.39 373.89 230.91 369.83 228.77 365.78 230.91 366.55 226.39 363.27 223.19 367.8 222.53 369.83 218.42"/><polygon class="cls-19" points="379.44 204.42 381.47 208.53 386.01 209.18 382.73 212.38 383.5 216.9 379.44 214.77 375.39 216.9 376.16 212.38 372.88 209.18 377.42 208.53 379.44 204.42"/><polygon class="cls-19" points="407.73 188.49 409.76 192.6 414.29 193.26 411.01 196.46 411.79 200.97 407.73 198.84 403.67 200.97 404.44 196.46 401.17 193.26 405.7 192.6 407.73 188.49"/><polygon class="cls-19" points="388.78 218.42 390.81 222.53 395.35 223.19 392.06 226.39 392.84 230.91 388.78 228.77 384.73 230.91 385.5 226.39 382.22 223.19 386.75 222.53 388.78 218.42"/><polygon class="cls-19" points="398.39 204.42 400.42 208.53 404.95 209.18 401.67 212.38 402.45 216.9 398.39 214.77 394.34 216.9 395.11 212.38 391.83 209.18 396.37 208.53 398.39 204.42"/><polygon class="cls-19" points="426.68 188.49 428.71 192.6 433.24 193.26 429.96 196.46 430.73 200.97 426.68 198.84 422.62 200.97 423.39 196.46 420.12 193.26 424.65 192.6 426.68 188.49"/><polygon class="cls-19" points="407.73 218.42 409.76 222.53 414.29 223.19 411.01 226.39 411.79 230.91 407.73 228.77 403.67 230.91 404.44 226.39 401.17 223.19 405.7 222.53 407.73 218.42"/><polygon class="cls-19" points="417.34 204.42 419.37 208.53 423.9 209.18 420.62 212.38 421.39 216.9 417.34 214.77 413.28 216.9 414.06 212.38 410.78 209.18 415.31 208.53 417.34 204.42"/><polygon class="cls-19" points="445.62 188.49 447.65 192.6 452.19 193.26 448.91 196.46 449.68 200.97 445.62 198.84 441.57 200.97 442.34 196.46 439.06 193.26 443.6 192.6 445.62 188.49"/><polygon class="cls-19" points="426.68 218.42 428.71 222.53 433.24 223.19 429.96 226.39 430.73 230.91 426.68 228.77 422.62 230.91 423.39 226.39 420.12 223.19 424.65 222.53 426.68 218.42"/><polygon class="cls-19" points="436.29 204.42 438.31 208.53 442.85 209.18 439.57 212.38 440.34 216.9 436.29 214.77 432.23 216.9 433.01 212.38 429.73 209.18 434.26 208.53 436.29 204.42"/><polygon class="cls-19" points="464.57 188.49 466.6 192.6 471.14 193.26 467.85 196.46 468.63 200.97 464.57 198.84 460.52 200.97 461.29 196.46 458.01 193.26 462.54 192.6 464.57 188.49"/><polygon class="cls-19" points="445.62 218.42 447.65 222.53 452.19 223.19 448.91 226.39 449.68 230.91 445.62 228.77 441.57 230.91 442.34 226.39 439.06 223.19 443.6 222.53 445.62 218.42"/><polygon class="cls-19" points="455.24 204.42 457.26 208.53 461.8 209.18 458.52 212.38 459.29 216.9 455.24 214.77 451.18 216.9 451.96 212.38 448.67 209.18 453.21 208.53 455.24 204.42"/></g><g class="cls-40"><path class="cls-26" d="m461.4,289.5v-70.9c-9.95,10.58-40.41,18.27-76.44,18.27s-66.49-7.7-76.44-18.27v70.9c-2.23,2.37-3.44,4.89-3.44,7.49,0,14.23,35.76,25.77,79.88,25.77s79.88-11.54,79.88-25.77c0-2.61-1.2-5.12-3.43-7.49"/><path class="cls-19" d="m347.37,246.72l3.12-13.78h-13.93l-2.55,19.69-23.96,10.59c-1.16,5.04-1.78,10.3-1.78,15.71,0,3.69.29,7.3.84,10.83l22.07-15.32-5.41,41.7h5.89l11.29-49.87,9.3-6.46-8.74,51.48h8.06l16.13-54.59-12.43-13.47-7.9,3.49Z"/><polygon class="cls-19" points="391.99 256.23 377.97 239.59 368.15 246.68 384.04 262.71 391.99 256.23"/><polygon class="cls-19" points="387.16 286.25 426.93 246.74 373.93 276.25 387.16 286.25"/><polygon class="cls-19" points="416.2 310.89 393.38 313.3 392.66 306.98 410.16 298.14 410.16 293.86 391.86 300.06 391.37 295.75 410.16 287.8 410.16 283.76 373.26 292.99 373.26 303.41 380.23 300.46 380.94 303.76 373.26 306.36 373.26 316.78 382.71 312 383.42 315.28 392.86 320.88 416.2 313.46 416.2 310.89"/><path class="cls-19" d="m461.47,255.67l-18.7-.17,6.62-8.53h-16.73l-22.38,36.89h12.33l12.19-15.01h18.35l-37.85,54.46,13.62-4.41,34.78-39.01c.12-1.73.19-3.48.19-5.25,0-6.56-.85-12.92-2.42-18.97"/><polygon class="cls-16" points="340.15 326.94 333.62 347.31 314.95 343.18 316.28 337.18 319.51 337.89 319.14 339.56 330.39 342.05 334.23 330.21 318.62 326.75 319.58 322.39 340.15 326.94"/><path class="cls-16" d="m341.1,346.55l1.11-4.4,20.14,5.24-1.14,4.34-20.12-5.18Zm15.91-3.51l.19-1.7-13.34-1.6.49-4.3,16.63,1.98-.68,6-3.29-.37Zm-13.04-12.43l1.08-4.37,18.26,4.79-1.1,4.31-18.24-4.73Z"/><polygon class="cls-16" points="385.1 347.58 384.98 351.41 366.44 350.83 366.59 345.84 369.46 345.93 369.42 347.09 377.72 347.35 379.29 338.43 369.62 338.13 369.73 334.41 383.9 334.85 381.69 347.47 385.1 347.58"/><path class="cls-16" d="m413.28,348.81l-24.17,3.04-.78-6.64,3.29-.36.25,2.11,20.85-2.62.56,4.48Zm-22.27-13.15l-.21-4.52,18.64-.89.22,4.52-18.64.89Z"/><path class="cls-16" d="m414.81,339.9l-.63-4.4,23.33-3.32.63,4.39-8.39,1.2c1.2,5.31-1.28,10.76-2.44,13.1l-6.21-2.87,1.44-2.87,1.89.9c.51-1.39,1.38-4.74.59-7.59l-10.2,1.45Zm20.24-9.95l-19.13,2.73-.63-4.42,19.13-2.73.63,4.42Z"/><path class="cls-16" d="m452.31,323.53l5.22,1.14c-.46,2.08-1.19,5.12-4.15,8.32l2.83,11.03-3.95,1.01-2.34-9.11c-1.59,1.12-3.72,2.24-8.18,3.72l-1.23-3.67c9.33-3.11,11.8-7.7,12.49-9.44l-1.34-.34.65-2.67Z"/><polygon class="cls-16" points="364.3 246.17 380.18 262.2 388.13 255.73 374.12 239.08 364.3 246.17"/><polygon class="cls-16" points="370.08 275.74 423.07 246.24 383.3 285.74 370.08 275.74"/><polygon class="cls-16" points="389.17 311.99 388.44 305.67 405.94 296.83 405.94 292.56 387.65 298.75 387.16 294.44 405.94 286.49 405.94 282.46 369.05 291.68 369.05 302.1 376.02 299.15 376.73 302.45 369.05 305.05 369.05 315.46 378.5 310.69 379.2 313.97 388.65 319.57 411.99 312.14 411.99 309.58 389.17 311.99"/><path class="cls-22" d="m411.99,207.25c1.21,6.04,2.33,10.53,7.74,13.46l1.17.49,16.27,2.66c12.26-3.4,19.79-8,19.79-13.07,0-7.98-18.68-14.8-45.14-17.61-.38,5.1-.6,10.17.18,14.06"/><path class="cls-26" d="m412.29,186.89c-.15,2.05-.33,4.18-.48,6.31,26.46,2.81,45.14,9.63,45.14,17.61,0,5.06-7.53,9.66-19.79,13.07h0,0c-13.12,3.64-31.65,5.91-52.2,5.91-39.76,0-71.99-8.49-71.99-18.98,0-7.65,17.17-14.23,41.89-17.24-1.52-1.23-2.52-3.48-2.98-5.92-27.61,4.06-46.8,13.04-46.8,23.46,0,2.61,1.21,5.12,3.44,7.49,9.95,10.58,40.41,18.27,76.44,18.27s66.49-7.7,76.44-18.27c2.23-2.37,3.43-4.89,3.43-7.49,0-11.13-21.89-20.62-52.54-24.22"/><path class="cls-16" d="m384.96,231.33c-19.36,0-37.58-1.99-51.3-5.61-10.15-2.67-22.25-7.43-22.25-14.92,0-8.47,16.17-15.49,43.26-18.78l.77-.1c.85-.11,1.63.49,1.74,1.34.11.85-.49,1.63-1.34,1.74l-.78.1c-27.86,3.38-40.54,10.51-40.54,15.69,0,8.24,28.93,17.42,70.44,17.42s70.44-9.18,70.44-17.42c0-5.5-13.69-12.87-43.75-16.06-.85-.09-1.47-.86-1.38-1.71.09-.85.85-1.47,1.71-1.38,22.5,2.38,46.54,8.67,46.54,19.15,0,7.49-12.1,12.25-22.25,14.92-13.72,3.62-31.94,5.61-51.3,5.61"/><path class="cls-16" d="m464.41,288.36v-70.26c1.62-2.25,2.44-4.6,2.44-7,0-7.89-8.58-14.66-24.82-19.58-15.05-4.56-35.31-7.08-57.06-7.08s-42.02,2.51-57.06,7.08c-16.24,4.92-24.82,11.7-24.82,19.58,0,2.41.82,4.76,2.44,7.01,0,.03,0,.05,0,.07v70.18c-2.28,2.73-3.44,5.63-3.44,8.63,0,8.41,8.81,15.7,25.48,21.08,15.38,4.96,35.76,7.69,57.4,7.69s42.03-2.73,57.4-7.69c16.67-5.38,25.48-12.67,25.48-21.08,0-3-1.16-5.9-3.43-8.63m-135.35-93c14.68-4.45,34.53-6.9,55.9-6.9s41.22,2.45,55.9,6.9c13.96,4.23,21.97,9.97,21.97,15.74,0,2.02-.97,4.08-2.89,6.12-9.77,10.39-40.61,17.64-74.98,17.64s-65.2-7.25-74.98-17.64c-1.92-2.04-2.89-4.1-2.89-6.12,0-5.77,8.01-11.5,21.97-15.74m-17.54,28.36c5.17,3.54,12.51,6.6,21.41,9.02l-2.37,18.29-19.03,8.63v-35.94Zm-3.44,73.27c0-1.76.88-3.59,2.62-5.43.02-.02.03-.04.05-.06.04-.04.08-.09.12-.14.03-.03.05-.07.08-.1.03-.04.06-.09.09-.13.02-.04.05-.08.07-.12.03-.04.05-.09.07-.14.02-.04.04-.08.06-.13.02-.05.04-.09.06-.14.02-.04.03-.09.05-.13.02-.05.03-.1.05-.15.01-.05.03-.09.04-.14.01-.05.02-.1.03-.15,0-.05.02-.1.02-.15,0-.05.01-.09.02-.14,0-.06,0-.11,0-.17,0-.03,0-.06,0-.09v-4.15l16.12-11.83-4.73,36.47c-9.46-3.93-14.82-8.57-14.82-13m20.64,15.15l10.7-47.28,9.4-6.9-8.74,51.48h8.06l16.13-54.59-12.44-13.48-7.92,3.59,2.11-9.31c11.64,2.07,24.92,3.22,38.91,3.22,31.82,0,60-5.95,73.44-15.16v29.06l-17.19-.16,6.62-8.53h-16.73l-22.38,36.89h12.34l12.19-15.01h18.35l-36.01,51.81c-9.2,1.25-19.5,1.98-30.62,1.98-23.11,0-42.64-3.12-56.23-7.61m98.89,3.58l30.77-34.51v8.29s0,.06,0,.09c0,.05,0,.11,0,.16,0,.05,0,.09.02.14,0,.05.01.1.02.15,0,.05.02.1.03.15.01.05.02.09.04.14.01.05.03.1.05.14.02.05.03.09.05.14.02.05.04.09.06.14.02.04.04.09.06.13.02.04.05.09.07.13.02.04.05.08.07.12.03.04.06.09.09.13.03.04.05.07.08.11.04.04.07.09.11.13.02.02.04.04.06.07,1.74,1.84,2.62,3.67,2.62,5.43,0,6.9-12.97,14.3-34.21,18.73"/><path class="cls-22" d="m419.34,221.35c-20-7.87-39.81-16.3-60-23.71-22.85-8.39-9.52-32.46,5.69-41.75,16.3-9.95,46.47-12.5,56.24,5.34,9.69,17.7-10.33,32.82-7.33,50.65,1.16,6.89,4.25,9.94,11.65,11.38,6,1.17,10.02.62,10.02.62"/><path class="cls-16" d="m433.01,225.67c-1.85,0-4.53-.15-7.74-.78-2.3-.45-4.23-1.06-5.86-1.88-.23,0-.45-.03-.68-.12-7.02-2.77-14.14-5.64-21.01-8.43-12.71-5.15-25.86-10.47-38.95-15.27-10.13-3.72-12.81-10.13-13.28-14.86-1.12-11.34,8.79-23.86,18.67-29.9,11.85-7.23,28.91-9.94,41.48-6.59,7.83,2.09,13.75,6.43,17.1,12.55,5.82,10.63,1.67,20.33-2.35,29.72-3.1,7.25-6.04,14.11-4.8,21.46,1.04,6.19,3.64,8.71,10.31,10.01,5.61,1.09,9.44.61,9.48.6.91-.12,1.76.52,1.88,1.44.12.92-.52,1.76-1.43,1.88-.08.01-1.1.14-2.82.14m-39.15-75.9c-9.59,0-20.01,2.69-27.95,7.54-9.14,5.58-18.03,17.1-17.08,26.71.54,5.48,4.27,9.53,11.1,12.04,13.14,4.82,26.31,10.15,39.05,15.31,4.87,1.97,9.87,3.99,14.86,5.99-.7-1.48-1.2-3.2-1.54-5.2-1.4-8.32,1.86-15.96,5.02-23.34,3.87-9.05,7.53-17.59,2.49-26.79-2.94-5.38-8-9.05-15.03-10.93-3.36-.9-7.08-1.33-10.92-1.33"/><path class="cls-16" d="m314.54,173.87c-.87,1.72-1.89,3.35-3.04,4.87l-2.52-2.39c.96-1.29,1.93-3.04,2.91-5.26.98-2.14,1.69-4.12,2.13-5.95h-3.86v-3.3h4.38v-6.12h3.96v6.12h2.78v3.3h-2.78v1.08c.83,1.64,2.05,3.17,3.66,4.61l-2.09,3.2c-.57-.68-1.09-1.32-1.57-1.93v12.98h-3.96v-11.22Zm25.02-10.04c0,5.19-1.26,9.73-3.79,13.64,1.24,1.09,2.94,2.2,5.1,3.34l-2.19,3.79c-2.27-1.24-4.13-2.58-5.59-4.02-1.9,1.83-4.15,3.28-6.77,4.35l-1.83-3.11c2.29-.94,4.32-2.35,6.08-4.25-2.03-3.03-3.2-6.38-3.53-10.04l-.03-.29h-.62v.56c0,2.11-.1,4.01-.29,5.69-.54,4.66-1.8,8.37-3.76,11.12l-3.14-1.96c1.33-2.38,2.22-5.24,2.68-8.6.28-2.29.43-4.1.43-5.43v-11.97h17.85v3.5h-13.64v3.7h13.05Zm-6.57,10.46c1.11-2.01,1.82-4.36,2.13-7.06h-4.45c.37,2.68,1.15,5.04,2.32,7.06"/><path class="cls-16" d="m431.8,174.46c-.65,1.4-1.43,2.75-2.32,4.05l-2.32-2.45c.94-1.35,1.86-3.07,2.76-5.15.9-2.08,1.53-3.93,1.88-5.54v-.43h-3.2v-3.3h3.2v-6.05h4.12v6.05h1.99v3.3h-1.99v1.57c.37.81.96,1.71,1.77,2.71.5.59,1,1.18,1.5,1.77l-1.83,2.78c-.44-.44-.92-1.07-1.44-1.9v13.24h-4.12v-10.66Zm17.69-15.3c-.2.48-.43.97-.69,1.47h9.42v2.78h-3.37c1.74,1.4,3.35,2.4,4.81,3.01l-2.06,3.2c-.57-.28-1.25-.72-2.06-1.31v2.39h-14.49v-2.32c-.61.41-1.25.82-1.93,1.21l-1.86-2.88c1.59-.87,3.14-1.97,4.64-3.3h-2.94v-2.78h5.56c.3-.41.58-.83.82-1.24-1.72.06-3.25.1-4.58.1l-.43-2.78c1.9,0,4.39-.1,7.49-.29,3.68-.24,6.09-.52,7.23-.85l1.31,2.78c-1.46.35-3.75.62-6.87.82m8.27,25.83l-3.76-.03v-10.2h-11.28v10.17h-3.79v-12.72h18.84v12.79Zm-5.4-2.09h-8.11v-6.7h8.11v6.7Zm-.43-16.06h-7.39v1.96h7.39v-1.96Zm-5.3-3.43c-.31.33-.77.83-1.41,1.5h6.15c-.52-.52-.97-1.02-1.34-1.5h-3.4Zm2.88,14.75h-2.49v2.71h2.49v-2.71Z"/></g></g></g></svg>