<?xml version="1.0" encoding="UTF-8"?><svg id="_レイヤー_2" xmlns="http://www.w3.org/2000/svg" xmlns:xlink="http://www.w3.org/1999/xlink" viewBox="0 0 1600 870"><defs><style>.cls-1{stroke:#e65296;stroke-width:7.23px;}.cls-1,.cls-2,.cls-3,.cls-4,.cls-5,.cls-6,.cls-7{fill:none;}.cls-1,.cls-3,.cls-5,.cls-6,.cls-8{stroke-miterlimit:10;}.cls-9{clip-path:url(#clippath);}.cls-2,.cls-10,.cls-11,.cls-12,.cls-13,.cls-14,.cls-15,.cls-16,.cls-17,.cls-18,.cls-19,.cls-20,.cls-21{stroke-width:0px;}.cls-3{stroke:#fff;stroke-width:8.67px;}.cls-22,.cls-23,.cls-24,.cls-4{stroke:#040000;stroke-width:4px;}.cls-22,.cls-23,.cls-24,.cls-4,.cls-7{stroke-linecap:round;stroke-linejoin:round;}.cls-22,.cls-21{fill:#040000;}.cls-23,.cls-13{fill:#fff;}.cls-24,.cls-12{fill:#f2da24;}.cls-25{clip-path:url(#clippath-1);}.cls-26{clip-path:url(#clippath-4);}.cls-27{clip-path:url(#clippath-3);}.cls-28{clip-path:url(#clippath-2);}.cls-29{clip-path:url(#clippath-7);}.cls-30{clip-path:url(#clippath-8);}.cls-31{clip-path:url(#clippath-6);}.cls-32{clip-path:url(#clippath-5);}.cls-33{clip-path:url(#clippath-9);}.cls-34{clip-path:url(#clippath-12);}.cls-35{clip-path:url(#clippath-10);}.cls-36{clip-path:url(#clippath-11);}.cls-5{stroke:#00b7ed;}.cls-5,.cls-6{stroke-width:2px;}.cls-6{stroke:#e7a2c0;}.cls-7{stroke:#ffe000;stroke-dasharray:0 0 0 0 0 11.87 0 11.87;stroke-width:4.8px;}.cls-10{fill:#231815;}.cls-11{fill:#d9d9d9;}.cls-14{fill:#ffe100;}.cls-15{fill:#e65296;}.cls-16{fill:#e85298;}.cls-17{fill:#e96da3;}.cls-18{fill:#ffe000;}.cls-19{fill:#00b7ed;}.cls-20{fill:#00b9ef;}.cls-8{fill:#2f2a1c;stroke:#2f2a1c;stroke-width:.75px;}</style><clipPath id="clippath"><rect class="cls-2" width="1600" height="870"/></clipPath><clipPath id="clippath-1"><rect class="cls-2" width="1600" height="870"/></clipPath><clipPath id="clippath-2"><ellipse class="cls-2" cx="115.52" cy="1040.65" rx="205.8" ry="200.24"/></clipPath><clipPath id="clippath-3"><circle class="cls-2" cx="27.57" cy="767.4" r="101.12"/></clipPath><clipPath id="clippath-4"><ellipse class="cls-2" cx="801.49" cy="974.48" rx="171.5" ry="166.87"/></clipPath><clipPath id="clippath-5"><ellipse class="cls-2" cx="1498.47" cy="-130.87" rx="205.8" ry="200.24"/></clipPath><clipPath id="clippath-6"><circle class="cls-2" cx="1445.14" cy="187.06" r="101.12"/></clipPath><clipPath id="clippath-7"><ellipse class="cls-2" cx="741.02" cy="-24.98" rx="171.5" ry="166.87"/></clipPath><clipPath id="clippath-8"><rect class="cls-2" width="1600" height="870"/></clipPath><clipPath id="clippath-9"><rect class="cls-2" x="222.88" y="65.22" width="485.83" height="687.1"/></clipPath><clipPath id="clippath-10"><rect class="cls-2" x="222.88" y="65.22" width="485.83" height="687.1"/></clipPath><clipPath id="clippath-11"><path class="cls-2" d="m366.66,357.3c0,14.63,44.99,26.48,100.48,26.48,28.68,0,54.55-3.17,72.85-8.24-.05,0-5.65.8-13.98-.91-4.35-.89-7.71-2.06-10.35-3.48l-89.55-37.23c-.34-.19-.67-.42-.98-.67-34.51,4.19-58.47,13.38-58.47,24.06"/></clipPath><clipPath id="clippath-12"><rect class="cls-2" x="222.88" y="65.22" width="485.83" height="687.1"/></clipPath></defs><g id="pc"><g class="cls-9"><path class="cls-24" d="m385.53,867.14c-28.15,4.46-53.34,3.97-82.98.57-14.25-1.63-12.49-13.72-11.12-19.87-8.26-.81-17.54-8.31-18.38-20.45-1.58-22.87-1.24-42.79,1.42-62.31,1.88-13.82,7.02-33.56,20.33-39.92,5.44-2.6,11.27-3.09,17.53-3.9,6.64,5.88,16.31,6.2,24.98,4.27,6.88-1.53,13.53-4.61,18.86-9.12,4.88-.54,9.81-1.08,14.7-.64s12.12,2.8,15.74,6.12c8.19,7.52,11.62,16.04,13.73,22.88,5.51,17.91,12.5,60.21,13.19,67.54,1.53,16.35.09,31.85-24.75,29.99.62,16.57-.64,24.43-3.23,24.84Z"/><path class="cls-24" d="m321.28,706.05c-6.95,3.61-13.36,2.43-17.8-.08-14.49,2.8-23.01-9.19-25.17-20.27-1.76-9.05-.05-26.54.27-31.84.97-16.02,3-30.01,16.16-37.46,18.49-20.55,49.8-15.6,64.94,4.07,3.94,5.12,22.42,33.05,22.48,53,.05,17.06-14.91,21.21-21.2,21.23-3.81,7.71-11.99,9.44-17.57,7.77"/><path class="cls-13" d="m355.76,658.73c3.33-4.05,14.28-1.43,13.88,10.13-.17,4.91-3.49,11.86-10.73,11.17.02,7.92-8.92,19.21-16.32,21.94.78,5.32,2.39,11.23,2.96,11.7.48.4,14.77,1.79,19.25,2-5.53,14.84-42.47,20.53-59.23,6.77,5.84-.64,16-3.95,19.8-6.1.51-.29-.96-7.46-1.73-10.73-12.4-2.16-18.18-6.49-22.82-13.85-4.62.32-8.82-.16-13.19-7.08-2.56-4.06-.87-12.87,4.24-13.63-.18-.96-.22-2.75-.22-2.75,0,0,11.59-11.63,11.55-25.81,10.73,10.67,30.72,14.23,37.86,8.76,4.36,1.82,11.04,1.08,12.25,1.25-.27-.51,1.88,6.93,2.44,6.24Z"/><path class="cls-4" d="m294.54,671.1c-4.95-1.95-11.47,7.1-5.22,16.14,2.53,3.67,6.87,4.91,11.51,4.51,4.99,8.12,12.05,11.84,22.11,13.72.43.08.77.4.87.82.63,2.72,1.58,6.95,1.57,9.43,0,1.29-9.39,5.42-18.69,6.56,21.04,15.81,54.15,5.35,58.11-6.63-8.45.57-18.63-1.48-19.25-2-.43-.36-.62-.91-.79-1.44-.77-2.45-1.3-4.93-1.72-7.4-.28-1.64.39-3.39,1.87-4.16,6.8-3.55,13.99-12.85,13.97-19.78,6.77-1.75,8.83-7.08,9.17-11.98.68-9.74-7.99-12.59-11.22-10.7"/><path class="cls-4" d="m298.24,635.22c8.16,13.83,26.51,22.82,42.82,16.01"/><path class="cls-4" d="m303.2,642.47c.02,8.49-3.72,20.66-12.71,26.64"/><path class="cls-4" d="m291.95,847.83c2.39-20.45,2.75-45.61,1.3-63.88"/><path class="cls-4" d="m388.76,842.31c-1.69-22.02-5.86-44.33-8.41-61.19"/><path class="cls-4" d="m325.28,639.48c11.04,15.26,25.83,14.01,36.77,11.48"/><path class="cls-4" d="m325.94,672.7c.78,1.59.63,3.6-.37,5.06-.09.14-.2.29-.18.45.02.14.13.25.23.35.62.58,1.28,1.12,1.99,1.59"/><path class="cls-4" d="m323.82,687.24c1.78,1.57,4.29,2.27,6.62,1.85,2.33-.42,4.44-1.96,5.55-4.05"/><circle class="cls-21" cx="312.96" cy="668.23" r="3.44"/><circle class="cls-21" cx="338.55" cy="663.5" r="3.44"/><path class="cls-12" d="m215.59,900.84c-5.77,2.12-40.23,6.76-56.41,5.46-12.14-.97-38.25-5.38-55.17-14.81,0,0-4.61-13.09,1.73,7.88-13.51,3.25-17.17,3.83-28.23,10.31-12.26-14.4-16.32-41.31-16.9-50.55-1.06-17.09.23-45.24,3.01-60.37,8.49-46.17,19.48-79.25,36.94-89.59,9.58-5.67,38.58-11.41,55.19-13.06l39.39,3.16c16.13,4.27,44.45,13.84,52.4,21.69,14.43,14.26,18.88,58.58,21.79,109.39.88,15.36,1.38,26.9-3.14,44.54-2.3,8.97-13.48,35.43-27.87,47.69-9.88-8.16-13.41-9.31-26.23-14.68"/><path class="cls-4" d="m107.11,780.24c-4.33,26.07-7.8,55.41-11.28,76.37.64,12.12,7.53,34.87,9.91,42.75-13.51,3.25-17.17,3.83-28.23,10.31-12.26-14.4-14.42-35.27-16.04-44.39-2.7-15.15-1.09-33.32.14-48.66,4.19-52.16,22.09-95.88,37.74-106.54,12.62-8.6,39.8-12.33,56.41-13.98l39.39,3.16c16.13,4.27,44.45,13.84,52.4,21.69,14.43,14.26,19.02,60.97,21.93,111.78.88,15.36.41,32.07-4.67,46.6-3.06,8.74-12.08,30.99-26.48,43.24-9.88-8.16-13.41-9.31-26.23-14.68,3.61-7.4,14.04-28.76,16.6-40.62-.09-21.25,1.16-50.77,1.05-77.2"/><path class="cls-23" d="m153.41,684.1c-.38,4.72-.83,10.74-1.34,17.13,3.31,5.23,9.08,8.47,15.02,10.22,5,1.48,10.31,2.04,15.46,1.22,5.15-.82,10.12-3.08,13.84-6.74l1.97-17.39"/><path class="cls-13" d="m221.12,648.76c2.35,1.53,4.84,3.25,5.8,5.88.39,1.07.49,2.21.51,3.35.09,5.19-1.66,10.44-5.07,14.35-3.41,3.91-8.52,6.37-13.71,6.3-.66,1.48-1.45,2.79-2.35,4.01-4.57,8.41-10.99,11.16-14.75,11.64-14.64,1.88-31.38-5.08-36.27-8.28-3.98-2.61-6.64-8.63-7.81-18.4-4.2-.6-7.73-3.79-9.57-7.62-1.84-3.83-2.19-8.21-1.93-12.45.17-2.76.62-5.6,2.15-7.9,2.03-3.07,5.96-4.77,9.75-4.14,4.18-10.66,8.35-16.87,16.08-25.31,2.99-3.26,5.2-5.16,8.62-7.96,4.23-3.47-.7-.76,20.79,17.1.03-3.75,1.66-8.16,3.99-10.83.41-.47,16.96,21.49,19.78,31.46.39,1.39,4.65,7.56,3.98,8.8Z"/><path class="cls-22" d="m224.76,649.71c-3.67-1.46-4.84-.12-4.84-.12-4.96-23.11-18.26-32.79-24.31-41.35-1.09,2.67-1.16,8.4-2.25,11.07-5.27-2.76-13.44-7.69-19.57-18.14-12.01,10.18-21.1,19.35-25.88,37.07-.56.25-1.27-1.8-2.49-2.11-.98-.25-2.17-.11-2.73.14-.75-7.56-1.62-21.43.17-28.81,1.88-7.79,12.21-24.65,29.72-24.11,9.19-5.51,23.16-9.78,32.62-4.71,11.59,6.21,27.26,20.3,30.73,40.21.82,4.71-6.57,26.44-11.18,30.86Z"/><path class="cls-4" d="m146.5,636.64c-2.32-1.71-5.16.06-6.9,2.27-8.42,10.66-1.21,26.64,7.05,28.51"/><path class="cls-4" d="m145.76,707.19c7.46,8.55,18.47,13.91,29.8,14.49"/><path class="cls-4" d="m185.93,720.08c5.83-1.06,11.3-4.01,15.39-8.31"/><path class="cls-4" d="m220.63,649.39c2.76-.84,4.85,1.79,5.75,4.44,4.37,12.86-7.77,25.51-16.17,24.51"/><path class="cls-4" d="m146.22,651.77c-.14,16.37,3.8,30.11,9.06,34.24,6.76,5.32,21.63,10.16,36.27,8.28,3.76-.48,11.01-4.46,15.54-12.79,3.68-6.77,5.82-10.52,8.12-17.86"/><path class="cls-4" d="m181.51,647.75c-1.59,3.92-3.19,7.84-4.78,11.77-.1.24-.2.5-.23.76-.03.29.05.51.13.7.72,1.79,1.65,3.25,2.73,4.3"/><path class="cls-4" d="m169.13,669.68c4.17,4.93,12.9,6.39,18.34,3.44"/><path class="cls-4" d="m164.02,625.63c3.58-1.21,7.63-.92,11.01.78"/><path class="cls-4" d="m195.57,630.19c3.78-.58,7.74.13,11.09,1.98"/><circle class="cls-21" cx="169.63" cy="641.49" r="3.66"/><circle class="cls-21" cx="196.6" cy="646.13" r="3.66"/></g><g class="cls-25"><path class="cls-19" d="m-4.34,898.32c130.48-146.71,402.9-158.9,622.11,57.68,68.54,67.71,353.23-50.16,482.4,223.21H4.89s-9.23-280.89-9.23-280.89Z"/><rect class="cls-19" x="1226.2" y="771.2" width="379.71" height="38.75" rx="10.2" ry="10.2" transform="translate(-176.88 1095.18) rotate(-40)"/><circle class="cls-19" cx="1591.78" cy="635.82" r="19.48"/><rect class="cls-15" x="925.67" y="860.07" width="379.71" height="38.75" rx="10.2" ry="10.2" transform="translate(-304.31 922.8) rotate(-40)"/><rect class="cls-15" x="1287.52" y="544.77" width="379.71" height="38.75" rx="10.2" ry="10.2" transform="translate(-16.98 1081.62) rotate(-40)"/><circle class="cls-15" cx="1299.16" cy="722.77" r="19.48"/><g class="cls-28"><line class="cls-3" x1="-270.55" y1="1002.7" x2="201.14" y2="646.59"/><line class="cls-3" x1="-242.99" y1="1029.52" x2="228.7" y2="673.41"/><line class="cls-3" x1="-215.43" y1="1056.34" x2="256.26" y2="700.23"/><line class="cls-3" x1="-187.87" y1="1083.16" x2="283.82" y2="727.05"/><line class="cls-3" x1="-160.3" y1="1109.98" x2="311.38" y2="753.87"/><line class="cls-3" x1="-132.74" y1="1136.79" x2="338.95" y2="780.68"/><line class="cls-3" x1="-105.18" y1="1163.61" x2="366.51" y2="807.5"/><line class="cls-3" x1="-77.62" y1="1190.43" x2="394.07" y2="834.32"/><line class="cls-3" x1="-50.06" y1="1217.25" x2="421.63" y2="861.14"/></g><g class="cls-27"><circle class="cls-15" cx="6.2" cy="685.84" r="4.82"/><circle class="cls-15" cx="24.76" cy="685.84" r="4.82"/><circle class="cls-15" cx="43.32" cy="685.84" r="4.82"/><circle class="cls-15" cx="61.88" cy="685.84" r="4.82"/><circle class="cls-15" cx="80.44" cy="685.84" r="4.82"/><circle class="cls-15" cx="99" cy="685.84" r="4.82"/><circle class="cls-15" cx="117.56" cy="685.84" r="4.82"/><circle class="cls-15" cx="136.12" cy="685.84" r="4.82"/><circle class="cls-15" cx="154.68" cy="685.84" r="4.82"/><circle class="cls-15" cx="-2.93" cy="670.49" r="4.82"/><circle class="cls-15" cx="15.63" cy="670.49" r="4.82"/><circle class="cls-15" cx="34.19" cy="670.49" r="4.82"/><circle class="cls-15" cx="52.75" cy="670.49" r="4.82"/><circle class="cls-15" cx="71.31" cy="670.49" r="4.82"/><circle class="cls-15" cx="89.87" cy="670.49" r="4.82"/><circle class="cls-15" cx="108.43" cy="670.49" r="4.82"/><circle class="cls-15" cx="126.99" cy="670.49" r="4.82"/><circle class="cls-15" cx="145.55" cy="670.49" r="4.82"/><circle class="cls-15" cx="6.2" cy="717.14" r="4.82"/><circle class="cls-15" cx="24.76" cy="717.14" r="4.82"/><circle class="cls-15" cx="43.32" cy="717.14" r="4.82"/><circle class="cls-15" cx="61.88" cy="717.14" r="4.82"/><circle class="cls-15" cx="80.44" cy="717.14" r="4.82"/><circle class="cls-15" cx="99" cy="717.14" r="4.82"/><circle class="cls-15" cx="117.56" cy="717.14" r="4.82"/><circle class="cls-15" cx="136.12" cy="717.14" r="4.82"/><circle class="cls-15" cx="154.68" cy="717.14" r="4.82"/><circle class="cls-15" cx="-2.93" cy="701.79" r="4.82"/><circle class="cls-15" cx="15.63" cy="701.79" r="4.82"/><circle class="cls-15" cx="34.19" cy="701.79" r="4.82"/><circle class="cls-15" cx="52.75" cy="701.79" r="4.82"/><circle class="cls-15" cx="71.31" cy="701.79" r="4.82"/><circle class="cls-15" cx="89.87" cy="701.79" r="4.82"/><circle class="cls-15" cx="108.43" cy="701.79" r="4.82"/><circle class="cls-15" cx="126.99" cy="701.79" r="4.82"/><circle class="cls-15" cx="145.55" cy="701.79" r="4.82"/><circle class="cls-15" cx="6.2" cy="748.44" r="4.82"/><circle class="cls-15" cx="24.76" cy="748.44" r="4.82"/><circle class="cls-15" cx="43.32" cy="748.44" r="4.82"/><circle class="cls-15" cx="61.88" cy="748.44" r="4.82"/><circle class="cls-15" cx="80.44" cy="748.44" r="4.82"/><circle class="cls-15" cx="99" cy="748.44" r="4.82"/><circle class="cls-15" cx="117.56" cy="748.44" r="4.82"/><circle class="cls-15" cx="136.12" cy="748.44" r="4.82"/><circle class="cls-15" cx="154.68" cy="748.44" r="4.82"/><circle class="cls-15" cx="-2.93" cy="733.09" r="4.82"/><circle class="cls-15" cx="15.63" cy="733.09" r="4.82"/><circle class="cls-15" cx="34.19" cy="733.09" r="4.82"/><circle class="cls-15" cx="52.75" cy="733.09" r="4.82"/><circle class="cls-15" cx="71.31" cy="733.09" r="4.82"/><circle class="cls-15" cx="89.87" cy="733.09" r="4.82"/><circle class="cls-15" cx="108.43" cy="733.09" r="4.82"/><circle class="cls-15" cx="126.99" cy="733.09" r="4.82"/><circle class="cls-15" cx="145.55" cy="733.09" r="4.82"/><circle class="cls-15" cx="6.2" cy="779.74" r="4.82"/><circle class="cls-15" cx="24.76" cy="779.74" r="4.82"/><circle class="cls-15" cx="43.32" cy="779.74" r="4.82"/><circle class="cls-15" cx="61.88" cy="779.74" r="4.82"/><circle class="cls-15" cx="80.44" cy="779.74" r="4.82"/><circle class="cls-15" cx="99" cy="779.74" r="4.82"/><circle class="cls-15" cx="117.56" cy="779.74" r="4.82"/><circle class="cls-15" cx="136.12" cy="779.74" r="4.82"/><circle class="cls-15" cx="154.68" cy="779.74" r="4.82"/><circle class="cls-15" cx="-2.93" cy="764.39" r="4.82"/><circle class="cls-15" cx="15.63" cy="764.39" r="4.82"/><circle class="cls-15" cx="34.19" cy="764.39" r="4.82"/><circle class="cls-15" cx="52.75" cy="764.39" r="4.82"/><circle class="cls-15" cx="71.31" cy="764.39" r="4.82"/><circle class="cls-15" cx="89.87" cy="764.39" r="4.82"/><circle class="cls-15" cx="108.43" cy="764.39" r="4.82"/><circle class="cls-15" cx="126.99" cy="764.39" r="4.82"/><circle class="cls-15" cx="145.55" cy="764.39" r="4.82"/><circle class="cls-15" cx="6.2" cy="811.04" r="4.82"/><circle class="cls-15" cx="24.76" cy="811.04" r="4.82"/><circle class="cls-15" cx="43.32" cy="811.04" r="4.82"/><circle class="cls-15" cx="61.88" cy="811.04" r="4.82"/><circle class="cls-15" cx="80.44" cy="811.04" r="4.82"/><circle class="cls-15" cx="99" cy="811.04" r="4.82"/><circle class="cls-15" cx="117.56" cy="811.04" r="4.82"/><circle class="cls-15" cx="136.12" cy="811.04" r="4.82"/><circle class="cls-15" cx="154.68" cy="811.04" r="4.82"/><circle class="cls-15" cx="-2.93" cy="795.69" r="4.82"/><circle class="cls-15" cx="15.63" cy="795.69" r="4.82"/><circle class="cls-15" cx="34.19" cy="795.69" r="4.82"/><circle class="cls-15" cx="52.75" cy="795.69" r="4.82"/><circle class="cls-15" cx="71.31" cy="795.69" r="4.82"/><circle class="cls-15" cx="89.87" cy="795.69" r="4.82"/><circle class="cls-15" cx="108.43" cy="795.69" r="4.82"/><circle class="cls-15" cx="126.99" cy="795.69" r="4.82"/><circle class="cls-15" cx="145.55" cy="795.69" r="4.82"/><circle class="cls-15" cx="6.2" cy="842.34" r="4.82"/><circle class="cls-15" cx="24.76" cy="842.34" r="4.82"/><circle class="cls-15" cx="43.32" cy="842.34" r="4.82"/><circle class="cls-15" cx="61.88" cy="842.34" r="4.82"/><circle class="cls-15" cx="80.44" cy="842.34" r="4.82"/><circle class="cls-15" cx="99" cy="842.34" r="4.82"/><circle class="cls-15" cx="117.56" cy="842.34" r="4.82"/><circle class="cls-15" cx="136.12" cy="842.34" r="4.82"/><circle class="cls-15" cx="154.68" cy="842.34" r="4.82"/><circle class="cls-15" cx="-2.93" cy="826.99" r="4.82"/><circle class="cls-15" cx="15.63" cy="826.99" r="4.82"/><circle class="cls-15" cx="34.19" cy="826.99" r="4.82"/><circle class="cls-15" cx="52.75" cy="826.99" r="4.82"/><circle class="cls-15" cx="71.31" cy="826.99" r="4.82"/><circle class="cls-15" cx="89.87" cy="826.99" r="4.82"/><circle class="cls-15" cx="108.43" cy="826.99" r="4.82"/><circle class="cls-15" cx="126.99" cy="826.99" r="4.82"/><circle class="cls-15" cx="145.55" cy="826.99" r="4.82"/><circle class="cls-15" cx="6.2" cy="873.64" r="4.82"/><circle class="cls-15" cx="24.76" cy="873.64" r="4.82"/><circle class="cls-15" cx="43.32" cy="873.64" r="4.82"/><circle class="cls-15" cx="61.88" cy="873.64" r="4.82"/><circle class="cls-15" cx="80.44" cy="873.64" r="4.82"/><circle class="cls-15" cx="99" cy="873.64" r="4.82"/><circle class="cls-15" cx="117.56" cy="873.64" r="4.82"/><circle class="cls-15" cx="136.12" cy="873.64" r="4.82"/><circle class="cls-15" cx="154.68" cy="873.64" r="4.82"/><circle class="cls-15" cx="-2.93" cy="858.29" r="4.82"/><circle class="cls-15" cx="15.63" cy="858.29" r="4.82"/><circle class="cls-15" cx="34.19" cy="858.29" r="4.82"/><circle class="cls-15" cx="52.75" cy="858.29" r="4.82"/><circle class="cls-15" cx="71.31" cy="858.29" r="4.82"/><circle class="cls-15" cx="89.87" cy="858.29" r="4.82"/><circle class="cls-15" cx="108.43" cy="858.29" r="4.82"/><circle class="cls-15" cx="126.99" cy="858.29" r="4.82"/><circle class="cls-15" cx="145.55" cy="858.29" r="4.82"/></g><circle class="cls-7" cx="485.55" cy="918.93" r="128.41"/><g class="cls-26"><line class="cls-1" x1="985.4" y1="872.02" x2="592.33" y2="1168.78"/><line class="cls-1" x1="962.43" y1="849.67" x2="569.36" y2="1146.43"/><line class="cls-1" x1="939.47" y1="827.32" x2="546.39" y2="1124.08"/><line class="cls-1" x1="916.5" y1="804.97" x2="523.42" y2="1101.73"/><line class="cls-1" x1="893.53" y1="782.62" x2="500.45" y2="1079.38"/><line class="cls-1" x1="870.56" y1="760.28" x2="477.49" y2="1057.03"/><line class="cls-1" x1="847.59" y1="737.93" x2="454.52" y2="1034.68"/><line class="cls-1" x1="824.62" y1="715.58" x2="431.55" y2="1012.34"/></g><circle class="cls-5" cx="128.27" cy="452.18" r="27.27"/><circle class="cls-15" cx="1536.79" cy="736.09" r="13.64"/><circle class="cls-18" cx="53.64" cy="602.62" r="13.64"/><circle class="cls-5" cx="1049.74" cy="870.83" r="27.27"/><circle class="cls-19" cx="664.24" cy="810.33" r="13.64"/><circle class="cls-19" cx="979.34" cy="688.1" r="13.64"/><polygon class="cls-15" points="1419.4 402.19 1439.12 428.53 1452.07 398.28 1419.4 402.19"/><polygon class="cls-18" points="847.81 820.38 827.77 833.11 829.86 809.46 811.56 794.34 834.7 789.02 843.43 766.94 855.64 787.3 879.33 788.79 863.74 806.69 869.65 829.68 847.81 820.38"/><polygon class="cls-19" points="1318.73 569.64 1298.69 582.37 1300.78 558.72 1282.49 543.59 1305.62 538.28 1314.36 516.2 1326.56 536.56 1350.26 538.04 1334.67 555.95 1340.58 578.94 1318.73 569.64"/><path class="cls-19" d="m1703.82,71.74c-130.48,146.71-402.9,158.9-622.11-57.68-68.54-67.71-353.23,50.16-482.4-223.21h1095.28s9.23,280.89,9.23,280.89Z"/><rect class="cls-19" x="63.69" y="-106.69" width="379.71" height="38.75" rx="-14.6" ry="-14.6" transform="translate(391.65 -317.18) rotate(140)"/><rect class="cls-19" x="-290.25" y="206.69" width="379.71" height="38.75" rx="10.2" ry="10.2" transform="translate(-32 463.77) rotate(140)"/><circle class="cls-19" cx="77.82" cy="67.43" r="19.48"/><rect class="cls-17" x="2.37" y="119.74" width="379.71" height="38.75" rx="10.2" ry="10.2" transform="translate(428.89 122.12) rotate(140)"/><g class="cls-32"><line class="cls-3" x1="1884.55" y1="-92.92" x2="1412.86" y2="263.19"/><line class="cls-3" x1="1856.99" y1="-119.73" x2="1385.3" y2="236.38"/><line class="cls-3" x1="1829.42" y1="-146.55" x2="1357.73" y2="209.56"/><line class="cls-3" x1="1801.86" y1="-173.37" x2="1330.17" y2="182.74"/><line class="cls-3" x1="1774.3" y1="-200.19" x2="1302.61" y2="155.92"/><line class="cls-3" x1="1746.74" y1="-227.01" x2="1275.05" y2="129.1"/><line class="cls-3" x1="1719.17" y1="-253.83" x2="1247.49" y2="102.28"/><line class="cls-3" x1="1691.61" y1="-280.64" x2="1219.92" y2="75.47"/><line class="cls-3" x1="1664.05" y1="-307.46" x2="1192.36" y2="48.65"/><line class="cls-3" x1="1636.49" y1="-334.28" x2="1164.8" y2="21.83"/></g><g class="cls-31"><circle class="cls-15" cx="1559.32" cy="268.61" r="4.82"/><circle class="cls-15" cx="1540.76" cy="268.61" r="4.82"/><circle class="cls-15" cx="1522.2" cy="268.61" r="4.82"/><circle class="cls-15" cx="1503.64" cy="268.61" r="4.82"/><circle class="cls-15" cx="1485.08" cy="268.61" r="4.82"/><circle class="cls-15" cx="1466.52" cy="268.61" r="4.82"/><circle class="cls-15" cx="1447.96" cy="268.61" r="4.82"/><circle class="cls-15" cx="1429.4" cy="268.61" r="4.82"/><circle class="cls-15" cx="1410.83" cy="268.61" r="4.82"/><circle class="cls-15" cx="1392.27" cy="268.61" r="4.82"/><circle class="cls-15" cx="1373.71" cy="268.61" r="4.82"/><circle class="cls-15" cx="1355.15" cy="268.61" r="4.82"/><circle class="cls-15" cx="1336.59" cy="268.61" r="4.82"/><circle class="cls-15" cx="1318.03" cy="268.61" r="4.82"/><circle class="cls-15" cx="1568.45" cy="283.96" r="4.82"/><circle class="cls-15" cx="1549.89" cy="283.96" r="4.82"/><circle class="cls-15" cx="1531.33" cy="283.96" r="4.82"/><circle class="cls-15" cx="1512.77" cy="283.96" r="4.82"/><circle class="cls-15" cx="1494.21" cy="283.96" r="4.82"/><circle class="cls-15" cx="1475.65" cy="283.96" r="4.82"/><circle class="cls-15" cx="1457.09" cy="283.96" r="4.82"/><circle class="cls-15" cx="1438.53" cy="283.96" r="4.82"/><circle class="cls-15" cx="1419.97" cy="283.96" r="4.82"/><circle class="cls-15" cx="1401.41" cy="283.96" r="4.82"/><circle class="cls-15" cx="1382.85" cy="283.96" r="4.82"/><circle class="cls-15" cx="1364.29" cy="283.96" r="4.82"/><circle class="cls-15" cx="1345.73" cy="283.96" r="4.82"/><circle class="cls-15" cx="1327.17" cy="283.96" r="4.82"/><circle class="cls-15" cx="1559.32" cy="237.32" r="4.82"/><circle class="cls-15" cx="1540.76" cy="237.32" r="4.82"/><circle class="cls-15" cx="1522.2" cy="237.32" r="4.82"/><circle class="cls-15" cx="1503.64" cy="237.32" r="4.82"/><circle class="cls-15" cx="1485.08" cy="237.32" r="4.82"/><circle class="cls-15" cx="1466.52" cy="237.32" r="4.82"/><circle class="cls-15" cx="1447.96" cy="237.32" r="4.82"/><circle class="cls-15" cx="1429.4" cy="237.32" r="4.82"/><circle class="cls-15" cx="1410.83" cy="237.32" r="4.82"/><circle class="cls-15" cx="1392.27" cy="237.32" r="4.82"/><circle class="cls-15" cx="1373.71" cy="237.32" r="4.82"/><circle class="cls-15" cx="1355.15" cy="237.32" r="4.82"/><circle class="cls-15" cx="1336.59" cy="237.32" r="4.82"/><circle class="cls-15" cx="1318.03" cy="237.32" r="4.82"/><circle class="cls-15" cx="1568.45" cy="252.66" r="4.82"/><circle class="cls-15" cx="1549.89" cy="252.66" r="4.82"/><circle class="cls-15" cx="1531.33" cy="252.66" r="4.82"/><circle class="cls-15" cx="1512.77" cy="252.66" r="4.82"/><circle class="cls-15" cx="1494.21" cy="252.66" r="4.82"/><circle class="cls-15" cx="1475.65" cy="252.66" r="4.82"/><circle class="cls-15" cx="1457.09" cy="252.66" r="4.82"/><circle class="cls-15" cx="1438.53" cy="252.66" r="4.82"/><circle class="cls-15" cx="1419.97" cy="252.66" r="4.82"/><circle class="cls-15" cx="1401.41" cy="252.66" r="4.82"/><circle class="cls-15" cx="1382.85" cy="252.66" r="4.82"/><circle class="cls-15" cx="1364.29" cy="252.66" r="4.82"/><circle class="cls-15" cx="1345.73" cy="252.66" r="4.82"/><circle class="cls-15" cx="1327.17" cy="252.66" r="4.82"/><circle class="cls-15" cx="1559.32" cy="206.02" r="4.82"/><circle class="cls-15" cx="1540.76" cy="206.02" r="4.82"/><circle class="cls-15" cx="1522.2" cy="206.02" r="4.82"/><circle class="cls-15" cx="1503.64" cy="206.02" r="4.82"/><circle class="cls-15" cx="1485.08" cy="206.02" r="4.82"/><circle class="cls-15" cx="1466.52" cy="206.02" r="4.82"/><circle class="cls-15" cx="1447.96" cy="206.02" r="4.82"/><circle class="cls-15" cx="1429.4" cy="206.02" r="4.82"/><circle class="cls-15" cx="1410.83" cy="206.02" r="4.82"/><circle class="cls-15" cx="1392.27" cy="206.02" r="4.82"/><circle class="cls-15" cx="1373.71" cy="206.02" r="4.82"/><circle class="cls-15" cx="1355.15" cy="206.02" r="4.82"/><circle class="cls-15" cx="1336.59" cy="206.02" r="4.82"/><circle class="cls-15" cx="1318.03" cy="206.02" r="4.82"/><circle class="cls-15" cx="1568.45" cy="221.36" r="4.82"/><circle class="cls-15" cx="1549.89" cy="221.36" r="4.82"/><circle class="cls-15" cx="1531.33" cy="221.36" r="4.82"/><circle class="cls-15" cx="1512.77" cy="221.36" r="4.82"/><circle class="cls-15" cx="1494.21" cy="221.36" r="4.82"/><circle class="cls-15" cx="1475.65" cy="221.36" r="4.82"/><circle class="cls-15" cx="1457.09" cy="221.36" r="4.82"/><circle class="cls-15" cx="1438.53" cy="221.36" r="4.82"/><circle class="cls-15" cx="1419.97" cy="221.36" r="4.82"/><circle class="cls-15" cx="1401.41" cy="221.36" r="4.82"/><circle class="cls-15" cx="1382.85" cy="221.36" r="4.82"/><circle class="cls-15" cx="1364.29" cy="221.36" r="4.82"/><circle class="cls-15" cx="1345.73" cy="221.36" r="4.82"/><circle class="cls-15" cx="1327.17" cy="221.36" r="4.82"/><circle class="cls-15" cx="1559.32" cy="174.72" r="4.82"/><circle class="cls-15" cx="1540.76" cy="174.72" r="4.82"/><circle class="cls-15" cx="1522.2" cy="174.72" r="4.82"/><circle class="cls-15" cx="1503.64" cy="174.72" r="4.82"/><circle class="cls-15" cx="1485.08" cy="174.72" r="4.82"/><circle class="cls-15" cx="1466.52" cy="174.72" r="4.82"/><circle class="cls-15" cx="1447.96" cy="174.72" r="4.82"/><circle class="cls-15" cx="1429.4" cy="174.72" r="4.82"/><circle class="cls-15" cx="1410.83" cy="174.72" r="4.82"/><circle class="cls-15" cx="1392.27" cy="174.72" r="4.82"/><circle class="cls-15" cx="1373.71" cy="174.72" r="4.82"/><circle class="cls-15" cx="1355.15" cy="174.72" r="4.82"/><circle class="cls-15" cx="1336.59" cy="174.72" r="4.82"/><circle class="cls-15" cx="1318.03" cy="174.72" r="4.82"/><circle class="cls-15" cx="1568.45" cy="190.07" r="4.82"/><circle class="cls-15" cx="1549.89" cy="190.07" r="4.82"/><circle class="cls-15" cx="1531.33" cy="190.07" r="4.82"/><circle class="cls-15" cx="1512.77" cy="190.07" r="4.82"/><circle class="cls-15" cx="1494.21" cy="190.07" r="4.82"/><circle class="cls-15" cx="1475.65" cy="190.07" r="4.82"/><circle class="cls-15" cx="1457.09" cy="190.07" r="4.82"/><circle class="cls-15" cx="1438.53" cy="190.07" r="4.82"/><circle class="cls-15" cx="1419.97" cy="190.07" r="4.82"/><circle class="cls-15" cx="1401.41" cy="190.07" r="4.82"/><circle class="cls-15" cx="1382.85" cy="190.07" r="4.82"/><circle class="cls-15" cx="1364.29" cy="190.07" r="4.82"/><circle class="cls-15" cx="1345.73" cy="190.07" r="4.82"/><circle class="cls-15" cx="1327.17" cy="190.07" r="4.82"/><circle class="cls-15" cx="1559.32" cy="143.42" r="4.82"/><circle class="cls-15" cx="1540.76" cy="143.42" r="4.82"/><circle class="cls-15" cx="1522.2" cy="143.42" r="4.82"/><circle class="cls-15" cx="1503.64" cy="143.42" r="4.82"/><circle class="cls-15" cx="1485.08" cy="143.42" r="4.82"/><circle class="cls-15" cx="1466.52" cy="143.42" r="4.82"/><circle class="cls-15" cx="1447.96" cy="143.42" r="4.82"/><circle class="cls-15" cx="1429.4" cy="143.42" r="4.82"/><circle class="cls-15" cx="1410.83" cy="143.42" r="4.82"/><circle class="cls-15" cx="1392.27" cy="143.42" r="4.82"/><circle class="cls-15" cx="1373.71" cy="143.42" r="4.82"/><circle class="cls-15" cx="1355.15" cy="143.42" r="4.82"/><circle class="cls-15" cx="1336.59" cy="143.42" r="4.82"/><circle class="cls-15" cx="1318.03" cy="143.42" r="4.82"/><circle class="cls-15" cx="1568.45" cy="158.77" r="4.82"/><circle class="cls-15" cx="1549.89" cy="158.77" r="4.82"/><circle class="cls-15" cx="1531.33" cy="158.77" r="4.82"/><circle class="cls-15" cx="1512.77" cy="158.77" r="4.82"/><circle class="cls-15" cx="1494.21" cy="158.77" r="4.82"/><circle class="cls-15" cx="1475.65" cy="158.77" r="4.82"/><circle class="cls-15" cx="1457.09" cy="158.77" r="4.82"/><circle class="cls-15" cx="1438.53" cy="158.77" r="4.82"/><circle class="cls-15" cx="1419.97" cy="158.77" r="4.82"/><circle class="cls-15" cx="1401.41" cy="158.77" r="4.82"/><circle class="cls-15" cx="1382.85" cy="158.77" r="4.82"/><circle class="cls-15" cx="1364.29" cy="158.77" r="4.82"/><circle class="cls-15" cx="1345.73" cy="158.77" r="4.82"/><circle class="cls-15" cx="1327.17" cy="158.77" r="4.82"/><circle class="cls-15" cx="1559.32" cy="112.12" r="4.82"/><circle class="cls-15" cx="1540.76" cy="112.12" r="4.82"/><circle class="cls-15" cx="1522.2" cy="112.12" r="4.82"/><circle class="cls-15" cx="1503.64" cy="112.12" r="4.82"/><circle class="cls-15" cx="1485.08" cy="112.12" r="4.82"/><circle class="cls-15" cx="1466.52" cy="112.12" r="4.82"/><circle class="cls-15" cx="1447.96" cy="112.12" r="4.82"/><circle class="cls-15" cx="1429.4" cy="112.12" r="4.82"/><circle class="cls-15" cx="1410.83" cy="112.12" r="4.82"/><circle class="cls-15" cx="1392.27" cy="112.12" r="4.82"/><circle class="cls-15" cx="1373.71" cy="112.12" r="4.82"/><circle class="cls-15" cx="1355.15" cy="112.12" r="4.82"/><circle class="cls-15" cx="1336.59" cy="112.12" r="4.82"/><circle class="cls-15" cx="1318.03" cy="112.12" r="4.82"/><circle class="cls-15" cx="1568.45" cy="127.47" r="4.82"/><circle class="cls-15" cx="1549.89" cy="127.47" r="4.82"/><circle class="cls-15" cx="1531.33" cy="127.47" r="4.82"/><circle class="cls-15" cx="1512.77" cy="127.47" r="4.82"/><circle class="cls-15" cx="1494.21" cy="127.47" r="4.82"/><circle class="cls-15" cx="1475.65" cy="127.47" r="4.82"/><circle class="cls-15" cx="1457.09" cy="127.47" r="4.82"/><circle class="cls-15" cx="1438.53" cy="127.47" r="4.82"/><circle class="cls-15" cx="1419.97" cy="127.47" r="4.82"/><circle class="cls-15" cx="1401.41" cy="127.47" r="4.82"/><circle class="cls-15" cx="1382.85" cy="127.47" r="4.82"/><circle class="cls-15" cx="1364.29" cy="127.47" r="4.82"/><circle class="cls-15" cx="1345.73" cy="127.47" r="4.82"/><circle class="cls-15" cx="1327.17" cy="127.47" r="4.82"/><circle class="cls-15" cx="1559.32" cy="80.82" r="4.82"/><circle class="cls-15" cx="1540.76" cy="80.82" r="4.82"/><circle class="cls-15" cx="1522.2" cy="80.82" r="4.82"/><circle class="cls-15" cx="1503.64" cy="80.82" r="4.82"/><circle class="cls-15" cx="1485.08" cy="80.82" r="4.82"/><circle class="cls-15" cx="1466.52" cy="80.82" r="4.82"/><circle class="cls-15" cx="1447.96" cy="80.82" r="4.82"/><circle class="cls-15" cx="1429.4" cy="80.82" r="4.82"/><circle class="cls-15" cx="1410.83" cy="80.82" r="4.82"/><circle class="cls-15" cx="1392.27" cy="80.82" r="4.82"/><circle class="cls-15" cx="1373.71" cy="80.82" r="4.82"/><circle class="cls-15" cx="1355.15" cy="80.82" r="4.82"/><circle class="cls-15" cx="1336.59" cy="80.82" r="4.82"/><circle class="cls-15" cx="1318.03" cy="80.82" r="4.82"/><circle class="cls-15" cx="1568.45" cy="96.17" r="4.82"/><circle class="cls-15" cx="1549.89" cy="96.17" r="4.82"/><circle class="cls-15" cx="1531.33" cy="96.17" r="4.82"/><circle class="cls-15" cx="1512.77" cy="96.17" r="4.82"/><circle class="cls-15" cx="1494.21" cy="96.17" r="4.82"/><circle class="cls-15" cx="1475.65" cy="96.17" r="4.82"/><circle class="cls-15" cx="1457.09" cy="96.17" r="4.82"/><circle class="cls-15" cx="1438.53" cy="96.17" r="4.82"/><circle class="cls-15" cx="1419.97" cy="96.17" r="4.82"/><circle class="cls-15" cx="1401.41" cy="96.17" r="4.82"/><circle class="cls-15" cx="1382.85" cy="96.17" r="4.82"/><circle class="cls-15" cx="1364.29" cy="96.17" r="4.82"/><circle class="cls-15" cx="1345.73" cy="96.17" r="4.82"/><circle class="cls-15" cx="1327.17" cy="96.17" r="4.82"/></g><circle class="cls-7" cx="1128.45" cy="-9.14" r="128.41"/><g class="cls-29"><line class="cls-1" x1="488.2" y1="10.44" x2="881.27" y2="-286.32"/><line class="cls-1" x1="511.16" y1="32.79" x2="904.24" y2="-263.97"/><line class="cls-1" x1="534.13" y1="55.14" x2="927.21" y2="-241.62"/><line class="cls-1" x1="557.1" y1="77.49" x2="950.17" y2="-219.27"/><line class="cls-1" x1="580.07" y1="99.83" x2="973.14" y2="-196.92"/><line class="cls-1" x1="603.04" y1="122.18" x2="996.11" y2="-174.58"/><line class="cls-1" x1="626.01" y1="144.53" x2="1019.08" y2="-152.23"/><line class="cls-1" x1="648.98" y1="166.88" x2="1042.05" y2="-129.88"/><line class="cls-1" x1="671.94" y1="189.23" x2="1065.02" y2="-107.53"/><line class="cls-1" x1="694.91" y1="211.58" x2="1087.99" y2="-85.18"/><line class="cls-1" x1="717.88" y1="233.93" x2="1110.95" y2="-62.83"/></g><circle class="cls-5" cx="1221.55" cy="189.74" r="27.27"/><circle class="cls-18" cx="1560.36" cy="307.17" r="13.64"/><circle class="cls-6" cx="184.28" cy="95.95" r="27.27"/><circle class="cls-19" cx="949.75" cy="99.45" r="13.64"/><circle class="cls-19" cx="330.67" cy="126.69" r="13.64"/><polygon class="cls-17" points="237.81 229.12 217.14 203.52 205.3 234.22 237.81 229.12"/><polygon class="cls-18" points="481.21 -24.59 501.25 -37.32 499.16 -13.67 517.45 1.46 494.32 6.78 485.58 28.85 473.38 8.49 449.68 7.01 465.27 -10.89 459.36 -33.89 481.21 -24.59"/><polygon class="cls-19" points="93.98 289.69 114.02 276.97 111.93 300.62 130.23 315.74 107.09 321.06 98.36 343.14 86.15 322.78 62.46 321.29 78.05 303.39 72.14 280.4 93.98 289.69"/></g><g class="cls-30"><path class="cls-23" d="m1191.47,741.11c-2.08,3.49-4.01,7.08-5.77,11.01.64,1.96.38,4.09.42,6.15.04,2.22.44,4.44,1.18,6.54.31.87.66,1.88.17,2.67-.39.63-1.22.87-1.94.76-1.04-.16-1.92-.9-2.48-1.79s-.87-1.91-1.17-2.92c-.11-.38-.29-.82-.9-.69-2.15,3.89-4.45,7.76-7.57,10.92-.6.61-1.27,1.22-2.1,1.44s-1.86-.07-2.21-.85c-.37-.8.08-1.73.52-2.49,1.61-2.8,3.21-5.6,4.82-8.41-2.35,2.56-4.71,5.13-7.4,7.32-.67.55-1.43,1.09-2.29,1.11-1.06.02-2.04-.92-2.08-1.98-.04-1.06.72-1.96,1.44-2.75,2.01-2.19,4.03-4.35,6.04-6.64-1.71,1.72-3.56,3.29-5.45,4.83-3.16,2.57-5.06.95-4.24-1.32.34-.93,1.77-2.27,2.51-2.93,1.49-1.35,2.98-2.7,4.48-4.13-1.48.57-3.15,1.39-4.65,1.9-3.91,1.35-5.17-2.16-1.32-4.16,4.59-2.38,9.24-4.98,13.42-8.18,1.63-4.93,3.47-9.79,5.52-14.56"/><path class="cls-24" d="m1196.69,770.56c-4.97,29.13,2.79,62.01,6.43,105.73,0,0,17.22,5.58,28.05-1.53.46-.3-.72-46.15,2.82-75.7.24-2.02,3.03-2.34,3.73-.43,8.86,24.19,15.25,51.89,24.09,75.85,2.84,1.57,19.01,7.08,27.15-2.71-4.6-29.32-11.84-61.87-17.99-90.91"/><path class="cls-23" d="m1232.96,679.02c-16.06-1.32-24.87,2.01-47.98,35.43-3.43,4.95-16.91,23.61-16.64,27.2.38,5.13,13.98,11.06,19.12,11.4,2.42.16,18.89-23.83,25.45-32.35-4.29,18.9-9.78,31.59-16.21,49.85,4.52,6.98,28.77,30.2,77,15.7,12.68-23.82,15.57-62.23,12.38-85.91-.67-4.98-3.73-14.88-8.55-16.32"/><path class="cls-23" d="m1242.36,684.29c3.16,13.09,23.03,16.07,27.84,1.71"/><path class="cls-13" d="m1292.79,641.75c.57,8.16.86,18.93-1.6,26.73-2.66,8.45-6.74,13.02-16.43,16.68-2.23.84-21.95,3.78-36.45-2.82-7.02-3.2-11.33-8.87-13.86-16.56-3.8-.68-13.74-6.2-14.22-13.74-.5-7.91,6.05-14.76,13.41-11.52,2.34-4.17,5.32-7.97,8.8-11.24.34-.32.71-.65,1.16-.79.75-.23,1.55.09,2.26.41,2.88,1.29,5.76,2.57,8.65,3.86.81.36,1.74.73,2.57.4,1.94-.77,1-3.88,2.2-5.59,1.31-1.86,4.19-1.08,6.25-.11,4.72,2.22,9.44,4.44,14.16,6.66.62.29,1.31.59,1.98.44,2.06-.48,1.33-4,3.03-5.26,1.37-1.01,3.26.09,4.59,1.16,4.51,3.64,9.01,7.29,13.49,11.29Z"/><path class="cls-4" d="m1223.06,642.19c-6.77-4.91-13.32,1.95-12.82,9.86.47,7.54,10.41,13.06,14.22,13.74,2.52,7.69,6.83,13.36,13.86,16.56,14.5,6.6,34.22,3.66,36.45,2.82,9.69-3.66,13.77-8.23,16.43-16.68,2.46-7.8,2.17-18.57,1.6-26.73"/><path class="cls-22" d="m1292.79,641.75c2.42-.95,16.38-18.94-.31-40.73-7.65-9.99-22.98-18.21-35.55-17.76,4.37-4.66-2.41-4.09-3.29-4.08-14.27.17-27.63,13.75-28.58,17.36-10.55,1-18.31,14.35-18.58,15.32-.59,2.14,2,1.57,3.91,2.71-8.4,12.01-3.64,21.93.2,33.32,4.04-10.84,10.63-9.28,12.61-4.89,2.71-4.44,5.83-8.63,10.21-13.54,4.13,1.97,8.49,3.48,12.95,4.51.82.19,1.69.36,2.49.11,2.56-.78,2.32-4.53,3.85-6.73,4.68,2.97,9.68,5.44,14.89,7.33,1.9.69,4.08,1.3,5.89.4,2.36-1.17,2.93-4.23,3.21-6.85,4.7,9.9,15.24,13.86,16.1,13.52Z"/><path class="cls-23" d="m1267.79,664.28c-4.67-.17-9.3.14-13.93,1.09-.67,3.06-.93,6.47,1.6,9.32.49.55,1.11,1.09,1.93,1.39,1.91.69,3.96-.19,5.18-1.23,3.34-2.82,4.18-6.78,5.22-10.57Z"/><ellipse class="cls-21" cx="1245.15" cy="649.69" rx="4.03" ry="3.74" transform="translate(279.05 1669.08) rotate(-74.09)"/><ellipse class="cls-21" cx="1264.65" cy="657.58" rx="1.21" ry="1.12" transform="translate(-11.19 1293.16) rotate(-53.95)"/><ellipse class="cls-21" cx="1274.25" cy="649.24" rx="4.03" ry="3.74" transform="translate(334.21 1727) rotate(-75.9)"/><path class="cls-23" d="m1278.58,697.98c2.59-.83,4.7-1.89,7.03-3.29,2.33-1.4,4.57-3.32,5.31-5.94,1.05-3.69-1.13-7.47-3.37-10.59-.85-1.18-2.18-2.5-3.53-1.96-.91.37-1.32,1.5-1.18,2.47.14.97.71,1.83,1.26,2.65-.93-.74-1.52-1.83-2.39-2.64s-2.31-1.26-3.22-.49c-1.31,1.1-.24,3.2.86,4.5-.98-1.47-2.47-3.13-4.15-2.63-1.06.32-1.7,1.45-1.79,2.55-.09,1.1.26,2.18.6,3.23.15-1.57-1.85-2.73-3.32-2.17s-2.25,2.28-2.2,3.86c.05,1.58.77,3.05,1.5,4.45,1.67,3.16,4.29,7.37,8.59,6Z"/><path class="cls-23" d="m1291.79,691.03c4.96,8.13,8.35,15.77,12.02,24.88,4.46,11.08,4.75,21.24-3.87,24.21-11.08,3.82-16.45-4.29-19.43-15.22-2.01-7.35-3.22-11.64-6.25-27.04,5.95-1.74,12.54-6.23,17.54-6.83Z"/><path class="cls-24" d="m1471.22,877.71c-.41,8.47-.81,16.94-1.22,25.42-.05,1.01-.1,2.03.13,3.02.45,1.94,2.01,3.58,3.92,4.14,1.91.57,4.1.06,5.59-1.27,1.14-1.01,1.85-2.4,2.51-3.77,4.25-8.8,7.56-18.04,9.85-27.54.49-2.01.92-4.15.24-6.1-.92-2.67-3.66-4.24-6.3-5.22-1.67-.62-3.39-1.1-5.13-1.44-.86-.16-1.77-.29-2.57.04-1.15.47-1.74,1.72-2.24,2.86-1.39,3.21-4.59,5.89-4.78,9.86Z"/><path class="cls-23" d="m1383.51,869.43c.36-7.95.72-15.9,1.09-23.84,6.53-.18,13.1,1.57,16.78,6.61-1.29,6.78-2.7,13.53-4.23,20.26l-13.64-3.02Z"/><path class="cls-23" d="m1397.14,872.45c-.49,2.14-.98,4.27-1.49,6.41-.38,1.6-.81,3.27-1.92,4.47-1.41,1.52-3.59,1.98-5.63,2.36-1.76.33-3.6.65-5.33.18s-3.32-1.99-3.24-3.78c.07-1.56,1.29-2.78,2.11-4.11,1.55-2.51,1.73-5.6,1.87-8.55l13.64,3.02Z"/><path class="cls-23" d="m1477.64,861.84c-2.92-5.35-5.84-10.7-8.76-16.06-.21-.38-.44-.78-.83-.97-.37-.17-.8-.11-1.2-.04-5.57.99-10.99,2.89-16.43,7.78,4.57,5.14,9.14,10.27,13.56,15.54,1.05,1.26,2.11,2.54,3.1,3.86l10.57-10.13Z"/><path class="cls-23" d="m1467.07,871.97c2.26,3.03,4.19,6.27,5.03,9.92.34,1.49.93,3.43,2.46,3.43.44,0,.86-.19,1.24-.42,2.59-1.57,3.45-4.85,4.08-7.81.55-2.54,1.1-5.15.74-7.73-.37-2.69-1.69-5.14-2.99-7.52l-10.57,10.13Z"/><path class="cls-24" d="m1471.73,786.55c6.96,16.75,15.07,33.02,23.6,48.72-24.58,18.05-59.3,23.5-90.19,17.87-20.62-3.76-41.31-13.57-53-32.26,9.12-14.36,18.24-28.71,27.36-43.07l92.23,8.73Z"/><path class="cls-23" d="m1512.01,772.58c4.64.39,11.59,1.28,12.96,1.33,4.66.18,3.54-4.03.81-4.48-2.38-.39-1.98-.1-4.36-.48,2.26.2,9.16.88,9.93.61,2.11-.75,1.7-2.32.8-3.18-.77-.74-3.09-.97-4.16-1.06-1.96-.17-3.72-.05-5.69-.21,2.58-.14,6.04.52,8.57.29,2.2-.2,2.01-3.03.04-3.81-.78-.31-5.52-1.12-8.2-.87,3,0,2.14.03,4.79-.05,3.61-.11,2.83-4.15-.68-4.04-1.25.04-5.59-.32-6.84-.23-1.87.14-5.67-.2-11.37-1.16-5.77-5.28-11.47-10.79-17.17-16.3-2.43,4.42-4.57,8.63-6.82,12.78,5.85,4.41,11.44,8.23,17.18,12.56,1.33,4.1,2.65,8.19,3.98,12.29.25.79.52,1.59,1.01,2.25s1.27,1.18,2.1,1.13c.92-.05,1.7-.78,2.08-1.62.38-.84.44-1.79.49-2.71.06-1.01.12-2.03.55-3.05Z"/><path class="cls-23" d="m1332.48,734.25c-4.37-1.62-11.03-3.78-12.29-4.31-4.3-1.83-1.48-5.16,1.17-4.4,2.32.66,1.83.76,4.15,1.42-2.13-.79-8.66-3.1-9.24-3.68-1.59-1.58-.55-2.82.63-3.22,1.01-.34,3.21.44,4.21.81,1.85.69,3.39,1.54,5.23,2.23-2.27-1.23-5.69-2.1-7.88-3.39-1.9-1.12-.53-3.6,1.59-3.46.84.05,5.47,1.34,7.79,2.71-2.72-1.28-1.95-.88-4.31-2.08-3.22-1.64-.8-4.96,2.33-3.37,1.12.57,5.2,2.09,6.29,2.71,1.63.92,5.21,2.24,10.78,3.79,7.47-2.32,14.97-4.88,22.48-7.44.32,5.04.46,9.75.72,14.47-7.17,1.5-13.86,2.57-20.9,4.05-2.94,3.14-5.89,6.28-8.83,9.42-.57.6-1.15,1.22-1.88,1.61s-1.65.52-2.38.13c-.82-.44-1.21-1.43-1.19-2.35s.37-1.81.71-2.66c.38-.94.76-1.88.8-2.99Z"/><path class="cls-23" d="m1451.29,691.26c9.65,2.26,16.16,10.93,22.56,18.5,7.29,8.63,15.46,16.52,24.33,23.52.86.68,1.76,1.39,2.23,2.38.88,1.88-.04,4.08-1.05,5.89-5.92,10.67-15.08,19.5-25.95,25.03-.64.33-1.35.65-2.06.52-.76-.14-1.32-.76-1.83-1.42.13,6.91,1.05,13.8,2.77,20.18-29.69,13.55-66.63,9.58-93.21-9.01,2.7-10.49,5.24-21.02,7.32-31.72-2.33,1.33-4.86,2.7-7.53,2.47-3.39-.29-5.99-3.06-8.01-5.79-6.34-8.6-10.37-18.89-11.54-29.51-.13-1.18-.22-2.4.13-3.53.73-2.34,3.12-3.69,5.32-4.78,13.88-6.89,28.29-12.73,43.04-17.46"/><path class="cls-23" d="m1444.69,693.53c-2.92,5.53-9.34,9-15.56,8.43-6.23-.58-11.89-5.17-13.75-11.14"/><path class="cls-13" d="m1401.07,637.24c-.35.7-.54,1.47-.72,2.24-.42,1.79-.85,3.59-1.27,5.38-2.44-.98-5.22-.25-7.07,1.44-1.85,1.69-2.81,4.2-2.96,6.7-.14,2.5.47,4.99,1.4,7.31,1.27,3.2,3.21,6.24,6.01,8.24.04,1.37.36,2.82.87,4.2,2.48,6.84,7.49,11.99,13.35,15.44,5.86,3.45,12.59,5.25,19.36,5.9,5.54.53,11.2.3,16.53-1.29s10.32-4.6,13.75-8.97c5.2,1.34,10.66.49,14.58-2.65,3.92-3.14,5.98-8.7,4.37-13.46-.62-1.83-1.77-3.53-3.42-4.56s-3.79-1.32-5.23-.88c.81-1.63,1.14-3.5.73-5.84-7.06-7.63-17.13-11.65-26.98-14.98-6.83-2.31-13.77-4.41-20.92-5.39-7.15-.97-14.54-.78-22.38,1.18Z"/><path class="cls-24" d="m1476.35,613.85c3.72-2.57,8.79-2.75,12.99-1.06,4.2,1.69,7.57,5.07,9.91,8.94,3.34,5.51,4.77,12.16,3.98,18.56-.32,2.61-1,5.19-1.03,7.82-.08,6.41,4.1,12.66,10.05,15.03-9.48,5.1-22.15,3.39-29.95-4.03"/><path class="cls-12" d="m1404.07,639.35c-17.66-14.9.4-39.37,17.44-39.37l5.11-1.64c13.32-6.01,42.91.37,55.23,26.03,3.06,6.36,4.82,13.44,4.3,20.48-.52,7.04-3.44,14-9.18,18.74-2.08-.34-4.16-.68-6.72-1.56-1.23-1.95-2.2-4.07-2.95-6.86-2.57,1.11-5.55.92-8.21.06-2.66-.87-5.07-2.35-7.45-3.83-1.18-.73-2.35-1.46-3.16-2.15-2.91,1.16-6.21.56-9.24-.26-5.05-1.36-10.09-3.35-13.87-6.84-5.19,1.58-10.9,1.42-15.99-.45-1.74-.64-3.79-1.04-5.33-2.34Z"/><path class="cls-4" d="m1470.29,662.63c1.76-.8,3.91-.51,5.55.52s2.8,2.72,3.42,4.56c1.61,4.76-.44,10.32-4.37,13.46-3.92,3.14-9.38,3.99-14.58,2.65-3.43,4.37-8.42,7.38-13.75,8.97s-10.99,1.82-16.53,1.29c-6.77-.65-13.5-2.45-19.36-5.9-5.86-3.45-10.87-8.6-13.28-15.27-3-8.32,1.63-23.03,3.2-35.83"/><path class="cls-4" d="m1399.09,644.68c-2.07-1.27-4.92-.66-6.72.97-1.8,1.63-2.69,4.06-3.03,6.47-.93,6.48,1.88,13.37,7.08,17.35"/><path class="cls-4" d="m1421.51,599.98c-17.04,0-35.11,24.47-17.44,39.37"/><path class="cls-4" d="m1458.06,632.6c-1.02,8.48,4.3,16.86,9.3,22.51"/><path class="cls-4" d="m1437.34,621.12c-1.95,11.95,2.68,20.75,11.46,27.68"/><path class="cls-4" d="m1419.22,614.24c-3.7,8.24-4.15,20.42,6.94,28.69"/><path class="cls-4" d="m1426.63,598.33c13.32-6.01,42.91.37,55.23,26.03,3.06,6.36,4.82,13.44,4.3,20.48-.52,7.04-3.44,14-8.64,18.77"/><path class="cls-4" d="m1439.42,677.16c-7.65,5.33-17.56,4.9-22.56-6.02"/><ellipse class="cls-21" cx="1446.08" cy="660.78" rx="4.2" ry="3.89" transform="translate(180.45 1623.05) rotate(-61.8)"/><ellipse class="cls-11" cx="1426.44" cy="711.34" rx="3.1" ry="2.87" transform="translate(-120.19 325.77) rotate(-12.51)"/><ellipse class="cls-11" cx="1425.84" cy="720.51" rx="3.1" ry="2.87" transform="translate(-122.19 325.86) rotate(-12.51)"/><ellipse class="cls-21" cx="1419.19" cy="654.35" rx="4.2" ry="3.89" transform="translate(452.87 1882.56) rotate(-76.56)"/><ellipse class="cls-21" cx="1426.63" cy="668.44" rx="1.16" ry="1.25"/><path class="cls-19" d="m1755.37,903.12c-103.08-78.92-318.29-85.47-491.47,31.03-54.14,36.42-279.05-26.98-381.1,120.06h865.27s7.29-151.09,7.29-151.09Z"/></g><path class="cls-8" d="m662.13,403.69c-.9,0-.99-.09-.99-.99,0-1.53.45-18.72.63-39.78-2.25,7.38-5.31,14.13-9.36,20.16-.54.81-.99,1.26-1.35,1.26s-.72-.54-1.08-1.53c-.81-2.61-1.98-5.13-3.06-6.75,6.03-7.38,10.89-17.1,14.04-28.44h-1.89c-6.39,0-8.46.18-9,.18-.99,0-1.08-.09-1.08-1.08v-6.39c0-.81.09-.9,1.08-.9.54,0,2.61.18,9,.18h2.43v-6.03c0-5.58-.09-8.55-.72-12.24,3.33.09,6.12.27,9,.63.9.09,1.44.45,1.44.9,0,.72-.27,1.26-.54,1.89-.45,1.08-.63,2.52-.63,8.64v6.21c6.21,0,8.28-.18,8.82-.18.9,0,.99.09.99.9v6.39c0,.99-.09,1.08-.99,1.08-.54,0-2.52-.18-8.46-.18,2.34,6.57,6.3,13.14,10.89,18.09-1.35,1.62-2.61,3.6-3.42,5.49-.45.99-.72,1.44-1.08,1.44s-.72-.45-1.26-1.35c-2.16-3.42-4.23-7.38-5.76-11.79.09,23.4.63,41.67.63,43.2,0,.9-.09.99-.99.99h-7.29Zm55.17-57.33c.99,0,1.44-.09,1.89-.36s.81-.36,1.26-.36c.63,0,1.44.45,3.69,2.61,1.89,1.71,2.43,2.61,2.43,3.24s-.27,1.26-.81,1.8c-.63.63-.81,1.26-1.26,2.97-2.61,10.17-5.85,18.45-10.53,25.65,4.41,4.95,10.08,9,17.37,12.42-1.44,1.62-2.7,3.78-3.87,6.39-.72,1.44-.99,2.07-1.62,2.07-.45,0-1.08-.27-1.98-.9-6.03-3.96-11.07-8.19-15.21-12.96-4.14,4.68-9.09,8.91-15.3,13.14-.99.63-1.53.99-1.98.99-.54,0-.9-.63-1.62-1.89-1.26-2.25-2.7-4.05-4.5-5.49,7.56-4.23,13.41-8.82,18-14.04-4.68-7.38-7.92-16.11-9.99-26.91h-.72c-.27,9.54-1.17,17.64-2.16,23.76-1.26,7.11-4.32,15.3-9.18,23.13-.72,1.08-1.17,1.71-1.71,1.71s-1.08-.54-1.89-1.62c-1.53-1.89-3.24-3.42-4.95-4.5,4.77-6.12,7.47-13.32,9-21.42,1.26-7.11,1.89-15.03,1.89-27.27,0-15.3-.18-22.05-.18-22.59,0-.99.09-1.08,1.08-1.08.45,0,3.42.18,11.7.18h21.15c8.28,0,11.07-.18,11.61-.18.81,0,.9.09.9,1.08v6.84c0,.9-.09.99-.9.99-.54,0-3.33-.18-11.61-.18h-24.66v12.78h24.66Zm-16.38,8.37c1.89,7.65,4.32,14.13,7.56,19.62,3.42-5.76,5.58-12.24,7.11-19.62h-14.67Z"/><path class="cls-8" d="m762.21,403.78c-.9,0-.99-.09-.99-.99,0-1.26.54-18.54.63-39.06-1.71,6.39-3.96,12.15-6.75,17.37-.54.99-.81,1.53-1.17,1.53-.27,0-.63-.45-.99-1.53-.9-2.52-2.07-4.95-3.15-6.39,5.22-8.1,9.18-16.74,11.34-27.81h-.45c-5.58,0-7.29.18-7.83.18-.81,0-.9-.09-.9-1.08v-6.39c0-.9.09-.99.9-.99.54,0,2.25.18,7.83.18h.9v-5.49c0-5.31-.09-8.46-.54-11.88,3.24.09,5.94.27,8.64.63.81.18,1.44.45,1.44.99,0,.72-.27,1.17-.54,1.8-.45,1.17-.54,2.52-.54,8.37v5.58c3.96,0,5.4-.18,5.85-.18.99,0,1.08.09,1.08.99v6.39c0,.99-.09,1.08-1.08,1.08-.45,0-1.89-.09-5.76-.18,1.71,5.94,5.22,11.43,8.91,16.38-1.26,1.62-2.61,3.78-3.33,5.67-.45,1.08-.72,1.53-.99,1.53-.36,0-.72-.45-1.17-1.44-1.53-2.97-2.7-6.03-3.69-9.54.09,23.13.54,42.03.54,43.29,0,.9-.09.99-.99.99h-7.2Zm27.36-47.97c-2.07,1.53-4.23,2.97-6.48,4.23-1.08.63-1.62.9-2.07.9-.63,0-.99-.54-1.8-1.98-1.08-1.62-2.25-3.06-3.6-4.05,6.03-2.52,10.89-6.03,14.67-10.35-7.11.09-9.81.18-10.26.18-.9,0-.99-.09-.99-.99v-5.4c0-.99.09-1.08.99-1.08.54,0,3.51.18,12.24.18h2.97c.81-1.44,1.53-2.97,2.16-4.59-3.78.36-7.65.54-11.7.72q-2.34.09-3.24-2.16c-.81-1.98-1.62-3.42-2.43-4.5,14.58-.18,27.36-1.53,36.99-3.6,1.89-.36,3.33-.81,4.77-1.35,1.8,1.44,3.24,2.79,4.95,4.5.63.54.9,1.17.9,1.62,0,.63-.45,1.08-1.53,1.08-1.17,0-2.7.27-3.96.45-4.77.9-9.81,1.62-15.21,2.25-.72,1.89-1.53,3.78-2.43,5.58h14.76c8.73,0,11.7-.18,12.24-.18.9,0,.99.09.99,1.08v5.4c0,.9-.09.99-.99.99-.54,0-3.51-.18-12.24-.18h-2.25c4.23,4.41,10.26,7.38,18,9.54-1.26,1.53-2.34,3.24-3.15,5.04-.72,1.62-.99,2.34-1.62,2.34-.36,0-.99-.36-2.07-.81-3.42-1.44-6.75-3.33-9.72-5.49v3.96c0,3.24.18,4.32.18,4.86,0,.99-.09,1.08-.99,1.08-.54,0-2.52-.18-8.73-.18h-9.72c-6.21,0-8.19.18-8.73.18-.99,0-1.08-.09-1.08-1.08,0-.54.18-1.62.18-4.86v-3.33Zm3.78,42.39c-.99,0-1.08-.09-1.08-.99,0-.63.18-1.89.18-9.36v-3.6c0-2.97-.18-4.5-.18-5.04,0-.99.09-1.08,1.08-1.08.54,0,2.07.18,6.93.18h7.92c4.95,0,6.48-.18,6.93-.18.99,0,1.08.09,1.08,1.08,0,.54-.18,1.89-.18,4.05v3.96c0,4.68,0,6.75.09,7.83h3.42c1.44,0,2.25-.54,2.25-2.34v-17.64h-34.92v18.63c0,5.58.18,8.19.18,8.73,0,.81-.09.9-1.08.9h-6.66c-.9,0-.99-.09-.99-.9,0-.63.18-2.97.18-8.73v-15.93c0-5.76-.18-8.37-.18-8.91,0-.9.09-.99.99-.99.54,0,3.6.18,12.15.18h25.56c8.64,0,11.7-.18,12.24-.18.99,0,1.08.09,1.08.99,0,.54-.18,3.6-.18,9.63v6.03c0,3.6.18,6.66.18,10.26,0,2.34-.45,4.5-2.16,6.03-1.62,1.35-3.87,1.8-9.72,1.89q-2.88,0-3.33-2.88c-.18-.99-.45-1.89-.72-2.7h-4.32c-.99,0-1.08-.09-1.08-.99v-1.35h-9.81v2.43c0,.9-.09.99-.99.99h-4.86Zm18.36-48.78c-1.53-1.53-2.88-3.15-4.14-4.86h-7.29c-1.17,1.71-2.43,3.33-3.87,4.86h15.3Zm-.72,5.58h-13.95v4.32h13.95v-4.32Zm-11.79,34.02h9.81v-4.68h-9.81v4.68Z"/><path class="cls-8" d="m884.07,334.93c.45-2.7.9-6.21.9-9.99,4.68.99,7.2,1.62,10.8,2.97.9.27,1.44.99,1.44,1.8,0,.45-.18.9-.63,1.35-.9,1.17-1.35,2.16-1.8,3.42-1.17,3.69-2.07,7.02-3.24,10.8,2.43-.27,5.13-.36,7.02-.36,8.46,0,13.05,5.76,13.05,16.65s-1.8,22.41-4.86,28.89c-2.61,5.76-6.93,8.46-12.15,8.46-4.32,0-6.93-.36-8.91-.99-1.08-.36-1.62-1.17-1.62-2.52-.27-2.88-.45-5.4-1.71-8.37,4.05,1.53,7.11,1.98,9.9,1.98,2.97,0,4.32-1.08,5.76-4.77,1.89-5.04,3.51-13.59,3.51-22.32,0-6.39-1.17-8.37-5.13-8.37-2.16,0-4.95.27-7.56.63-5.94,17.28-11.07,29.7-18.09,42.3-.54,1.17-1.26,1.35-2.34.81-1.62-.81-5.13-2.97-6.21-3.96-.45-.45-.72-.81-.72-1.35,0-.27.09-.63.36-.99,7.2-12.51,11.88-22.05,16.47-35.28-3.51.54-6.39,1.08-8.82,1.53-2.34.45-3.78.99-4.95,1.44-1.26.45-2.34.27-2.88-1.17-.81-2.07-1.8-5.31-2.79-9.27,3.96,0,7.92-.27,11.88-.63,3.78-.36,7.11-.81,10.62-1.35,1.44-5.13,2.07-8.28,2.7-11.34Zm36.63,6.03c.63-.36,1.08-.18,1.71.45,6.12,5.76,11.61,13.23,14.94,21.87.36.81.27,1.26-.36,1.8-1.53,1.44-4.95,3.6-6.75,4.5-.9.45-1.8.36-2.07-.72-3.6-9.45-8.28-17.19-14.76-23.31,2.25-1.53,4.86-3.33,7.29-4.59Z"/><path class="cls-8" d="m985.41,366.25c3.6-2.97,7.47-4.59,10.98-4.59,9.72,0,12.15,8.37,13.14,17.01.72,6.57,1.8,9.54,5.22,9.54,3.24,0,5.94-1.62,8.46-4.32,3.15-3.33,6.84-8.55,9.09-14.67,1.8,4.05,3.6,5.85,5.22,7.47.72.63.99,1.26.99,1.89,0,.54-.09.99-.36,1.53-1.8,3.78-4.77,7.92-7.74,11.16-4.5,4.86-10.35,7.56-16.56,7.56-9.09,0-12.96-4.77-14.13-17.46-.81-9-2.79-11.61-5.94-11.61-3.87,0-7.74,2.88-11.34,7.65-3.24,4.32-7.02,11.7-10.53,19.98-.54,1.26-.99,1.44-2.16,1.08-2.43-.99-4.86-2.25-6.93-3.87-.54-.36-.81-.81-.81-1.17s.18-.81.45-1.26c13.14-25.74,21.42-42.93,26.37-54.18,2.61-5.94,3.78-9.09,4.5-13.14,4.23,1.71,7.65,3.33,10.08,5.04.81.54,1.26,1.17,1.26,1.89,0,.54-.36,1.17-.99,1.8-1.08,1.17-1.98,2.52-2.79,3.87-5.76,11.07-10.62,20.52-15.57,28.62l.09.18Z"/><path class="cls-8" d="m1094.85,380.47c0,8.28,3.6,11.52,11.97,11.52,10.53,0,16.38-4.05,16.38-12.15,0-5.04-1.26-9.18-8.1-16.38,3.6.45,5.58,0,9.18-.54.63-.18,1.35-.09,1.89.36,4.95,4.68,7.65,10.8,7.65,16.92,0,12.78-10.44,21.06-25.92,21.06s-22.68-7.2-22.68-20.34c0-1.89.27-4.41.63-8.46-5.4-.81-9-1.62-12.24-2.7-.63-.18-.9-.63-.99-1.71-.27-2.79-.36-5.58-.18-8.37,5.4,1.98,9.45,2.97,14.58,3.51.45-3.33,1.17-9.18,1.53-12.87-6.3-.81-9.54-1.35-12.96-2.52-1.08-.27-1.44-.72-1.44-1.53-.09-2.16-.27-5.13-.27-8.37,6.12,1.98,10.44,2.79,16.29,3.42.72-5.22.99-7.65,1.17-10.35.18-2.52.18-5.13-.09-7.56,4.14.54,8.82,1.71,10.8,2.52,1.26.45,1.98,1.26,1.98,2.07,0,.63-.27,1.17-.72,1.71-.63.63-1.08,1.8-1.62,3.87-.45,2.07-.99,5.13-1.44,8.46,3.6.27,7.29,0,11.07-.54.63,0,.9.45.9,1.08.09,2.16.09,4.68-.18,6.75,0,.99-.36,1.26-1.44,1.35-3.96.45-8.01.54-11.97.45-.54,3.15-1.44,9.27-1.98,12.87,4.77.09,8.46,0,12.78-.27,1.17-.18,1.44.18,1.44.99,0,1.62-.18,4.86-.45,6.75-.09,1.08-.36,1.44-1.26,1.44-4.5.36-9.18.36-13.77.27-.45,3.51-.54,5.67-.54,7.29Z"/><path class="cls-8" d="m1214.82,330.34c.45.36.72,1.08.72,1.44,0,.81-.45,1.35-1.26,1.71-1.08.54-2.43,1.35-4.32,3.15-7.74,6.93-17.64,16.2-24.57,23.4-.81.99-1.17,1.53-1.17,1.98,0,.54.36.99,1.17,1.62,11.7,8.46,23.85,18.27,33.48,28.35.36.45.63.81.63,1.17s-.18.63-.63,1.08c-2.07,2.25-4.68,4.86-6.21,6.21-.54.45-.9.72-1.26.72s-.63-.27-1.08-.81c-10.44-11.7-20.52-21.06-32.76-30.42-3.42-2.61-4.77-4.59-4.77-7.56s1.62-4.95,4.41-7.92c7.65-8.28,15.12-15.75,22.86-24.21,2.43-2.61,3.78-4.5,4.86-6.75,3.96,2.34,7.38,4.68,9.9,6.84Z"/><path class="cls-8" d="m706.86,467.62h-31.41c-6.12,0-10.35.18-13.5.54-.99,0-1.35-.45-1.35-1.53-.27-2.43-.45-6.66-.45-9.63,5.4.54,8.55.63,15.03.63h26.73c4.68,0,9.45-.18,14.22-.36,1.44,0,1.89.36,1.8,1.53,0,4.77-.18,9.45-.18,14.22v21.51c0,6.57.27,13.77.36,16.29,0,.9-.36,1.17-1.62,1.26-2.52.18-5.4.18-7.92,0-1.44-.09-1.71-.18-1.71-1.53v-3.6h-30.96c-5.67,0-10.44.27-14.76.36-.81,0-1.17-.36-1.26-1.35-.27-2.34-.45-5.58-.45-9.36,4.23.27,9.45.45,16.56.45h30.87v-29.43Z"/><path class="cls-8" d="m771.57,496.69c.45-.81.99-1.35,2.52-1.08,13.68,2.07,28.71,7.02,43.11,14.04.99.45,1.53,1.17.9,2.43-1.08,2.61-2.34,5.13-3.6,7.38-.45.72-.81,1.08-1.35,1.08-.36,0-.81-.18-1.26-.45-14.58-7.38-28.89-11.97-44.46-14.94,1.17-2.79,2.97-6.39,4.14-8.46Zm1.17-26.82c.45-.99.99-1.26,2.34-.9,9.54,2.07,19.89,5.22,27.45,8.73,1.44.63,1.62,1.26,1.17,2.61-.54,1.71-2.07,5.22-2.97,6.93-.45.81-.81,1.17-1.26,1.17-.36,0-.72-.09-1.17-.36-9.63-4.59-19.17-7.38-29.43-9.63,1.44-3.6,2.97-6.93,3.87-8.55Zm5.94-23.49c.72-1.44,1.17-1.44,2.43-1.17,9.54,1.8,23.13,5.49,32.04,9.45,1.44.63,1.62,1.08,1.08,2.25-.63,2.16-2.25,5.85-3.15,7.83-.45,1.08-1.26,1.08-2.16.63-10.53-4.77-22.5-8.28-34.02-10.35,1.08-2.61,3.06-7.2,3.78-8.64Z"/><path class="cls-8" d="m908.55,504.97c3.6,0,7.56-.09,10.98-.09,1.53-.09,1.89.18,1.98,1.62.09,1.71.09,3.96,0,5.67s-.36,1.8-1.71,1.8c-4.05,0-8.37-.09-12.51-.09h-33.12c-3.69,0-7.2,0-11.61.18-.99,0-1.35-.45-1.53-1.8-.36-1.89-.45-4.77-.45-7.56,5.13.36,8.46.36,12.96.36h20.88l3.06-21.87h-14.49c-3.51,0-7.56.18-9.9.27-1.08.09-1.44-.18-1.62-1.71-.27-1.89-.45-4.77-.63-7.74,6.03.27,8.73.45,12.51.45h12.42c3.24,0,4.05-.27,5.31-.81.36-.27.72-.36.99-.36.45,0,.9.27,1.35.54,1.62,1.17,4.05,3.15,5.49,4.95.54.54.81,1.08.81,1.62s-.27,1.08-.81,1.62c-1.17,1.26-1.44,2.25-1.8,4.5l-2.79,18.45h4.23Z"/><path class="cls-8" d="m974.25,507.58c-5.85,0-11.79.09-16.2.45-.9,0-1.17-.54-1.35-1.71-.36-2.07-.54-5.13-.81-9.9,6.48.45,12.96.54,18.63.54h32.76c9.99,0,16.11-.27,20.25-.45,1.17,0,1.44.45,1.44,1.62.18,2.52.18,5.31,0,7.83,0,1.35-.18,1.89-1.35,1.89-4.32-.18-13.59-.27-19.71-.27h-33.66Zm8.28-38.25c-5.67,0-9.63.18-13.77.36-.9,0-1.17-.54-1.26-1.89-.45-2.79-.54-5.85-.54-9.54,5.67.45,9.9.54,15.3.54h17.82c6.93,0,12.33-.27,16.2-.45.72,0,.99.45.99,1.53.18,2.61.18,5.4,0,8.01-.09,1.26-.27,1.71-1.17,1.71-4.23-.18-9.99-.27-15.75-.27h-17.82Z"/><path class="cls-8" d="m1102.68,479.77c-.54,10.08-1.8,16.11-5.31,22.95-3.6,7.02-10.08,13.59-15.84,17.01-.99.63-1.89,1.08-2.7,1.08-.63,0-1.26-.27-1.89-.9-1.8-1.8-4.86-3.6-8.01-4.77,8.82-4.77,14.13-9.18,17.91-16.02,3.33-5.94,4.23-10.8,4.59-19.35h-17.1c-4.5,0-8.91.27-13.5.54-.81.09-1.08-.54-1.17-1.71-.45-2.52-.72-5.94-.72-8.64,5.04.45,10.08.45,15.3.45h40.41c7.02,0,12.24-.18,17.55-.54.9,0,.99.54.99,1.8.09,1.17.09,5.76,0,6.93,0,1.17-.54,1.53-1.35,1.53-4.68-.18-10.89-.36-17.1-.36h-12.06Zm-17.82-20.88c-4.14,0-7.74.18-12.78.36-1.17,0-1.44-.45-1.53-1.53-.27-2.16-.36-5.4-.63-8.64,6.3.36,10.89.45,14.94.45h20.16c5.04,0,10.71-.09,15.21-.36.9,0,1.08.54,1.08,1.71.18,2.16.18,4.41,0,6.57,0,1.26-.18,1.71-1.17,1.71-4.86-.18-10.17-.27-15.12-.27h-20.16Z"/><path class="cls-8" d="m1204.02,504.79c0,4.32.18,10.08.27,14.67.09,1.08-.45,1.53-1.53,1.62-2.34.18-4.95.18-7.29,0-.99-.09-1.53-.54-1.44-1.62.09-5.13.27-9.63.27-14.4v-15.39c-6.12,5.13-14.04,10.62-18.63,12.96-.36.27-.81.36-1.17.36-.63,0-1.35-.36-1.8-.9-1.62-1.89-4.05-3.69-6.48-4.5,14.13-7.38,26.37-16.83,37.35-29.25,2.07-2.43,3.6-4.68,4.77-7.74,3.06,1.8,6.84,4.14,8.28,5.4.63.54.99,1.17.99,1.62,0,.63-.45,1.26-1.35,1.71-1.17.63-3.24,2.79-4.05,3.69-2.34,2.7-5.04,5.67-8.19,8.73v23.04Z"/><g class="cls-33"><g class="cls-35"><path class="cls-14" d="m526.01,374.63c-4.35-.89-7.71-2.06-10.34-3.48l-89.55-37.23c-.35-.19-.67-.42-.98-.67-34.51,4.19-58.47,13.38-58.47,24.06,0,14.63,44.99,26.48,100.48,26.48,28.68,0,54.55-3.17,72.85-8.24-.05,0-5.65.8-13.98-.91"/></g><g class="cls-36"><polygon class="cls-13" points="366.69 326.17 369.52 331.9 375.86 332.83 371.27 337.29 372.35 343.59 366.69 340.61 361.03 343.59 362.11 337.29 357.54 332.83 363.86 331.9 366.69 326.17"/><polygon class="cls-13" points="393.14 326.17 395.97 331.9 402.3 332.83 397.72 337.29 398.8 343.59 393.14 340.61 387.48 343.59 388.56 337.29 383.98 332.83 390.3 331.9 393.14 326.17"/><polygon class="cls-13" points="419.58 326.17 422.41 331.9 428.74 332.83 424.17 337.29 425.25 343.59 419.58 340.61 413.93 343.59 415 337.29 410.43 332.83 416.75 331.9 419.58 326.17"/><polygon class="cls-13" points="366.69 367.94 369.52 373.68 375.86 374.6 371.27 379.06 372.35 385.36 366.69 382.39 361.03 385.36 362.11 379.06 357.54 374.6 363.86 373.68 366.69 367.94"/><polygon class="cls-13" points="393.14 367.94 395.97 373.68 402.3 374.6 397.72 379.06 398.8 385.36 393.14 382.39 387.48 385.36 388.56 379.06 383.98 374.6 390.3 373.68 393.14 367.94"/><polygon class="cls-13" points="419.58 367.94 422.41 373.68 428.74 374.6 424.17 379.06 425.25 385.36 419.58 382.39 413.93 385.36 415 379.06 410.43 374.6 416.75 373.68 419.58 367.94"/><polygon class="cls-13" points="446.03 326.17 448.86 331.9 455.19 332.83 450.61 337.29 451.69 343.59 446.03 340.61 440.37 343.59 441.44 337.29 436.87 332.83 443.19 331.9 446.03 326.17"/><polygon class="cls-13" points="353.66 348.4 356.49 354.13 362.82 355.05 358.24 359.52 359.32 365.82 353.66 362.84 348 365.82 349.08 359.52 344.5 355.05 350.84 354.13 353.66 348.4"/><polygon class="cls-13" points="380.1 348.4 382.94 354.13 389.27 355.05 384.69 359.52 385.77 365.82 380.1 362.84 374.45 365.82 375.53 359.52 370.95 355.05 377.28 354.13 380.1 348.4"/><polygon class="cls-13" points="406.55 348.4 409.38 354.13 415.71 355.05 411.13 359.52 412.21 365.82 406.55 362.84 400.89 365.82 401.97 359.52 397.39 355.05 403.72 354.13 406.55 348.4"/><polygon class="cls-13" points="433 348.4 435.82 354.13 442.16 355.05 437.57 359.52 438.65 365.82 433 362.84 427.33 365.82 428.42 359.52 423.84 355.05 430.17 354.13 433 348.4"/><polygon class="cls-13" points="472.47 326.17 475.3 331.9 481.63 332.83 477.05 337.29 478.13 343.59 472.47 340.61 466.81 343.59 467.89 337.29 463.31 332.83 469.63 331.9 472.47 326.17"/><polygon class="cls-13" points="446.03 367.94 448.86 373.68 455.19 374.6 450.61 379.06 451.69 385.36 446.03 382.39 440.37 385.36 441.44 379.06 436.87 374.6 443.19 373.68 446.03 367.94"/><polygon class="cls-13" points="459.44 348.4 462.27 354.13 468.6 355.05 464.02 359.52 465.1 365.82 459.44 362.84 453.78 365.82 454.86 359.52 450.28 355.05 456.61 354.13 459.44 348.4"/><polygon class="cls-13" points="498.91 326.17 501.75 331.9 508.08 332.83 503.5 337.29 504.58 343.59 498.91 340.61 493.26 343.59 494.33 337.29 489.76 332.83 496.08 331.9 498.91 326.17"/><polygon class="cls-13" points="472.47 367.94 475.3 373.68 481.63 374.6 477.05 379.06 478.13 385.36 472.47 382.39 466.81 385.36 467.89 379.06 463.31 374.6 469.63 373.68 472.47 367.94"/><polygon class="cls-13" points="485.88 348.4 488.71 354.13 495.04 355.05 490.47 359.52 491.54 365.82 485.88 362.84 480.23 365.82 481.31 359.52 476.72 355.05 483.06 354.13 485.88 348.4"/><polygon class="cls-13" points="525.36 326.17 528.19 331.9 534.52 332.83 529.94 337.29 531.02 343.59 525.36 340.61 519.7 343.59 520.78 337.29 516.2 332.83 522.53 331.9 525.36 326.17"/><polygon class="cls-13" points="498.91 367.94 501.75 373.68 508.08 374.6 503.5 379.06 504.58 385.36 498.91 382.39 493.26 385.36 494.33 379.06 489.76 374.6 496.08 373.68 498.91 367.94"/><polygon class="cls-13" points="512.33 348.4 515.16 354.13 521.49 355.05 516.91 359.52 517.99 365.82 512.33 362.84 506.67 365.82 507.75 359.52 503.17 355.05 509.5 354.13 512.33 348.4"/><polygon class="cls-13" points="551.8 326.17 554.63 331.9 560.97 332.83 556.38 337.29 557.47 343.59 551.8 340.61 546.14 343.59 547.22 337.29 542.64 332.83 548.97 331.9 551.8 326.17"/><polygon class="cls-13" points="525.36 367.94 528.19 373.68 534.52 374.6 529.94 379.06 531.02 385.36 525.36 382.39 519.7 385.36 520.78 379.06 516.2 374.6 522.53 373.68 525.36 367.94"/><polygon class="cls-13" points="538.77 348.4 541.6 354.13 547.93 355.05 543.35 359.52 544.43 365.82 538.77 362.84 533.11 365.82 534.19 359.52 529.62 355.05 535.94 354.13 538.77 348.4"/><polygon class="cls-13" points="578.25 326.17 581.08 331.9 587.41 332.83 582.83 337.29 583.91 343.59 578.25 340.61 572.59 343.59 573.67 337.29 569.09 332.83 575.41 331.9 578.25 326.17"/><polygon class="cls-13" points="551.8 367.94 554.63 373.68 560.97 374.6 556.38 379.06 557.47 385.36 551.8 382.39 546.14 385.36 547.22 379.06 542.64 374.6 548.97 373.68 551.8 367.94"/><polygon class="cls-13" points="565.22 348.4 568.05 354.13 574.38 355.05 569.8 359.52 570.88 365.82 565.22 362.84 559.56 365.82 560.64 359.52 556.06 355.05 562.39 354.13 565.22 348.4"/></g><g class="cls-34"><path class="cls-20" d="m573.82,467.14v-98.96c-13.89,14.76-56.39,25.5-106.69,25.5s-92.79-10.74-106.68-25.5v98.96c-3.11,3.31-4.8,6.82-4.8,10.46,0,19.86,49.91,35.96,111.48,35.96s111.48-16.1,111.48-35.96c0-3.64-1.68-7.15-4.79-10.46"/><path class="cls-13" d="m414.67,407.43l4.35-19.24h-19.44l-3.56,27.48-33.44,14.78c-1.62,7.04-2.48,14.38-2.48,21.93,0,5.15.4,10.19,1.17,15.12l30.79-21.38-7.55,58.2h8.22l15.76-69.6,12.98-9.02-12.19,71.85h11.25l22.51-76.19-17.35-18.8-11.03,4.87Z"/><polygon class="cls-13" points="476.94 420.71 457.39 397.48 443.68 407.38 465.86 429.75 476.94 420.71"/><polygon class="cls-13" points="470.2 462.61 525.71 407.47 451.75 448.64 470.2 462.61"/><polygon class="cls-13" points="510.74 497 478.89 500.36 477.88 491.53 502.3 479.2 502.3 473.23 476.77 481.87 476.09 475.86 502.3 464.76 502.3 459.14 450.81 472.02 450.81 486.55 460.54 482.44 461.53 487.04 450.81 490.67 450.81 505.21 464 498.54 464.98 503.11 478.17 510.93 510.74 500.58 510.74 497"/><path class="cls-13" d="m573.91,419.92l-26.1-.24,9.24-11.91h-23.35l-31.23,51.49h17.21l17.01-20.95h25.61l-52.83,76.01,19.01-6.16,48.54-54.44c.17-2.42.26-4.86.26-7.32,0-9.16-1.19-18.03-3.38-26.48"/><polygon class="cls-10" points="404.61 519.39 395.49 547.83 369.43 542.06 371.29 533.68 375.8 534.68 375.28 537.01 390.98 540.48 396.34 523.95 374.55 519.13 375.9 513.04 404.61 519.39"/><path class="cls-10" d="m405.92,546.76l1.55-6.14,28.11,7.31-1.58,6.06-28.08-7.23Zm22.2-4.9l.27-2.37-18.62-2.24.68-5.99,23.2,2.76-.95,8.37-4.59-.52Zm-18.2-17.35l1.51-6.1,25.49,6.69-1.54,6.02-25.46-6.6Z"/><polygon class="cls-10" points="467.34 548.19 467.17 553.54 441.29 552.74 441.5 545.77 445.5 545.9 445.45 547.51 457.03 547.87 459.23 535.43 445.73 535.01 445.89 529.82 465.66 530.43 462.57 548.05 467.34 548.19"/><path class="cls-10" d="m506.66,549.92l-33.73,4.24-1.09-9.27,4.6-.5.34,2.94,29.1-3.65.78,6.25Zm-31.08-18.35l-.3-6.31,26.01-1.24.3,6.31-26.01,1.24Z"/><path class="cls-10" d="m508.8,537.49l-.87-6.14,32.56-4.64.87,6.13-11.71,1.67c1.67,7.41-1.79,15.02-3.41,18.28l-8.67-4,2.01-4.01,2.63,1.26c.71-1.94,1.92-6.62.82-10.59l-14.23,2.03Zm28.25-13.89l-26.7,3.81-.88-6.17,26.7-3.81.88,6.17Z"/><path class="cls-10" d="m561.13,514.63l7.28,1.59c-.64,2.91-1.66,7.14-5.79,11.62l3.95,15.39-5.51,1.42-3.26-12.71c-2.22,1.56-5.2,3.12-11.42,5.2l-1.71-5.12c13.03-4.34,16.47-10.74,17.43-13.18l-1.87-.47.91-3.73Z"/><polygon class="cls-10" points="438.3 406.67 460.47 429.04 471.56 420.01 452 396.78 438.3 406.67"/><polygon class="cls-10" points="446.36 447.94 520.33 406.76 464.82 461.9 446.36 447.94"/><polygon class="cls-10" points="473.01 498.53 472 489.71 496.42 477.37 496.42 471.41 470.89 480.05 470.2 474.03 496.42 462.94 496.42 457.31 444.93 470.19 444.93 484.73 454.66 480.61 455.65 485.21 444.93 488.84 444.93 503.38 458.12 496.71 459.1 501.29 472.29 509.11 504.86 498.75 504.86 495.17 473.01 498.53"/><path class="cls-16" d="m504.86,352.36c1.69,8.43,3.26,14.7,10.8,18.79l1.63.68,22.7,3.72c17.12-4.75,27.62-11.17,27.62-18.24,0-11.13-26.07-20.66-63-24.57-.52,7.11-.84,14.19.25,19.63"/><path class="cls-20" d="m505.28,323.93c-.21,2.86-.46,5.83-.67,8.8,36.93,3.92,63,13.44,63,24.57,0,7.07-10.5,13.49-27.62,18.24h0,0c-18.31,5.08-44.18,8.25-72.85,8.25-55.49,0-100.48-11.86-100.48-26.48,0-10.67,23.96-19.86,58.47-24.06-2.13-1.72-3.52-4.85-4.16-8.26-38.53,5.66-65.31,18.19-65.31,32.74,0,3.64,1.68,7.15,4.8,10.46,13.89,14.76,56.39,25.5,106.68,25.5s92.8-10.74,106.69-25.5c3.12-3.31,4.79-6.82,4.79-10.46,0-15.54-30.55-28.77-73.33-33.8"/><path class="cls-10" d="m467.14,385.95c-27.02,0-52.45-2.78-71.6-7.83-14.16-3.73-31.05-10.38-31.05-20.83,0-11.82,22.57-21.62,60.38-26.21l1.08-.14c1.19-.15,2.28.68,2.43,1.87.15,1.19-.68,2.28-1.87,2.43l-1.09.14c-38.88,4.72-56.58,14.66-56.58,21.9,0,11.5,40.37,24.31,98.3,24.31s98.31-12.81,98.31-24.31c0-7.68-19.11-17.97-61.06-22.41-1.19-.13-2.06-1.2-1.93-2.39.13-1.19,1.19-2.06,2.39-1.93,31.4,3.33,64.95,12.1,64.95,26.73,0,10.45-16.88,17.09-31.05,20.83-19.15,5.05-44.58,7.83-71.6,7.83"/><path class="cls-10" d="m578.02,465.56v-98.06c2.26-3.14,3.4-6.41,3.4-9.77,0-11.01-11.98-20.46-34.64-27.33-21-6.37-49.28-9.87-79.64-9.87s-58.64,3.51-79.64,9.87c-22.66,6.87-34.64,16.32-34.64,27.33,0,3.36,1.15,6.64,3.41,9.78,0,.04,0,.07,0,.1v97.95c-3.18,3.81-4.8,7.85-4.8,12.04,0,11.74,12.3,21.92,35.56,29.42,21.46,6.92,49.91,10.73,80.12,10.73s58.66-3.81,80.12-10.73c23.26-7.51,35.56-17.68,35.56-29.42,0-4.19-1.61-8.23-4.79-12.04m-188.89-129.8c20.48-6.21,48.19-9.63,78.01-9.63s57.53,3.42,78.01,9.63c19.49,5.91,30.66,13.92,30.66,21.97,0,2.82-1.36,5.7-4.03,8.54-13.64,14.49-56.67,24.62-104.64,24.62s-91-10.12-104.64-24.62c-2.68-2.85-4.03-5.72-4.03-8.54,0-8.05,11.18-16.06,30.66-21.97m-24.47,39.58c7.21,4.94,17.46,9.21,29.88,12.59l-3.31,25.52-26.57,12.04v-50.16Zm-4.8,102.26c0-2.45,1.23-5,3.66-7.58.03-.03.05-.06.07-.08.06-.06.11-.12.16-.19.04-.05.07-.09.11-.14.04-.06.09-.12.13-.19.03-.05.07-.11.1-.16.04-.06.07-.13.1-.19.03-.06.06-.12.08-.18.03-.07.06-.13.08-.2.02-.06.05-.12.07-.18.02-.07.04-.13.06-.2.02-.06.04-.13.05-.19.02-.07.03-.13.04-.2.01-.07.02-.14.03-.21,0-.06.02-.13.02-.19,0-.08,0-.16.01-.23,0-.04,0-.08,0-.12v-5.79l22.49-16.51-6.6,50.9c-13.21-5.48-20.69-11.96-20.69-18.15m28.81,21.15l14.94-65.98,13.12-9.63-12.19,71.85h11.25l22.51-76.19-17.36-18.81-11.06,5.01,2.94-13c16.24,2.89,34.78,4.5,54.31,4.5,44.41,0,83.74-8.31,102.49-21.15v40.55l-24-.22,9.24-11.91h-23.35l-31.24,51.49h17.22l17.01-20.95h25.61l-50.25,72.3c-12.85,1.75-27.21,2.76-42.74,2.76-32.25,0-59.51-4.36-78.48-10.62m138.02,5l42.95-48.17v11.57s0,.09,0,.13c0,.08,0,.15.01.23,0,.07.01.13.02.2,0,.07.02.14.03.21.01.07.03.14.04.2.02.07.03.13.05.19.02.07.04.13.06.2.02.06.04.13.07.19.03.06.05.13.08.19.03.06.06.12.09.18.03.06.07.12.1.18.03.06.07.12.1.17.04.06.08.12.12.18.04.05.07.1.11.15.05.06.1.12.15.18.03.03.05.06.08.09,2.42,2.57,3.65,5.13,3.65,7.58,0,9.63-18.1,19.96-47.74,26.14"/><path class="cls-16" d="m515.12,372.02c-27.91-10.99-55.55-22.75-83.74-33.09-31.89-11.71-13.29-45.31,7.94-58.27,22.75-13.89,64.85-17.45,78.49,7.45,13.53,24.7-14.42,45.81-10.23,70.7,1.62,9.62,5.93,13.87,16.25,15.88,8.37,1.63,13.99.87,13.99.87"/><path class="cls-10" d="m534.19,378.06c-2.59,0-6.32-.21-10.81-1.09-3.21-.62-5.91-1.47-8.18-2.62-.32.01-.63-.04-.95-.16-9.8-3.86-19.73-7.88-29.33-11.76-17.75-7.18-36.1-14.61-54.36-21.31-14.14-5.19-17.88-14.14-18.53-20.73-1.56-15.82,12.26-33.31,26.05-41.73,16.54-10.1,40.34-13.88,57.89-9.19,10.93,2.92,19.18,8.97,23.86,17.52,8.13,14.84,2.33,28.38-3.28,41.48-4.33,10.13-8.43,19.69-6.7,29.95,1.45,8.63,5.08,12.16,14.4,13.97,7.83,1.52,13.18.85,13.23.84,1.27-.16,2.45.73,2.62,2.01.17,1.28-.72,2.45-2,2.63-.12.02-1.54.2-3.94.2m-54.64-105.94c-13.39,0-27.93,3.75-39.01,10.52-12.76,7.79-25.16,23.86-23.84,37.28.75,7.65,5.96,13.31,15.49,16.8,18.33,6.73,36.72,14.17,54.5,21.37,6.8,2.75,13.77,5.57,20.74,8.35-.98-2.07-1.68-4.47-2.15-7.26-1.96-11.62,2.6-22.27,7.01-32.57,5.4-12.62,10.51-24.55,3.47-37.39-4.11-7.5-11.16-12.63-20.97-15.25-4.7-1.25-9.87-1.86-15.24-1.86"/><path class="cls-10" d="m368.86,305.77c-1.22,2.4-2.63,4.67-4.24,6.8l-3.51-3.33c1.34-1.79,2.69-4.24,4.06-7.35,1.37-2.98,2.36-5.75,2.97-8.31h-5.39v-4.61h6.12v-8.53h5.52v8.53h3.88v4.61h-3.88v1.51c1.16,2.28,2.86,4.43,5.11,6.44l-2.92,4.47c-.79-.94-1.52-1.84-2.19-2.69v18.12h-5.52v-15.65Zm34.91-14.01c0,7.24-1.76,13.59-5.29,19.03,1.73,1.52,4.11,3.07,7.12,4.66l-3.06,5.29c-3.17-1.73-5.77-3.6-7.8-5.61-2.65,2.56-5.8,4.58-9.45,6.07l-2.56-4.34c3.2-1.31,6.02-3.28,8.49-5.93-2.83-4.23-4.47-8.9-4.93-14.01l-.05-.41h-.87v.78c0,2.95-.14,5.6-.41,7.94-.76,6.51-2.51,11.68-5.25,15.52l-4.38-2.74c1.86-3.32,3.1-7.32,3.74-12,.4-3.19.59-5.72.59-7.58v-16.7h24.92v4.88h-19.03v5.16h18.21Zm-9.17,14.6c1.55-2.8,2.54-6.09,2.97-9.86h-6.21c.52,3.74,1.6,7.03,3.24,9.86"/><path class="cls-10" d="m532.52,306.59c-.91,1.95-1.99,3.83-3.24,5.66l-3.24-3.42c1.31-1.89,2.59-4.28,3.86-7.19,1.26-2.9,2.14-5.48,2.62-7.74v-.59h-4.47v-4.61h4.47v-8.44h5.75v8.44h2.78v4.61h-2.78v2.19c.52,1.13,1.34,2.39,2.46,3.79.7.82,1.4,1.64,2.1,2.46l-2.55,3.88c-.61-.61-1.28-1.49-2.01-2.65v18.48h-5.75v-14.88Zm24.69-21.36c-.28.67-.59,1.35-.96,2.05h13.14v3.88h-4.7c2.43,1.95,4.67,3.35,6.71,4.2l-2.87,4.47c-.79-.39-1.75-1-2.88-1.83v3.33h-20.22v-3.24c-.85.58-1.75,1.14-2.69,1.69l-2.6-4.02c2.22-1.22,4.38-2.75,6.48-4.61h-4.11v-3.88h7.76c.43-.58.81-1.16,1.14-1.73-2.4.09-4.53.14-6.39.14l-.59-3.88c2.65,0,6.13-.14,10.45-.41,5.14-.33,8.5-.73,10.09-1.19l1.83,3.88c-2.04.49-5.23.87-9.58,1.14m11.55,36.05l-5.25-.05v-14.24h-15.74v14.19h-5.3v-17.75h26.29v17.84Zm-7.53-2.92h-11.32v-9.36h11.32v9.36Zm-.59-22.41h-10.31v2.74h10.31v-2.74Zm-7.39-4.79c-.43.46-1.08,1.16-1.96,2.1h8.58c-.73-.73-1.35-1.43-1.87-2.1h-4.75Zm4.02,20.58h-3.47v3.79h3.47v-3.79Z"/></g></g></g></svg>