<?xml version="1.0" encoding="UTF-8"?><svg id="_レイヤー_2" xmlns="http://www.w3.org/2000/svg" xmlns:xlink="http://www.w3.org/1999/xlink" viewBox="0 0 1600 229"><defs><style>.cls-1{clip-path:url(#clippath);}.cls-2,.cls-3,.cls-4,.cls-5,.cls-6,.cls-7,.cls-8{fill:none;}.cls-2,.cls-9,.cls-10,.cls-11,.cls-12{stroke-width:0px;}.cls-13{clip-path:url(#clippath-1);}.cls-14{clip-path:url(#clippath-4);}.cls-15{clip-path:url(#clippath-3);}.cls-16{clip-path:url(#clippath-2);}.cls-17{clip-path:url(#clippath-6);}.cls-18{clip-path:url(#clippath-5);}.cls-3{stroke-dasharray:0 0 0 0 0 12.11 0 12.11;stroke-width:4.8px;}.cls-3,.cls-19,.cls-6{stroke:#ffe100;}.cls-3,.cls-4,.cls-8{stroke-linecap:round;stroke-linejoin:round;}.cls-19,.cls-20,.cls-21{fill:#fff;}.cls-19,.cls-20,.cls-21,.cls-5,.cls-6,.cls-7{stroke-miterlimit:10;}.cls-20,.cls-7{stroke:#ea6da4;}.cls-21,.cls-4,.cls-5{stroke:#00b8ee;}.cls-4{stroke-dasharray:0 0 0 0 0 12.11 0 12.11;}.cls-4,.cls-8{stroke-width:7px;}.cls-5,.cls-6,.cls-7{stroke-width:2px;}.cls-8{stroke:#e75297;stroke-dasharray:0 0 0 0 0 12.09 0 12.09;}.cls-9{fill:#ffe100;}.cls-10{fill:#ea6da4;}.cls-11{fill:#e75297;}.cls-12{fill:#00b8ee;}</style><clipPath id="clippath"><rect class="cls-2" width="1600" height="229"/></clipPath><clipPath id="clippath-1"><circle class="cls-2" cx="603.37" cy="164.12" r="96.97"/></clipPath><clipPath id="clippath-2"><circle class="cls-2" cx="1181.1" cy="312.36" r="96.97"/></clipPath><clipPath id="clippath-3"><path class="cls-2" d="m840.32,235.2l-43.12,15.42-35.8-28.53,1.34,45.76-38.2,25.24,43.94,12.86,12.2,44.14,25.82-37.82,45.74,2.04-27.99-36.24,16.07-42.87Zm0,0l-43.12,15.42-35.8-28.53,1.34,45.76-38.2,25.24,43.94,12.86,12.2,44.14,25.82-37.82,45.74,2.04-27.99-36.24,16.07-42.87Z"/></clipPath><clipPath id="clippath-4"><path class="cls-2" d="m506.4,1.23l-57.92-6.99-24.54-52.91-24.54,52.91-57.9,6.99,42.74,39.69-11.25,57.25,50.97-28.38,50.96,28.38-11.25-57.24L506.4,1.23Zm0,0l-57.92-6.99-24.54-52.91-24.54,52.91-57.9,6.99,42.74,39.69-11.25,57.25,50.97-28.38,50.96,28.38-11.25-57.24L506.4,1.23Z"/></clipPath><clipPath id="clippath-5"><circle class="cls-2" cx="1222.52" cy="39.76" r="96.97"/></clipPath><clipPath id="clippath-6"><path class="cls-2" d="m1389.05-8.59l-37.58-4.54-15.92-34.33-15.92,34.33-37.57,4.54,27.73,25.75-7.3,37.14,33.07-18.41,33.06,18.41-7.3-37.14,27.73-25.75Zm0,0l-37.58-4.54-15.92-34.33-15.92,34.33-37.57,4.54,27.73,25.75-7.3,37.14,33.07-18.41,33.06,18.41-7.3-37.14,27.73-25.75Z"/></clipPath></defs><g id="_素材書き出し用"><g class="cls-1"><g id="_下部装飾"><polygon class="cls-10" points="506.4 132.62 559.57 224.72 453.23 224.72 506.4 132.62"/><path class="cls-10" d="m1066.48,235.26l-32.33-27.44,6.3-41.92-36.08,22.26-37.92-18.95,10.03,41.19-29.75,30.22,42.28,3.2,19.54,37.62,16.1-39.23,41.82-6.96Zm0,0l-32.33-27.44,6.3-41.92-36.08,22.26-37.92-18.95,10.03,41.19-29.75,30.22,42.28,3.2,19.54,37.62,16.1-39.23,41.82-6.96Z"/><rect class="cls-12" x="241.9" y="254.86" width="364.11" height="37.15" rx="10.2" ry="10.2" transform="translate(360.9 -227.09) rotate(50)"/><rect class="cls-9" x="585.13" y="22.42" width="193.04" height="37.15" rx="10.2" ry="10.2" transform="translate(1230.18 -365.76) rotate(140)"/><rect class="cls-11" x="-131.76" y="-15.16" width="364.11" height="37.15" rx="10.2" ry="10.2" transform="translate(91.02 -26.29) rotate(140)"/><g class="cls-13"><circle class="cls-12" cx="493.88" cy="85.92" r="4.62"/><circle class="cls-12" cx="511.68" cy="85.92" r="4.62"/><circle class="cls-12" cx="529.48" cy="85.92" r="4.62"/><circle class="cls-12" cx="547.28" cy="85.92" r="4.62"/><circle class="cls-12" cx="565.08" cy="85.92" r="4.62"/><circle class="cls-12" cx="582.87" cy="85.92" r="4.62"/><circle class="cls-12" cx="600.67" cy="85.92" r="4.62"/><circle class="cls-12" cx="618.47" cy="85.92" r="4.62"/><circle class="cls-12" cx="636.27" cy="85.92" r="4.62"/><circle class="cls-12" cx="654.06" cy="85.92" r="4.62"/><circle class="cls-12" cx="671.86" cy="85.92" r="4.62"/><circle class="cls-12" cx="689.66" cy="85.92" r="4.62"/><circle class="cls-12" cx="707.46" cy="85.92" r="4.62"/><circle class="cls-12" cx="725.26" cy="85.92" r="4.62"/><circle class="cls-12" cx="485.13" cy="71.2" r="4.62"/><circle class="cls-12" cx="502.92" cy="71.2" r="4.62"/><circle class="cls-12" cx="520.72" cy="71.2" r="4.62"/><circle class="cls-12" cx="538.52" cy="71.2" r="4.62"/><circle class="cls-12" cx="556.32" cy="71.2" r="4.62"/><circle class="cls-12" cx="574.12" cy="71.2" r="4.62"/><circle class="cls-12" cx="591.91" cy="71.2" r="4.62"/><circle class="cls-12" cx="609.71" cy="71.2" r="4.62"/><circle class="cls-12" cx="627.51" cy="71.2" r="4.62"/><circle class="cls-12" cx="645.31" cy="71.2" r="4.62"/><circle class="cls-12" cx="663.11" cy="71.2" r="4.62"/><circle class="cls-12" cx="680.9" cy="71.2" r="4.62"/><circle class="cls-12" cx="698.7" cy="71.2" r="4.62"/><circle class="cls-12" cx="716.5" cy="71.2" r="4.62"/><circle class="cls-12" cx="493.88" cy="115.93" r="4.62"/><circle class="cls-12" cx="511.68" cy="115.93" r="4.62"/><circle class="cls-12" cx="529.48" cy="115.93" r="4.62"/><circle class="cls-12" cx="547.28" cy="115.93" r="4.62"/><circle class="cls-12" cx="565.08" cy="115.93" r="4.62"/><circle class="cls-12" cx="582.87" cy="115.93" r="4.62"/><circle class="cls-12" cx="600.67" cy="115.93" r="4.62"/><circle class="cls-12" cx="618.47" cy="115.93" r="4.62"/><circle class="cls-12" cx="636.27" cy="115.93" r="4.62"/><circle class="cls-12" cx="654.06" cy="115.93" r="4.62"/><circle class="cls-12" cx="671.86" cy="115.93" r="4.62"/><circle class="cls-12" cx="689.66" cy="115.93" r="4.62"/><circle class="cls-12" cx="707.46" cy="115.93" r="4.62"/><circle class="cls-12" cx="725.26" cy="115.93" r="4.62"/><circle class="cls-12" cx="485.13" cy="101.21" r="4.62"/><circle class="cls-12" cx="502.92" cy="101.21" r="4.62"/><circle class="cls-12" cx="520.72" cy="101.21" r="4.62"/><circle class="cls-12" cx="538.52" cy="101.21" r="4.62"/><circle class="cls-12" cx="556.32" cy="101.21" r="4.62"/><circle class="cls-12" cx="574.12" cy="101.21" r="4.62"/><circle class="cls-12" cx="591.91" cy="101.21" r="4.62"/><circle class="cls-12" cx="609.71" cy="101.21" r="4.62"/><circle class="cls-12" cx="627.51" cy="101.21" r="4.62"/><circle class="cls-12" cx="645.31" cy="101.21" r="4.62"/><circle class="cls-12" cx="663.11" cy="101.21" r="4.62"/><circle class="cls-12" cx="680.9" cy="101.21" r="4.62"/><circle class="cls-12" cx="698.7" cy="101.21" r="4.62"/><circle class="cls-12" cx="716.5" cy="101.21" r="4.62"/><circle class="cls-12" cx="493.88" cy="145.94" r="4.62"/><circle class="cls-12" cx="511.68" cy="145.94" r="4.62"/><circle class="cls-12" cx="529.48" cy="145.94" r="4.62"/><circle class="cls-12" cx="547.28" cy="145.94" r="4.62"/><circle class="cls-12" cx="565.08" cy="145.94" r="4.62"/><circle class="cls-12" cx="582.87" cy="145.94" r="4.62"/><circle class="cls-12" cx="600.67" cy="145.94" r="4.62"/><circle class="cls-12" cx="618.47" cy="145.94" r="4.62"/><circle class="cls-12" cx="636.27" cy="145.94" r="4.62"/><circle class="cls-12" cx="654.06" cy="145.94" r="4.62"/><circle class="cls-12" cx="671.86" cy="145.94" r="4.62"/><circle class="cls-12" cx="689.66" cy="145.94" r="4.62"/><circle class="cls-12" cx="707.46" cy="145.94" r="4.62"/><circle class="cls-12" cx="725.26" cy="145.94" r="4.62"/><circle class="cls-12" cx="485.13" cy="131.22" r="4.62"/><circle class="cls-12" cx="502.92" cy="131.22" r="4.62"/><circle class="cls-12" cx="520.72" cy="131.22" r="4.62"/><circle class="cls-12" cx="538.52" cy="131.22" r="4.62"/><circle class="cls-12" cx="556.32" cy="131.22" r="4.62"/><circle class="cls-12" cx="574.12" cy="131.22" r="4.62"/><circle class="cls-12" cx="591.91" cy="131.22" r="4.62"/><circle class="cls-12" cx="609.71" cy="131.22" r="4.62"/><circle class="cls-12" cx="627.51" cy="131.22" r="4.62"/><circle class="cls-12" cx="645.31" cy="131.22" r="4.62"/><circle class="cls-12" cx="663.11" cy="131.22" r="4.62"/><circle class="cls-12" cx="680.9" cy="131.22" r="4.62"/><circle class="cls-12" cx="698.7" cy="131.22" r="4.62"/><circle class="cls-12" cx="716.5" cy="131.22" r="4.62"/><circle class="cls-12" cx="493.88" cy="175.96" r="4.62"/><circle class="cls-12" cx="511.68" cy="175.96" r="4.62"/><circle class="cls-12" cx="529.48" cy="175.96" r="4.62"/><circle class="cls-12" cx="547.28" cy="175.96" r="4.62"/><circle class="cls-12" cx="565.08" cy="175.96" r="4.62"/><circle class="cls-12" cx="582.87" cy="175.96" r="4.62"/><circle class="cls-12" cx="600.67" cy="175.96" r="4.62"/><circle class="cls-12" cx="618.47" cy="175.96" r="4.62"/><circle class="cls-12" cx="636.27" cy="175.96" r="4.62"/><circle class="cls-12" cx="654.06" cy="175.96" r="4.62"/><circle class="cls-12" cx="671.86" cy="175.96" r="4.62"/><circle class="cls-12" cx="689.66" cy="175.96" r="4.62"/><circle class="cls-12" cx="707.46" cy="175.96" r="4.62"/><circle class="cls-12" cx="725.26" cy="175.96" r="4.62"/><circle class="cls-12" cx="485.13" cy="161.24" r="4.62"/><circle class="cls-12" cx="502.92" cy="161.24" r="4.62"/><circle class="cls-12" cx="520.72" cy="161.24" r="4.62"/><circle class="cls-12" cx="538.52" cy="161.24" r="4.62"/><circle class="cls-12" cx="556.32" cy="161.24" r="4.62"/><circle class="cls-12" cx="574.12" cy="161.24" r="4.62"/><circle class="cls-12" cx="591.91" cy="161.24" r="4.62"/><circle class="cls-12" cx="609.71" cy="161.24" r="4.62"/><circle class="cls-12" cx="627.51" cy="161.24" r="4.62"/><circle class="cls-12" cx="645.31" cy="161.24" r="4.62"/><circle class="cls-12" cx="663.11" cy="161.24" r="4.62"/><circle class="cls-12" cx="680.9" cy="161.24" r="4.62"/><circle class="cls-12" cx="698.7" cy="161.24" r="4.62"/><circle class="cls-12" cx="716.5" cy="161.24" r="4.62"/><circle class="cls-12" cx="493.88" cy="205.97" r="4.62"/><circle class="cls-12" cx="511.68" cy="205.97" r="4.62"/><circle class="cls-12" cx="529.48" cy="205.97" r="4.62"/><circle class="cls-12" cx="547.28" cy="205.97" r="4.62"/><circle class="cls-12" cx="565.08" cy="205.97" r="4.62"/><circle class="cls-12" cx="582.87" cy="205.97" r="4.62"/><circle class="cls-12" cx="600.67" cy="205.97" r="4.62"/><circle class="cls-12" cx="618.47" cy="205.97" r="4.62"/><circle class="cls-12" cx="636.27" cy="205.97" r="4.62"/><circle class="cls-12" cx="654.06" cy="205.97" r="4.62"/><circle class="cls-12" cx="671.86" cy="205.97" r="4.62"/><circle class="cls-12" cx="689.66" cy="205.97" r="4.62"/><circle class="cls-12" cx="707.46" cy="205.97" r="4.62"/><circle class="cls-12" cx="725.26" cy="205.97" r="4.62"/><circle class="cls-12" cx="485.13" cy="191.25" r="4.62"/><circle class="cls-12" cx="502.92" cy="191.25" r="4.62"/><circle class="cls-12" cx="520.72" cy="191.25" r="4.62"/><circle class="cls-12" cx="538.52" cy="191.25" r="4.62"/><circle class="cls-12" cx="556.32" cy="191.25" r="4.62"/><circle class="cls-12" cx="574.12" cy="191.25" r="4.62"/><circle class="cls-12" cx="591.91" cy="191.25" r="4.62"/><circle class="cls-12" cx="609.71" cy="191.25" r="4.62"/><circle class="cls-12" cx="627.51" cy="191.25" r="4.62"/><circle class="cls-12" cx="645.31" cy="191.25" r="4.62"/><circle class="cls-12" cx="663.11" cy="191.25" r="4.62"/><circle class="cls-12" cx="680.9" cy="191.25" r="4.62"/><circle class="cls-12" cx="698.7" cy="191.25" r="4.62"/><circle class="cls-12" cx="716.5" cy="191.25" r="4.62"/><circle class="cls-12" cx="485.13" cy="221.26" r="4.62"/><circle class="cls-12" cx="502.92" cy="221.26" r="4.62"/><circle class="cls-12" cx="520.72" cy="221.26" r="4.62"/><circle class="cls-12" cx="538.52" cy="221.26" r="4.62"/><circle class="cls-12" cx="556.32" cy="221.26" r="4.62"/><circle class="cls-12" cx="574.12" cy="221.26" r="4.62"/><circle class="cls-12" cx="591.91" cy="221.26" r="4.62"/><circle class="cls-12" cx="609.71" cy="221.26" r="4.62"/><circle class="cls-12" cx="627.51" cy="221.26" r="4.62"/><circle class="cls-12" cx="645.31" cy="221.26" r="4.62"/><circle class="cls-12" cx="663.11" cy="221.26" r="4.62"/><circle class="cls-12" cx="680.9" cy="221.26" r="4.62"/><circle class="cls-12" cx="698.7" cy="221.26" r="4.62"/><circle class="cls-12" cx="716.5" cy="221.26" r="4.62"/></g><g class="cls-16"><circle class="cls-11" cx="1062.86" cy="219.44" r="4.62"/><circle class="cls-11" cx="1080.65" cy="219.44" r="4.62"/><circle class="cls-11" cx="1098.45" cy="219.44" r="4.62"/><circle class="cls-11" cx="1116.25" cy="219.44" r="4.62"/><circle class="cls-11" cx="1134.05" cy="219.44" r="4.62"/><circle class="cls-11" cx="1151.84" cy="219.44" r="4.62"/><circle class="cls-11" cx="1169.64" cy="219.44" r="4.62"/><circle class="cls-11" cx="1187.44" cy="219.44" r="4.62"/><circle class="cls-11" cx="1205.24" cy="219.44" r="4.62"/><circle class="cls-11" cx="1223.04" cy="219.44" r="4.62"/><circle class="cls-11" cx="1240.83" cy="219.44" r="4.62"/><circle class="cls-11" cx="1258.63" cy="219.44" r="4.62"/><circle class="cls-11" cx="1276.43" cy="219.44" r="4.62"/><circle class="cls-11" cx="1294.23" cy="219.44" r="4.62"/></g><circle class="cls-3" cx="880.67" cy="183.19" r="92.51" transform="translate(635.52 1048.66) rotate(-85.93)"/><circle class="cls-4" cx="1496.62" cy="167.11" r="88.64" transform="translate(1223.83 1648.12) rotate(-85.93)"/><circle class="cls-8" cx="230.24" cy="164.12" r="123.13"/><polygon class="cls-12" points="933.02 54.09 882.13 142.24 831.23 54.09 933.02 54.09"/><g class="cls-15"><rect class="cls-21" x="407.7" y="46.23" width="1.71" height="730.12" transform="translate(150.58 -107.86) rotate(18.39)"/><polyline class="cls-21" points="518.15 63.02 288.3 756.02 286.68 755.48 516.53 62.48"/><polyline class="cls-21" points="530.42 67.1 300.57 760.1 298.95 759.56 528.8 66.56"/><polyline class="cls-21" points="536.55 69.14 306.71 762.14 305.09 761.6 534.93 68.6"/><polyline class="cls-21" points="542.69 71.17 312.84 764.18 311.22 763.64 541.07 70.64"/><polyline class="cls-21" points="548.82 73.21 318.97 766.21 317.36 765.68 547.2 72.68"/><polyline class="cls-21" points="554.96 75.25 325.11 768.25 323.49 767.72 553.34 74.71"/><polyline class="cls-21" points="561.09 77.29 331.24 770.29 329.62 769.75 559.47 76.75"/><polyline class="cls-21" points="567.22 79.33 337.38 772.33 335.76 771.79 565.61 78.79"/><polyline class="cls-21" points="573.36 81.37 343.51 774.37 341.89 773.83 571.74 80.83"/><polyline class="cls-21" points="579.49 83.41 349.65 776.41 348.03 775.87 577.87 82.87"/><polyline class="cls-21" points="585.63 85.45 355.78 778.45 354.16 777.91 584.01 84.91"/><polyline class="cls-21" points="591.76 87.49 361.92 780.49 360.3 779.95 590.14 86.95"/><polyline class="cls-21" points="597.9 89.53 368.05 782.53 366.43 781.99 596.28 88.99"/><polyline class="cls-21" points="604.03 91.57 374.18 784.57 372.57 784.03 602.41 91.03"/><polyline class="cls-21" points="610.17 93.6 380.32 786.6 378.7 786.07 608.55 93.07"/><polyline class="cls-21" points="616.3 95.64 386.45 788.64 384.84 788.11 614.68 95.11"/><polyline class="cls-21" points="622.43 97.68 392.59 790.68 390.97 790.14 620.82 97.14"/><polyline class="cls-21" points="628.57 99.72 398.72 792.72 397.1 792.18 626.95 99.18"/><polyline class="cls-21" points="634.7 101.76 404.86 794.76 403.24 794.22 633.09 101.22"/><polyline class="cls-21" points="640.84 103.8 410.99 796.8 409.37 796.26 639.22 103.26"/><polyline class="cls-21" points="646.97 105.84 417.13 798.84 415.51 798.3 645.35 105.3"/><polyline class="cls-21" points="653.11 107.88 423.26 800.88 421.64 800.34 651.49 107.34"/><polyline class="cls-21" points="659.24 109.92 429.4 802.92 427.78 802.38 657.62 109.38"/><polyline class="cls-21" points="665.38 111.96 435.53 804.96 433.91 804.42 663.76 111.42"/><polyline class="cls-21" points="671.51 114 441.66 807 440.05 806.46 669.89 113.46"/><polyline class="cls-21" points="677.65 116.03 447.8 809.03 446.18 808.5 676.03 115.5"/><polyline class="cls-21" points="683.78 118.07 453.93 811.07 452.31 810.54 682.16 117.54"/><polyline class="cls-21" points="689.91 120.11 460.07 813.11 458.45 812.57 688.3 119.57"/><polyline class="cls-21" points="696.05 122.15 466.2 815.15 464.58 814.61 694.43 121.61"/><polyline class="cls-21" points="702.18 124.19 472.34 817.19 470.72 816.65 700.56 123.65"/><polyline class="cls-21" points="708.32 126.23 478.47 819.23 476.85 818.69 706.7 125.69"/><polyline class="cls-21" points="714.45 128.27 484.61 821.27 482.99 820.73 712.83 127.73"/><polyline class="cls-21" points="720.59 130.31 490.74 823.31 489.12 822.77 718.97 129.77"/><polyline class="cls-21" points="726.72 132.35 496.88 825.35 495.26 824.81 725.1 131.81"/><polyline class="cls-21" points="732.86 134.39 503.01 827.39 501.39 826.85 731.24 133.85"/><polyline class="cls-21" points="738.99 136.42 509.14 829.43 507.53 828.89 737.37 135.89"/><polyline class="cls-21" points="745.13 138.46 515.28 831.46 513.66 830.93 743.51 137.93"/><polyline class="cls-21" points="751.26 140.5 521.41 833.5 519.79 832.97 749.64 139.97"/><polyline class="cls-21" points="757.39 142.54 527.55 835.54 525.93 835 755.78 142"/><polyline class="cls-21" points="763.53 144.58 533.68 837.58 532.06 837.04 761.91 144.04"/><polyline class="cls-21" points="769.66 146.62 539.82 839.62 538.2 839.08 768.04 146.08"/><polyline class="cls-21" points="775.8 148.66 545.95 841.66 544.33 841.12 774.18 148.12"/><polyline class="cls-21" points="781.93 150.7 552.09 843.7 550.47 843.16 780.31 150.16"/><polyline class="cls-21" points="788.07 152.74 558.22 845.74 556.6 845.2 786.45 152.2"/><polyline class="cls-21" points="794.2 154.78 564.35 847.78 562.74 847.24 792.58 154.24"/><polyline class="cls-21" points="800.34 156.82 570.49 849.82 568.87 849.28 798.72 156.28"/><polyline class="cls-21" points="806.47 158.85 576.62 851.86 575 851.32 804.85 158.32"/><polyline class="cls-21" points="812.6 160.89 582.76 853.89 581.14 853.36 810.99 160.36"/><polyline class="cls-21" points="818.74 162.93 588.89 855.93 587.27 855.4 817.12 162.39"/><polyline class="cls-21" points="824.87 164.97 595.03 857.97 593.41 857.43 823.25 164.43"/><polyline class="cls-21" points="831.01 167.01 601.16 860.01 599.54 859.47 829.39 166.47"/><polyline class="cls-21" points="837.14 169.05 607.3 862.05 605.68 861.51 835.52 168.51"/><polyline class="cls-21" points="843.28 171.09 613.43 864.09 611.81 863.55 841.66 170.55"/><polyline class="cls-21" points="849.41 173.13 619.57 866.13 617.95 865.59 847.79 172.59"/><polyline class="cls-21" points="855.55 175.17 625.7 868.17 624.08 867.63 853.93 174.63"/><polyline class="cls-21" points="861.68 177.21 631.83 870.21 630.22 869.67 860.06 176.67"/><polyline class="cls-21" points="867.82 179.25 637.97 872.25 636.35 871.71 866.2 178.71"/><polyline class="cls-21" points="873.95 181.28 644.1 874.29 642.48 873.75 872.33 180.75"/><polyline class="cls-21" points="880.08 183.32 650.24 876.32 648.62 875.79 878.47 182.79"/><polyline class="cls-21" points="886.22 185.36 656.37 878.36 654.75 877.83 884.6 184.82"/><polyline class="cls-21" points="892.35 187.4 662.51 880.4 660.89 879.86 890.73 186.86"/><polyline class="cls-21" points="898.49 189.44 668.64 882.44 667.02 881.9 896.87 188.9"/><polyline class="cls-21" points="904.62 191.48 674.78 884.48 673.16 883.94 903 190.94"/><polyline class="cls-21" points="910.76 193.52 680.91 886.52 679.29 885.98 909.14 192.98"/><polyline class="cls-21" points="916.89 195.56 687.04 888.56 685.43 888.02 915.27 195.02"/><polyline class="cls-21" points="923.03 197.6 693.18 890.6 691.56 890.06 921.41 197.06"/><polyline class="cls-21" points="929.16 199.64 699.31 892.64 697.7 892.1 927.54 199.1"/><polyline class="cls-21" points="935.29 201.68 705.45 894.68 703.83 894.14 933.68 201.14"/><polyline class="cls-21" points="941.43 203.71 711.58 896.71 709.96 896.18 939.81 203.18"/><polyline class="cls-21" points="947.56 205.75 717.72 898.75 716.1 898.22 945.95 205.22"/><polyline class="cls-21" points="953.7 207.79 723.85 900.79 722.23 900.26 952.08 207.25"/><polyline class="cls-21" points="959.83 209.83 729.99 902.83 728.37 902.29 958.21 209.29"/><polyline class="cls-21" points="965.97 211.87 736.12 904.87 734.5 904.33 964.35 211.33"/><polyline class="cls-21" points="972.1 213.91 742.26 906.91 740.64 906.37 970.48 213.37"/><polyline class="cls-21" points="978.24 215.95 748.39 908.95 746.77 908.41 976.62 215.41"/><polyline class="cls-21" points="984.37 217.99 754.52 910.99 752.91 910.45 982.75 217.45"/><polyline class="cls-21" points="990.51 220.03 760.66 913.03 759.04 912.49 988.89 219.49"/><polyline class="cls-21" points="996.64 222.07 766.79 915.07 765.17 914.53 995.02 221.53"/><polyline class="cls-21" points="1002.77 224.1 772.93 917.11 771.31 916.57 1001.16 223.57"/><polyline class="cls-21" points="1008.91 226.14 779.06 919.14 777.44 918.61 1007.29 225.61"/><polyline class="cls-21" points="1015.04 228.18 785.2 921.18 783.58 920.65 1013.42 227.65"/></g><path class="cls-12" d="m135.57,151.92l-36.33,26.02-41.24-17.19,13.51,42.58-29.09,33.91,44.67.3,23.27,38.15,14.1-42.4,43.47-10.34-35.97-26.51,3.61-44.53Zm0,0l-36.33,26.02-41.24-17.19,13.51,42.58-29.09,33.91,44.67.3,23.27,38.15,14.1-42.4,43.47-10.34-35.97-26.51,3.61-44.53Z"/><path class="cls-5" d="m1527.9-62.13l-29.38,8.47-22.66-20.51-1.02,30.55-26.51,15.22,28.74,10.41,6.28,29.92,18.79-24.12,30.39,3.27-17.14-25.32,12.5-27.89Zm0,0l-29.38,8.47-22.66-20.51-1.02,30.55-26.51,15.22,28.74,10.41,6.28,29.92,18.79-24.12,30.39,3.27-17.14-25.32,12.5-27.89Z"/><polygon class="cls-9" points="237.59 18.68 183.98 99.88 140.47 12.85 237.59 18.68"/><g class="cls-14"><rect class="cls-19" x="-86.99" y="-509.18" width="2.17" height="930.15" transform="translate(-56.26 47.8) rotate(44.95)"/><polyline class="cls-19" points="237.39 -378.51 -419.32 280.2 -420.86 278.67 235.85 -380.04"/><polyline class="cls-19" points="249.05 -366.87 -407.66 291.84 -409.2 290.3 247.51 -368.41"/><polyline class="cls-19" points="254.88 -361.05 -401.83 297.66 -403.37 296.12 253.34 -362.59"/><polyline class="cls-19" points="260.71 -355.24 -396.01 303.48 -397.54 301.94 259.17 -356.77"/><polyline class="cls-19" points="266.54 -349.42 -390.18 309.29 -391.72 307.76 265 -350.95"/><polyline class="cls-19" points="272.36 -343.6 -384.35 315.11 -385.89 313.58 270.83 -345.13"/><polyline class="cls-19" points="278.19 -337.78 -378.52 320.93 -380.06 319.4 276.65 -339.32"/><polyline class="cls-19" points="284.02 -331.96 -372.69 326.75 -374.23 325.21 282.48 -333.5"/><polyline class="cls-19" points="289.85 -326.14 -366.86 332.57 -368.4 331.03 288.31 -327.68"/><polyline class="cls-19" points="295.68 -320.33 -361.04 338.39 -362.57 336.85 294.14 -321.86"/><polyline class="cls-19" points="301.51 -314.51 -355.21 344.2 -356.75 342.67 299.97 -316.04"/><polyline class="cls-19" points="307.33 -308.69 -349.38 350.02 -350.92 348.49 305.8 -310.22"/><polyline class="cls-19" points="313.16 -302.87 -343.55 355.84 -345.09 354.31 311.62 -304.41"/><polyline class="cls-19" points="318.99 -297.05 -337.72 361.66 -339.26 360.12 317.45 -298.59"/><polyline class="cls-19" points="324.82 -291.23 -331.89 367.48 -333.43 365.94 323.28 -292.77"/><polyline class="cls-19" points="330.65 -285.42 -326.07 373.3 -327.6 371.76 329.11 -286.95"/><polyline class="cls-19" points="336.48 -279.6 -320.24 379.11 -321.77 377.58 334.94 -281.13"/><polyline class="cls-19" points="342.3 -273.78 -314.41 384.93 -315.95 383.4 340.77 -275.31"/><polyline class="cls-19" points="348.13 -267.96 -308.58 390.75 -310.12 389.22 346.6 -269.5"/><polyline class="cls-19" points="353.96 -262.14 -302.75 396.57 -304.29 395.03 352.42 -263.68"/><polyline class="cls-19" points="359.79 -256.32 -296.92 402.39 -298.46 400.85 358.25 -257.86"/><polyline class="cls-19" points="365.62 -250.51 -291.09 408.21 -292.63 406.67 364.08 -252.04"/><polyline class="cls-19" points="371.45 -244.69 -285.27 414.02 -286.8 412.49 369.91 -246.22"/><polyline class="cls-19" points="377.28 -238.87 -279.44 419.84 -280.98 418.31 375.74 -240.4"/><polyline class="cls-19" points="383.1 -233.05 -273.61 425.66 -275.15 424.13 381.57 -234.59"/><polyline class="cls-19" points="388.93 -227.23 -267.78 431.48 -269.32 429.94 387.39 -228.77"/><polyline class="cls-19" points="394.76 -221.41 -261.95 437.3 -263.49 435.76 393.22 -222.95"/><polyline class="cls-19" points="400.59 -215.6 -256.12 443.12 -257.66 441.58 399.05 -217.13"/><polyline class="cls-19" points="406.42 -209.78 -250.3 448.93 -251.83 447.4 404.88 -211.31"/><polyline class="cls-19" points="412.25 -203.96 -244.47 454.75 -246.01 453.22 410.71 -205.49"/><polyline class="cls-19" points="418.07 -198.14 -238.64 460.57 -240.18 459.04 416.54 -199.68"/><polyline class="cls-19" points="423.9 -192.32 -232.81 466.39 -234.35 464.85 422.36 -193.86"/><polyline class="cls-19" points="429.73 -186.5 -226.98 472.21 -228.52 470.67 428.19 -188.04"/><polyline class="cls-19" points="435.56 -180.69 -221.15 478.03 -222.69 476.49 434.02 -182.22"/><polyline class="cls-19" points="441.39 -174.87 -215.32 483.84 -216.86 482.31 439.85 -176.4"/><polyline class="cls-19" points="447.22 -169.05 -209.5 489.66 -211.03 488.13 445.68 -170.58"/><polyline class="cls-19" points="453.05 -163.23 -203.67 495.48 -205.21 493.95 451.51 -164.77"/><polyline class="cls-19" points="458.87 -157.41 -197.84 501.3 -199.38 499.76 457.34 -158.95"/><polyline class="cls-19" points="464.7 -151.59 -192.01 507.12 -193.55 505.58 463.16 -153.13"/><polyline class="cls-19" points="470.53 -145.77 -186.18 512.94 -187.72 511.4 468.99 -147.31"/><polyline class="cls-19" points="476.36 -139.96 -180.35 518.76 -181.89 517.22 474.82 -141.49"/><polyline class="cls-19" points="482.19 -134.14 -174.53 524.57 -176.06 523.04 480.65 -135.67"/><polyline class="cls-19" points="488.02 -128.32 -168.7 530.39 -170.24 528.86 486.48 -129.86"/><polyline class="cls-19" points="493.84 -122.5 -162.87 536.21 -164.41 534.67 492.31 -124.04"/><polyline class="cls-19" points="499.67 -116.68 -157.04 542.03 -158.58 540.49 498.13 -118.22"/><polyline class="cls-19" points="505.5 -110.86 -151.21 547.85 -152.75 546.31 503.96 -112.4"/><polyline class="cls-19" points="511.33 -105.05 -145.38 553.67 -146.92 552.13 509.79 -106.58"/><polyline class="cls-19" points="517.16 -99.23 -139.56 559.48 -141.09 557.95 515.62 -100.76"/><polyline class="cls-19" points="522.99 -93.41 -133.73 565.3 -135.26 563.77 521.45 -94.94"/><polyline class="cls-19" points="528.81 -87.59 -127.9 571.12 -129.44 569.59 527.28 -89.13"/><polyline class="cls-19" points="534.64 -81.77 -122.07 576.94 -123.61 575.4 533.11 -83.31"/><polyline class="cls-19" points="540.47 -75.95 -116.24 582.76 -117.78 581.22 538.93 -77.49"/><polyline class="cls-19" points="546.3 -70.14 -110.41 588.58 -111.95 587.04 544.76 -71.67"/><polyline class="cls-19" points="552.13 -64.32 -104.58 594.39 -106.12 592.86 550.59 -65.85"/><polyline class="cls-19" points="557.96 -58.5 -98.76 600.21 -100.29 598.68 556.42 -60.03"/><polyline class="cls-19" points="563.79 -52.68 -92.93 606.03 -94.47 604.5 562.25 -54.22"/><polyline class="cls-19" points="569.61 -46.86 -87.1 611.85 -88.64 610.31 568.08 -48.4"/><polyline class="cls-19" points="575.44 -41.04 -81.27 617.67 -82.81 616.13 573.9 -42.58"/><polyline class="cls-19" points="581.27 -35.23 -75.44 623.49 -76.98 621.95 579.73 -36.76"/><polyline class="cls-19" points="587.1 -29.41 -69.61 629.3 -71.15 627.77 585.56 -30.94"/><polyline class="cls-19" points="592.93 -23.59 -63.79 635.12 -65.32 633.59 591.39 -25.12"/><polyline class="cls-19" points="598.76 -17.77 -57.96 640.94 -59.49 639.41 597.22 -19.31"/><polyline class="cls-19" points="604.58 -11.95 -52.13 646.76 -53.67 645.22 603.05 -13.49"/><polyline class="cls-19" points="610.41 -6.13 -46.3 652.58 -47.84 651.04 608.88 -7.67"/><polyline class="cls-19" points="616.24 -.32 -40.47 658.4 -42.01 656.86 614.7 -1.85"/><polyline class="cls-19" points="622.07 5.5 -34.64 664.21 -36.18 662.68 620.53 3.97"/><polyline class="cls-19" points="627.9 11.32 -28.81 670.03 -30.35 668.5 626.36 9.79"/><polyline class="cls-19" points="633.73 17.14 -22.99 675.85 -24.52 674.32 632.19 15.6"/><polyline class="cls-19" points="639.56 22.96 -17.16 681.67 -18.7 680.13 638.02 21.42"/><polyline class="cls-19" points="645.38 28.78 -11.33 687.49 -12.87 685.95 643.85 27.24"/><polyline class="cls-19" points="651.21 34.59 -5.5 693.31 -7.04 691.77 649.67 33.06"/><polyline class="cls-19" points="657.04 40.41 .33 699.12 -1.21 697.59 655.5 38.88"/><polyline class="cls-19" points="662.87 46.23 6.16 704.94 4.62 703.41 661.33 44.7"/><polyline class="cls-19" points="668.7 52.05 11.98 710.76 10.45 709.23 667.16 50.51"/><polyline class="cls-19" points="674.53 57.87 17.81 716.58 16.27 715.04 672.99 56.33"/><polyline class="cls-19" points="680.35 63.69 23.64 722.4 22.1 720.86 678.82 62.15"/><polyline class="cls-19" points="686.18 69.5 29.47 728.22 27.93 726.68 684.64 67.97"/><polyline class="cls-19" points="692.01 75.32 35.3 734.03 33.76 732.5 690.47 73.79"/><polyline class="cls-19" points="697.84 81.14 41.13 739.85 39.59 738.32 696.3 79.61"/><polyline class="cls-19" points="703.67 86.96 46.96 745.67 45.42 744.14 702.13 85.42"/><polyline class="cls-19" points="709.5 92.78 52.78 751.49 51.25 749.95 707.96 91.24"/><polyline class="cls-19" points="715.33 98.6 58.61 757.31 57.07 755.77 713.79 97.06"/><polyline class="cls-19" points="721.15 104.41 64.44 763.13 62.9 761.59 719.62 102.88"/><polyline class="cls-19" points="726.98 110.23 70.27 768.94 68.73 767.41 725.44 108.7"/></g><path class="cls-7" d="m838.23-11.76l-35.25-26.45,3.93-43.89-36.04,25.35-40.52-17.3,12.97,42.11-28.98,33.2,44.06.68,22.62,37.81,14.26-41.7,42.95-9.82Zm0,0l-35.25-26.45,3.93-43.89-36.04,25.35-40.52-17.3,12.97,42.11-28.98,33.2,44.06.68,22.62,37.81,14.26-41.7,42.95-9.82Z"/><rect class="cls-12" x="1027.92" y="133.34" width="364.11" height="37.15" rx="10.2" ry="10.2" transform="translate(2107.28 -673.87) rotate(130.22)"/><g class="cls-18"><circle class="cls-9" cx="1113.04" cy="21.58" r="4.62"/><circle class="cls-9" cx="1130.84" cy="21.58" r="4.62"/><circle class="cls-9" cx="1148.64" cy="21.58" r="4.62"/><circle class="cls-9" cx="1166.43" cy="21.58" r="4.62"/><circle class="cls-9" cx="1184.23" cy="21.58" r="4.62"/><circle class="cls-9" cx="1202.03" cy="21.58" r="4.62"/><circle class="cls-9" cx="1219.83" cy="21.58" r="4.62"/><circle class="cls-9" cx="1237.63" cy="21.58" r="4.62"/><circle class="cls-9" cx="1255.42" cy="21.58" r="4.62"/><circle class="cls-9" cx="1273.22" cy="21.58" r="4.62"/><circle class="cls-9" cx="1291.02" cy="21.58" r="4.62"/><circle class="cls-9" cx="1308.82" cy="21.58" r="4.62"/><circle class="cls-9" cx="1326.62" cy="21.58" r="4.62"/><circle class="cls-9" cx="1344.41" cy="21.58" r="4.62"/><circle class="cls-9" cx="1104.28" cy="6.86" r="4.62"/><circle class="cls-9" cx="1122.08" cy="6.86" r="4.62"/><circle class="cls-9" cx="1139.88" cy="6.86" r="4.62"/><circle class="cls-9" cx="1157.68" cy="6.86" r="4.62"/><circle class="cls-9" cx="1175.48" cy="6.86" r="4.62"/><circle class="cls-9" cx="1193.27" cy="6.86" r="4.62"/><circle class="cls-9" cx="1211.07" cy="6.86" r="4.62"/><circle class="cls-9" cx="1228.87" cy="6.86" r="4.62"/><circle class="cls-9" cx="1246.67" cy="6.86" r="4.62"/><circle class="cls-9" cx="1264.46" cy="6.86" r="4.62"/><circle class="cls-9" cx="1282.26" cy="6.86" r="4.62"/><circle class="cls-9" cx="1300.06" cy="6.86" r="4.62"/><circle class="cls-9" cx="1317.86" cy="6.86" r="4.62"/><circle class="cls-9" cx="1335.66" cy="6.86" r="4.62"/><circle class="cls-9" cx="1113.04" cy="51.59" r="4.62"/><circle class="cls-9" cx="1130.84" cy="51.59" r="4.62"/><circle class="cls-9" cx="1148.64" cy="51.59" r="4.62"/><circle class="cls-9" cx="1166.43" cy="51.59" r="4.62"/><circle class="cls-9" cx="1184.23" cy="51.59" r="4.62"/><circle class="cls-9" cx="1202.03" cy="51.59" r="4.62"/><circle class="cls-9" cx="1219.83" cy="51.59" r="4.62"/><circle class="cls-9" cx="1237.63" cy="51.59" r="4.62"/><circle class="cls-9" cx="1255.42" cy="51.59" r="4.62"/><circle class="cls-9" cx="1273.22" cy="51.59" r="4.62"/><circle class="cls-9" cx="1291.02" cy="51.59" r="4.62"/><circle class="cls-9" cx="1308.82" cy="51.59" r="4.62"/><circle class="cls-9" cx="1326.62" cy="51.59" r="4.62"/><circle class="cls-9" cx="1344.41" cy="51.59" r="4.62"/><circle class="cls-9" cx="1104.28" cy="36.88" r="4.62"/><circle class="cls-9" cx="1122.08" cy="36.88" r="4.62"/><circle class="cls-9" cx="1139.88" cy="36.88" r="4.62"/><circle class="cls-9" cx="1157.68" cy="36.88" r="4.62"/><circle class="cls-9" cx="1175.48" cy="36.88" r="4.62"/><circle class="cls-9" cx="1193.27" cy="36.88" r="4.62"/><circle class="cls-9" cx="1211.07" cy="36.88" r="4.62"/><circle class="cls-9" cx="1228.87" cy="36.88" r="4.62"/><circle class="cls-9" cx="1246.67" cy="36.88" r="4.62"/><circle class="cls-9" cx="1264.46" cy="36.88" r="4.62"/><circle class="cls-9" cx="1282.26" cy="36.88" r="4.62"/><circle class="cls-9" cx="1300.06" cy="36.88" r="4.62"/><circle class="cls-9" cx="1317.86" cy="36.88" r="4.62"/><circle class="cls-9" cx="1335.66" cy="36.88" r="4.62"/><circle class="cls-9" cx="1113.04" cy="81.61" r="4.62"/><circle class="cls-9" cx="1130.84" cy="81.61" r="4.62"/><circle class="cls-9" cx="1148.64" cy="81.61" r="4.62"/><circle class="cls-9" cx="1166.43" cy="81.61" r="4.62"/><circle class="cls-9" cx="1184.23" cy="81.61" r="4.62"/><circle class="cls-9" cx="1202.03" cy="81.61" r="4.62"/><circle class="cls-9" cx="1219.83" cy="81.61" r="4.62"/><circle class="cls-9" cx="1237.63" cy="81.61" r="4.62"/><circle class="cls-9" cx="1255.42" cy="81.61" r="4.62"/><circle class="cls-9" cx="1273.22" cy="81.61" r="4.62"/><circle class="cls-9" cx="1291.02" cy="81.61" r="4.62"/><circle class="cls-9" cx="1308.82" cy="81.61" r="4.62"/><circle class="cls-9" cx="1326.62" cy="81.61" r="4.62"/><circle class="cls-9" cx="1344.41" cy="81.61" r="4.62"/><circle class="cls-9" cx="1104.28" cy="66.89" r="4.62"/><circle class="cls-9" cx="1122.08" cy="66.89" r="4.62"/><circle class="cls-9" cx="1139.88" cy="66.89" r="4.62"/><circle class="cls-9" cx="1157.68" cy="66.89" r="4.62"/><circle class="cls-9" cx="1175.48" cy="66.89" r="4.62"/><circle class="cls-9" cx="1193.27" cy="66.89" r="4.62"/><circle class="cls-9" cx="1211.07" cy="66.89" r="4.62"/><circle class="cls-9" cx="1228.87" cy="66.89" r="4.62"/><circle class="cls-9" cx="1246.67" cy="66.89" r="4.62"/><circle class="cls-9" cx="1264.46" cy="66.89" r="4.62"/><circle class="cls-9" cx="1282.26" cy="66.89" r="4.62"/><circle class="cls-9" cx="1300.06" cy="66.89" r="4.62"/><circle class="cls-9" cx="1317.86" cy="66.89" r="4.62"/><circle class="cls-9" cx="1335.66" cy="66.89" r="4.62"/><circle class="cls-9" cx="1113.04" cy="111.62" r="4.62"/><circle class="cls-9" cx="1130.84" cy="111.62" r="4.62"/><circle class="cls-9" cx="1148.64" cy="111.62" r="4.62"/><circle class="cls-9" cx="1166.43" cy="111.62" r="4.62"/><circle class="cls-9" cx="1184.23" cy="111.62" r="4.62"/><circle class="cls-9" cx="1202.03" cy="111.62" r="4.62"/><circle class="cls-9" cx="1219.83" cy="111.62" r="4.62"/><circle class="cls-9" cx="1237.63" cy="111.62" r="4.62"/><circle class="cls-9" cx="1255.42" cy="111.62" r="4.62"/><circle class="cls-9" cx="1273.22" cy="111.62" r="4.62"/><circle class="cls-9" cx="1291.02" cy="111.62" r="4.62"/><circle class="cls-9" cx="1308.82" cy="111.62" r="4.62"/><circle class="cls-9" cx="1326.62" cy="111.62" r="4.62"/><circle class="cls-9" cx="1344.41" cy="111.62" r="4.62"/><circle class="cls-9" cx="1104.28" cy="96.9" r="4.62"/><circle class="cls-9" cx="1122.08" cy="96.9" r="4.62"/><circle class="cls-9" cx="1139.88" cy="96.9" r="4.62"/><circle class="cls-9" cx="1157.68" cy="96.9" r="4.62"/><circle class="cls-9" cx="1175.48" cy="96.9" r="4.62"/><circle class="cls-9" cx="1193.27" cy="96.9" r="4.62"/><circle class="cls-9" cx="1211.07" cy="96.9" r="4.62"/><circle class="cls-9" cx="1228.87" cy="96.9" r="4.62"/><circle class="cls-9" cx="1246.67" cy="96.9" r="4.62"/><circle class="cls-9" cx="1264.46" cy="96.9" r="4.62"/><circle class="cls-9" cx="1282.26" cy="96.9" r="4.62"/><circle class="cls-9" cx="1300.06" cy="96.9" r="4.62"/><circle class="cls-9" cx="1317.86" cy="96.9" r="4.62"/><circle class="cls-9" cx="1335.66" cy="96.9" r="4.62"/><circle class="cls-9" cx="1113.04" cy="141.63" r="4.62"/><circle class="cls-9" cx="1130.84" cy="141.63" r="4.62"/><circle class="cls-9" cx="1148.64" cy="141.63" r="4.62"/><circle class="cls-9" cx="1166.43" cy="141.63" r="4.62"/><circle class="cls-9" cx="1184.23" cy="141.63" r="4.62"/><circle class="cls-9" cx="1202.03" cy="141.63" r="4.62"/><circle class="cls-9" cx="1219.83" cy="141.63" r="4.62"/><circle class="cls-9" cx="1237.63" cy="141.63" r="4.62"/><circle class="cls-9" cx="1255.42" cy="141.63" r="4.62"/><circle class="cls-9" cx="1273.22" cy="141.63" r="4.62"/><circle class="cls-9" cx="1291.02" cy="141.63" r="4.62"/><circle class="cls-9" cx="1308.82" cy="141.63" r="4.62"/><circle class="cls-9" cx="1326.62" cy="141.63" r="4.62"/><circle class="cls-9" cx="1344.41" cy="141.63" r="4.62"/><circle class="cls-9" cx="1104.28" cy="126.92" r="4.62"/><circle class="cls-9" cx="1122.08" cy="126.92" r="4.62"/><circle class="cls-9" cx="1139.88" cy="126.92" r="4.62"/><circle class="cls-9" cx="1157.68" cy="126.92" r="4.62"/><circle class="cls-9" cx="1175.48" cy="126.92" r="4.62"/><circle class="cls-9" cx="1193.27" cy="126.92" r="4.62"/><circle class="cls-9" cx="1211.07" cy="126.92" r="4.62"/><circle class="cls-9" cx="1228.87" cy="126.92" r="4.62"/><circle class="cls-9" cx="1246.67" cy="126.92" r="4.62"/><circle class="cls-9" cx="1264.46" cy="126.92" r="4.62"/><circle class="cls-9" cx="1282.26" cy="126.92" r="4.62"/><circle class="cls-9" cx="1300.06" cy="126.92" r="4.62"/><circle class="cls-9" cx="1317.86" cy="126.92" r="4.62"/><circle class="cls-9" cx="1335.66" cy="126.92" r="4.62"/></g><rect class="cls-11" x="1431.86" y="209.35" width="195.42" height="37.15" rx="10.2" ry="10.2" transform="translate(421.05 -850.36) rotate(35.73)"/><g class="cls-17"><rect class="cls-20" x="1004.06" y="-339.74" width="1.41" height="603.47" transform="translate(266.81 -720.95) rotate(44.95)"/><polyline class="cls-20" points="1214.52 -254.96 788.45 172.4 787.45 171.4 1213.52 -255.96"/><polyline class="cls-20" points="1222.08 -247.41 796.01 179.95 795.01 178.95 1221.08 -248.41"/><polyline class="cls-20" points="1225.86 -243.64 799.79 183.73 798.79 182.73 1224.86 -244.64"/><polyline class="cls-20" points="1229.64 -239.86 803.57 187.5 802.58 186.5 1228.64 -240.86"/><polyline class="cls-20" points="1233.42 -236.09 807.36 191.27 806.36 190.28 1232.43 -237.09"/><polyline class="cls-20" points="1237.21 -232.31 811.14 195.05 810.14 194.05 1236.21 -233.31"/><polyline class="cls-20" points="1240.99 -228.54 814.92 198.82 813.92 197.83 1239.99 -229.54"/><polyline class="cls-20" points="1244.77 -224.76 818.7 202.6 817.7 201.6 1243.77 -225.76"/><polyline class="cls-20" points="1248.55 -220.99 822.48 206.37 821.48 205.38 1247.55 -221.99"/><polyline class="cls-20" points="1252.33 -217.22 826.26 210.15 825.27 209.15 1251.33 -218.21"/><polyline class="cls-20" points="1256.11 -213.44 830.04 213.92 829.05 212.93 1255.11 -214.44"/><polyline class="cls-20" points="1259.89 -209.67 833.83 217.7 832.83 216.7 1258.9 -210.66"/><polyline class="cls-20" points="1263.68 -205.89 837.61 221.47 836.61 220.48 1262.68 -206.89"/><polyline class="cls-20" points="1267.46 -202.12 841.39 225.25 840.39 224.25 1266.46 -203.11"/><polyline class="cls-20" points="1271.24 -198.34 845.17 229.02 844.17 228.03 1270.24 -199.34"/><polyline class="cls-20" points="1275.02 -194.57 848.95 232.8 847.95 231.8 1274.02 -195.56"/><polyline class="cls-20" points="1278.8 -190.79 852.73 236.57 851.73 235.58 1277.8 -191.79"/><polyline class="cls-20" points="1282.58 -187.02 856.51 240.35 855.52 239.35 1281.58 -188.01"/><polyline class="cls-20" points="1286.36 -183.24 860.3 244.12 859.3 243.13 1285.37 -184.24"/><polyline class="cls-20" points="1290.15 -179.47 864.08 247.9 863.08 246.9 1289.15 -180.46"/><polyline class="cls-20" points="1293.93 -175.69 867.86 251.67 866.86 250.68 1292.93 -176.69"/><polyline class="cls-20" points="1297.71 -171.92 871.64 255.45 870.64 254.45 1296.71 -172.91"/><polyline class="cls-20" points="1301.49 -168.14 875.42 259.22 874.42 258.23 1300.49 -169.14"/><polyline class="cls-20" points="1305.27 -164.37 879.2 263 878.2 262 1304.27 -165.36"/><polyline class="cls-20" points="1309.05 -160.59 882.98 266.77 881.99 265.78 1308.05 -161.59"/><polyline class="cls-20" points="1312.83 -156.82 886.77 270.55 885.77 269.55 1311.84 -157.81"/><polyline class="cls-20" points="1316.61 -153.04 890.55 274.32 889.55 273.33 1315.62 -154.04"/><polyline class="cls-20" points="1320.4 -149.27 894.33 278.1 893.33 277.1 1319.4 -150.26"/><polyline class="cls-20" points="1324.18 -145.49 898.11 281.87 897.11 280.88 1323.18 -146.49"/><polyline class="cls-20" points="1327.96 -141.72 901.89 285.65 900.89 284.65 1326.96 -142.71"/><polyline class="cls-20" points="1331.74 -137.94 905.67 289.42 904.67 288.43 1330.74 -138.94"/><polyline class="cls-20" points="1335.52 -134.17 909.45 293.2 908.46 292.2 1334.52 -135.16"/><polyline class="cls-20" points="1339.3 -130.39 913.24 296.97 912.24 295.98 1338.31 -131.39"/><polyline class="cls-20" points="1343.08 -126.62 917.02 300.75 916.02 299.75 1342.09 -127.61"/><polyline class="cls-20" points="1346.87 -122.84 920.8 304.52 919.8 303.53 1345.87 -123.84"/><polyline class="cls-20" points="1350.65 -119.07 924.58 308.3 923.58 307.3 1349.65 -120.06"/><polyline class="cls-20" points="1354.43 -115.29 928.36 312.07 927.36 311.08 1353.43 -116.29"/><polyline class="cls-20" points="1358.21 -111.52 932.14 315.85 931.14 314.85 1357.21 -112.51"/><polyline class="cls-20" points="1361.99 -107.74 935.92 319.62 934.93 318.62 1360.99 -108.74"/><polyline class="cls-20" points="1365.77 -103.97 939.71 323.4 938.71 322.4 1364.78 -104.96"/><polyline class="cls-20" points="1369.55 -100.19 943.49 327.17 942.49 326.17 1368.56 -101.19"/><polyline class="cls-20" points="1373.34 -96.42 947.27 330.95 946.27 329.95 1372.34 -97.41"/><polyline class="cls-20" points="1377.12 -92.64 951.05 334.72 950.05 333.72 1376.12 -93.64"/><polyline class="cls-20" points="1380.9 -88.87 954.83 338.5 953.83 337.5 1379.9 -89.87"/><polyline class="cls-20" points="1384.68 -85.09 958.61 342.27 957.61 341.27 1383.68 -86.09"/><polyline class="cls-20" points="1388.46 -81.32 962.39 346.05 961.4 345.05 1387.46 -82.32"/><polyline class="cls-20" points="1392.24 -77.54 966.18 349.82 965.18 348.82 1391.25 -78.54"/><polyline class="cls-20" points="1396.02 -73.77 969.96 353.6 968.96 352.6 1395.03 -74.77"/><polyline class="cls-20" points="1399.81 -69.99 973.74 357.37 972.74 356.37 1398.81 -70.99"/><polyline class="cls-20" points="1403.59 -66.22 977.52 361.14 976.52 360.15 1402.59 -67.22"/><polyline class="cls-20" points="1407.37 -62.44 981.3 364.92 980.3 363.92 1406.37 -63.44"/><polyline class="cls-20" points="1411.15 -58.67 985.08 368.69 984.08 367.7 1410.15 -59.67"/><polyline class="cls-20" points="1414.93 -54.9 988.86 372.47 987.87 371.47 1413.93 -55.89"/><polyline class="cls-20" points="1418.71 -51.12 992.65 376.24 991.65 375.25 1417.72 -52.12"/><polyline class="cls-20" points="1422.5 -47.35 996.43 380.02 995.43 379.02 1421.5 -48.34"/><polyline class="cls-20" points="1426.28 -43.57 1000.21 383.79 999.21 382.8 1425.28 -44.57"/><polyline class="cls-20" points="1430.06 -39.8 1003.99 387.57 1002.99 386.57 1429.06 -40.79"/><polyline class="cls-20" points="1433.84 -36.02 1007.77 391.34 1006.77 390.35 1432.84 -37.02"/><polyline class="cls-20" points="1437.62 -32.25 1011.55 395.12 1010.55 394.12 1436.62 -33.24"/><polyline class="cls-20" points="1441.4 -28.47 1015.33 398.89 1014.34 397.9 1440.4 -29.47"/><polyline class="cls-20" points="1445.18 -24.7 1019.12 402.67 1018.12 401.67 1444.19 -25.69"/><polyline class="cls-20" points="1448.96 -20.92 1022.9 406.44 1021.9 405.45 1447.97 -21.92"/><polyline class="cls-20" points="1452.75 -17.15 1026.68 410.22 1025.68 409.22 1451.75 -18.14"/><polyline class="cls-20" points="1456.53 -13.37 1030.46 413.99 1029.46 413 1455.53 -14.37"/><polyline class="cls-20" points="1460.31 -9.6 1034.24 417.77 1033.24 416.77 1459.31 -10.59"/><polyline class="cls-20" points="1464.09 -5.82 1038.02 421.54 1037.02 420.55 1463.09 -6.82"/><polyline class="cls-20" points="1467.87 -2.05 1041.8 425.32 1040.81 424.32 1466.87 -3.04"/><polyline class="cls-20" points="1471.65 1.73 1045.59 429.09 1044.59 428.1 1470.66 .73"/><polyline class="cls-20" points="1475.43 5.5 1049.37 432.87 1048.37 431.87 1474.44 4.51"/><polyline class="cls-20" points="1479.22 9.28 1053.15 436.64 1052.15 435.65 1478.22 8.28"/><polyline class="cls-20" points="1483 13.05 1056.93 440.42 1055.93 439.42 1482 12.06"/><polyline class="cls-20" points="1486.78 16.83 1060.71 444.19 1059.71 443.2 1485.78 15.83"/><polyline class="cls-20" points="1490.56 20.6 1064.49 447.97 1063.49 446.97 1489.56 19.61"/><polyline class="cls-20" points="1494.34 24.38 1068.27 451.74 1067.28 450.75 1493.34 23.38"/><polyline class="cls-20" points="1498.12 28.15 1072.06 455.52 1071.06 454.52 1497.13 27.16"/><polyline class="cls-20" points="1501.9 31.93 1075.84 459.29 1074.84 458.3 1500.91 30.93"/><polyline class="cls-20" points="1505.69 35.7 1079.62 463.07 1078.62 462.07 1504.69 34.71"/><polyline class="cls-20" points="1509.47 39.48 1083.4 466.84 1082.4 465.85 1508.47 38.48"/><polyline class="cls-20" points="1513.25 43.25 1087.18 470.62 1086.18 469.62 1512.25 42.26"/><polyline class="cls-20" points="1517.03 47.03 1090.96 474.39 1089.96 473.4 1516.03 46.03"/><polyline class="cls-20" points="1520.81 50.8 1094.74 478.17 1093.75 477.17 1519.81 49.81"/><polyline class="cls-20" points="1524.59 54.58 1098.53 481.94 1097.53 480.95 1523.6 53.58"/><polyline class="cls-20" points="1528.37 58.35 1102.31 485.72 1101.31 484.72 1527.38 57.36"/><polyline class="cls-20" points="1532.16 62.13 1106.09 489.49 1105.09 488.49 1531.16 61.13"/></g><path class="cls-6" d="m1490.43,195.3l-57.92-6.99-24.54-52.91-24.54,52.91-57.9,6.99,42.74,39.69-11.25,57.25,50.97-28.38,50.96,28.38-11.25-57.24,42.74-39.69Zm0,0l-57.92-6.99-24.54-52.91-24.54,52.91-57.9,6.99,42.74,39.69-11.25,57.25,50.97-28.38,50.96,28.38-11.25-57.24,42.74-39.69Z"/></g></g></g></svg>